<svg width="26" height="26" viewBox="0 0 26 26" fill="none" xmlns="http://www.w3.org/2000/svg">
<path d="M18.5 18.5H18.3604C18.1956 17.6979 17.9056 16.9603 17.4902 16.2871C17.0749 15.6139 16.57 15.0339 15.9756 14.5469C15.3812 14.0599 14.7116 13.6803 13.9668 13.4082C13.222 13.1361 12.4414 13 11.625 13C10.9948 13 10.3861 13.0824 9.79883 13.2471C9.21159 13.4118 8.66374 13.641 8.15527 13.9346C7.64681 14.2282 7.1849 14.5863 6.76953 15.0088C6.35417 15.4313 5.99609 15.8968 5.69531 16.4053C5.39453 16.9137 5.16178 17.4616 4.99707 18.0488C4.83236 18.6361 4.75 19.2448 4.75 19.875H3.375C3.375 19.0156 3.50033 18.1885 3.75098 17.3936C4.00163 16.5986 4.36328 15.8646 4.83594 15.1914C5.30859 14.5182 5.86719 13.9202 6.51172 13.3975C7.15625 12.8747 7.88672 12.4629 8.70312 12.1621C7.89388 11.6322 7.26367 10.9661 6.8125 10.1641C6.36133 9.36198 6.13216 8.47396 6.125 7.5C6.125 6.74089 6.26823 6.02832 6.55469 5.3623C6.84115 4.69629 7.23145 4.11263 7.72559 3.61133C8.21973 3.11003 8.80339 2.71615 9.47656 2.42969C10.1497 2.14323 10.8659 2 11.625 2C12.3841 2 13.0967 2.14323 13.7627 2.42969C14.4287 2.71615 15.0124 3.10645 15.5137 3.60059C16.015 4.09473 16.4089 4.67839 16.6953 5.35156C16.9818 6.02474 17.125 6.74089 17.125 7.5C17.125 7.97266 17.0677 8.43457 16.9531 8.88574C16.8385 9.33691 16.6667 9.76302 16.4375 10.1641C16.2083 10.5651 15.9398 10.9339 15.6318 11.2705C15.3239 11.6071 14.9622 11.9043 14.5469 12.1621C15.349 12.4701 16.0866 12.8926 16.7598 13.4297C17.4329 13.9668 18.013 14.597 18.5 15.3203V18.5ZM7.5 7.5C7.5 8.07292 7.60742 8.60645 7.82227 9.10059C8.03711 9.59473 8.33073 10.0316 8.70312 10.4111C9.07552 10.7907 9.51237 11.0879 10.0137 11.3027C10.515 11.5176 11.0521 11.625 11.625 11.625C12.1908 11.625 12.7243 11.5176 13.2256 11.3027C13.7269 11.0879 14.1637 10.7943 14.5361 10.4219C14.9085 10.0495 15.2057 9.61263 15.4277 9.11133C15.6497 8.61003 15.7572 8.07292 15.75 7.5C15.75 6.93424 15.6426 6.40072 15.4277 5.89941C15.2129 5.39811 14.9193 4.96126 14.5469 4.58887C14.1745 4.21647 13.734 3.91927 13.2256 3.69727C12.7171 3.47526 12.1836 3.36784 11.625 3.375C11.0521 3.375 10.5186 3.48242 10.0244 3.69727C9.53027 3.91211 9.09342 4.20573 8.71387 4.57812C8.33431 4.95052 8.03711 5.39095 7.82227 5.89941C7.60742 6.40788 7.5 6.94141 7.5 7.5ZM21.25 19.875H24V21.25H21.25V24H19.875V21.25H17.125V19.875H19.875V17.125H21.25V19.875Z" fill="#B0AFAF" stroke="#B0AFAF"/>
</svg>
