<svg width="27" height="27" viewBox="0 0 27 27" fill="none" xmlns="http://www.w3.org/2000/svg">
<g clip-path="url(#clip0_713_648)">
<path d="M3.95379 23.0459C2.70017 21.7922 1.70576 20.3038 1.02735 18.6658C0.348934 17.0277 -0.000200407 15.2721 -0.000122057 13.4991C3.61767e-05 9.91845 1.4226 6.4845 3.95463 3.95269C6.48666 1.42089 9.92075 -0.00137892 13.5014 -0.00122069C17.0821 -0.00106246 20.516 1.42151 23.0479 3.95354C25.5797 6.48557 27.0019 9.91965 27.0018 13.5003C27.0016 17.081 25.579 20.5149 23.047 23.0468C20.515 25.5786 17.0809 27.0008 13.5002 27.0007C9.91955 27.0005 6.4856 25.5779 3.95379 23.0459ZM10.1756 8.3866C9.93554 8.16316 9.6182 8.04148 9.29029 8.04715C8.96238 8.05281 8.64943 8.18538 8.41723 8.41697C8.18563 8.64918 8.05307 8.96213 8.0474 9.29004C8.04174 9.61795 8.16341 9.93528 8.38685 10.1753L11.7112 13.4997L8.38685 16.8241C8.22025 16.9788 8.09847 17.1756 8.03432 17.3937C7.97017 17.6118 7.96603 17.8431 8.02235 18.0634C8.07867 18.2837 8.19335 18.4847 8.35432 18.6452C8.51528 18.8058 8.71657 18.9199 8.93698 18.9757C9.15699 19.0321 9.38813 19.0281 9.60609 18.9643C9.82405 18.9004 10.0208 18.779 10.1756 18.6128L13.5 15.2885L16.8244 18.6128C16.979 18.7794 17.1758 18.9012 17.3939 18.9654C17.612 19.0295 17.8434 19.0337 18.0637 18.9773C18.2839 18.921 18.4849 18.8064 18.6455 18.6454C18.806 18.4844 18.9202 18.2831 18.9759 18.0627C19.0323 17.8427 19.0284 17.6116 18.9645 17.3936C18.9007 17.1756 18.7793 16.9789 18.6131 16.8241L15.2887 13.4997L18.6131 10.1753C18.7797 10.0207 18.9015 9.82389 18.9656 9.60578C19.0298 9.38767 19.0339 9.1563 18.9776 8.93604C18.9213 8.71578 18.8066 8.51479 18.6456 8.35424C18.4847 8.19369 18.2834 8.07953 18.063 8.02379C17.843 7.9674 17.6118 7.97133 17.3939 8.03518C17.1759 8.09902 16.9792 8.22042 16.8244 8.3866L13.5 11.711L10.1756 8.3866Z" fill="#FA756D"/>
</g>
<defs>
<clipPath id="clip0_713_648">
<rect width="27" height="27" fill="white"/>
</clipPath>
</defs>
</svg>
