<svg width="20" height="20" viewBox="0 0 20 20" fill="none" xmlns="http://www.w3.org/2000/svg">
<g clip-path="url(#clip0_2522_973)">
<path d="M5.34667 15.4286H14.9048M6.64282 28.1665H12.3571M4.90476 4H15.381C15.8861 4 16.3706 4.20068 16.7278 4.55789C17.085 4.9151 17.2857 5.39959 17.2857 5.90476V11.6657C17.2856 12.1461 17.104 12.6087 16.7773 12.9609C16.4506 13.313 16.0028 13.5287 15.5238 13.5648L15.3733 13.5705L4.89714 13.5305C4.39329 13.5285 3.91076 13.3269 3.5552 12.9699C3.19963 12.6129 3 12.1296 3 11.6257V5.90476C3 5.39959 3.20068 4.9151 3.55789 4.55789C3.9151 4.20068 4.39959 4 4.90476 4Z" stroke="#414141" stroke-width="1.8" stroke-linecap="round" stroke-linejoin="round"/>
</g>
<defs>
<clipPath id="clip0_2522_973">
<rect width="20" height="20" fill="white"/>
</clipPath>
</defs>
</svg>
