<svg width="25" height="25" viewBox="0 0 25 25" fill="none" xmlns="http://www.w3.org/2000/svg">
<path d="M16.4062 8.59375C16.6134 8.59375 16.8121 8.67606 16.9586 8.82257C17.1052 8.96909 17.1875 9.1678 17.1875 9.375C17.188 9.92925 17.0703 10.4772 16.8422 10.9824C16.614 11.4875 16.2807 11.9381 15.8645 12.3042C15.7883 12.3761 15.6984 12.432 15.6002 12.4685C15.5019 12.505 15.3973 12.5214 15.2926 12.5166C15.1879 12.5119 15.0853 12.4861 14.9907 12.4408C14.8962 12.3956 14.8117 12.3317 14.7424 12.2531C14.673 12.1746 14.6202 12.0828 14.587 11.9834C14.5539 11.884 14.541 11.7789 14.5493 11.6744C14.5576 11.5699 14.5868 11.4682 14.6353 11.3752C14.6837 11.2823 14.7503 11.2 14.8312 11.1333C15.0812 10.9138 15.2814 10.6433 15.4183 10.34C15.5552 10.0368 15.6257 9.70773 15.625 9.375C15.625 9.1678 15.7073 8.96909 15.8538 8.82257C16.0003 8.67606 16.199 8.59375 16.4062 8.59375Z" fill="#414141"/>
<path fill-rule="evenodd" clip-rule="evenodd" d="M12.5 2.34375C6.89062 2.34375 2.34375 6.89062 2.34375 12.5C2.34375 18.1094 6.89062 22.6562 12.5 22.6562C18.1094 22.6562 22.6562 18.1094 22.6562 12.5C22.6562 6.89062 18.1094 2.34375 12.5 2.34375ZM4.76562 16.25C5.62006 18.0133 7.05141 19.4317 8.82242 20.27C10.5934 21.1083 12.5977 21.3163 14.5031 20.8594C14.3562 20.4696 14.0941 20.1338 13.7518 19.8966C13.4094 19.6594 13.003 19.532 12.5865 19.5312C12.3437 19.5319 12.1087 19.4461 11.9235 19.2892C11.7384 19.1323 11.6152 18.9145 11.576 18.675L11.5 18.2198C11.4021 17.6312 11.7604 17.0635 12.3333 16.9L13.3646 16.6062C13.8094 16.4781 14.1802 16.1708 14.3875 15.7563L14.425 15.6802C14.5323 15.4656 14.689 15.2795 14.8824 15.1374C15.0757 14.9953 15.3001 14.9011 15.5369 14.8628C15.7738 14.8244 16.0164 14.8429 16.2447 14.9168C16.473 14.9906 16.6805 15.1177 16.85 15.2875L17.1875 15.625H17.8417C18.2655 15.6249 18.6814 15.7398 19.0452 15.9573C19.4089 16.1749 19.7069 16.487 19.9073 16.8604C20.6415 15.6133 21.0488 14.2011 21.0916 12.7546C21.1344 11.308 20.8112 9.87416 20.152 8.58589C19.4928 7.29761 18.5189 6.19666 17.3207 5.38515C16.1225 4.57363 14.7388 4.07784 13.2979 3.94375C13.3437 4.21667 13.4854 4.46771 13.7031 4.64792L14.8156 5.575C15.276 5.95938 15.3729 6.62708 15.0406 7.12708L14.5094 7.925C14.2201 8.35855 13.7945 8.68331 13.3 8.84792L13.151 8.89792C12.983 8.95411 12.8301 9.0483 12.7043 9.17316C12.5785 9.29801 12.4832 9.45018 12.4258 9.61785C12.3684 9.78551 12.3504 9.96416 12.3732 10.1399C12.396 10.3157 12.459 10.4838 12.5573 10.6313C12.6479 10.7674 12.7086 10.9213 12.7352 11.0827C12.7619 11.2442 12.7539 11.4094 12.7118 11.5675C12.6698 11.7256 12.5946 11.8729 12.4913 11.9997C12.3879 12.1266 12.2588 12.23 12.1125 12.3031L9.375 13.6719L9.81563 14.775C9.90449 14.999 9.90908 15.2477 9.82854 15.4749C9.74801 15.7021 9.58781 15.8923 9.37767 16.0104C9.16752 16.1284 8.9217 16.1663 8.68579 16.1168C8.44988 16.0674 8.2399 15.9341 8.09479 15.7417L7.3875 14.7979C7.26763 14.6382 7.10892 14.5117 6.92644 14.4305C6.74396 14.3494 6.54377 14.3162 6.34486 14.3341C6.14595 14.3521 5.95493 14.4206 5.78993 14.5331C5.62493 14.6456 5.49142 14.7985 5.40208 14.9771L4.76562 16.25Z" fill="#414141"/>
</svg>
