<svg width="26" height="26" viewBox="0 0 26 26" fill="none" xmlns="http://www.w3.org/2000/svg">
<g clip-path="url(#clip0_1433_63)">
<path fill-rule="evenodd" clip-rule="evenodd" d="M5.34887 18.7722C5.15182 18.9693 5.04112 19.2366 5.04112 19.5153C5.04112 19.794 5.15182 20.0613 5.34887 20.2584C9.45339 24.363 16.1089 24.363 20.2135 20.2584C24.318 16.1539 24.318 9.49838 20.2135 5.39386C16.1089 1.28933 9.45339 1.28933 5.34887 5.39386C3.63125 7.10615 2.5613 9.3616 2.32171 11.7751H1.21911C1.01126 11.7751 0.808085 11.8368 0.635275 11.9523C0.462464 12.0678 0.327778 12.2319 0.248241 12.4239C0.168705 12.616 0.14789 12.8273 0.188428 13.0311C0.228966 13.235 0.329037 13.4223 0.47599 13.5693L2.57818 15.6715L2.58028 15.6736C2.67786 15.7711 2.79375 15.8485 2.9213 15.9012C3.04884 15.9538 3.18554 15.9808 3.32354 15.9805C3.46153 15.9802 3.59811 15.9527 3.72544 15.8995C3.85276 15.8462 3.96832 15.7684 4.06548 15.6704L6.16767 13.5693C6.31469 13.4222 6.41478 13.2348 6.45528 13.0309C6.49579 12.8269 6.47489 12.6155 6.39522 12.4235C6.31555 12.2314 6.1807 12.0672 6.00773 11.9518C5.83476 11.8364 5.63144 11.7749 5.4235 11.7751H4.43757C4.67521 9.88976 5.5444 8.14055 6.90348 6.8125C8.26256 5.48446 10.0314 4.65589 11.9217 4.46185C13.8119 4.26781 15.7122 4.71974 17.3127 5.74398C18.9133 6.76821 20.1197 8.30437 20.7354 10.1021C21.3511 11.8998 21.3398 13.853 20.7033 15.6434C20.0667 17.4338 18.8425 18.9559 17.2302 19.9615C15.6179 20.9671 13.7125 21.3969 11.8246 21.1809C9.93672 20.965 8.17764 20.1159 6.83407 18.7722C6.637 18.5755 6.36992 18.465 6.09147 18.465C5.81301 18.465 5.54593 18.5755 5.34887 18.7722ZM10.679 8.62177C10.679 8.343 10.7897 8.07565 10.9868 7.87853C11.1839 7.68141 11.4513 7.57067 11.7301 7.57067C12.0088 7.57067 12.2762 7.68141 12.4733 7.87853C12.6704 8.07565 12.7812 8.343 12.7812 8.62177V12.8262H16.9855C17.2643 12.8262 17.5317 12.9369 17.7288 13.134C17.9259 13.3311 18.0366 13.5985 18.0366 13.8772C18.0366 14.156 17.9259 14.4234 17.7288 14.6205C17.5317 14.8176 17.2643 14.9283 16.9855 14.9283H11.7301C11.4513 14.9283 11.1839 14.8176 10.9868 14.6205C10.7897 14.4234 10.679 14.156 10.679 13.8772V8.62177Z" fill="#414141"/>
</g>
<defs>
<clipPath id="clip0_1433_63">
<rect width="25.2263" height="25.2263" fill="white" transform="translate(0.16803 0.212982)"/>
</clipPath>
</defs>
</svg>
