<svg width="24" height="24" viewBox="0 0 24 24" fill="none" xmlns="http://www.w3.org/2000/svg">
<mask id="mask0_2927_576" style="mask-type:alpha" maskUnits="userSpaceOnUse" x="0" y="0" width="24" height="24">
<path opacity="0.48" d="M0.445312 11.7095C0.445312 18.0327 5.57131 23.1587 11.8946 23.1587C18.2178 23.1587 23.3438 18.0327 23.3438 11.7095C23.3438 5.38626 18.2178 0.260254 11.8946 0.260254C5.57131 0.260254 0.445312 5.38626 0.445312 11.7095Z" fill="#FA756D"/>
</mask>
<g mask="url(#mask0_2927_576)">
</g>
<mask id="mask1_2927_576" style="mask-type:alpha" maskUnits="userSpaceOnUse" x="0" y="0" width="24" height="24">
<path d="M0.445312 11.7095C0.445312 18.0327 5.57131 23.1587 11.8946 23.1587C18.2178 23.1587 23.3438 18.0327 23.3438 11.7095C23.3438 5.38626 18.2178 0.260254 11.8946 0.260254C5.57131 0.260254 0.445312 5.38626 0.445312 11.7095Z" fill="#FA756D"/>
</mask>
<g mask="url(#mask1_2927_576)">
<path d="M3.67383 22.8588C3.67383 27.4435 7.39051 31.1602 11.9753 31.1602C16.56 31.1602 20.2767 27.4435 20.2767 22.8588C20.2767 18.274 16.56 16.8633 11.9753 16.8633C7.39051 16.8633 3.67383 18.274 3.67383 22.8588Z" fill="#414141"/>
<path d="M6.44043 10.637C6.44043 13.5661 8.81498 15.9407 11.7441 15.9407C14.6733 15.9407 17.0478 13.5661 17.0478 10.637C17.0478 7.7078 14.6733 5.33325 11.7441 5.33325C8.81498 5.33325 6.44043 7.7078 6.44043 10.637Z" fill="#414141"/>
</g>
</svg>
