<svg width="22" height="21" viewBox="0 0 22 21" fill="none" xmlns="http://www.w3.org/2000/svg">
<path d="M14.648 13.192C15.7764 13.192 16.7372 13.9134 17.0931 14.92H18.104C18.3332 14.92 18.5529 15.011 18.715 15.173C18.877 15.3351 18.968 15.5548 18.968 15.784C18.968 16.0131 18.877 16.2329 18.715 16.3949C18.5529 16.5569 18.3332 16.648 18.104 16.648H17.0931C16.9146 17.1539 16.5836 17.592 16.1457 17.9018C15.7077 18.2117 15.1845 18.3781 14.648 18.3781C14.1115 18.3781 13.5883 18.2117 13.1504 17.9018C12.7124 17.592 12.3814 17.1539 12.2029 16.648H4.28002C4.05087 16.648 3.83111 16.5569 3.66908 16.3949C3.50704 16.2329 3.41602 16.0131 3.41602 15.784C3.41602 15.5548 3.50704 15.3351 3.66908 15.173C3.83111 15.011 4.05087 14.92 4.28002 14.92H12.2029C12.3818 14.4145 12.7129 13.9768 13.1508 13.6674C13.5887 13.3579 14.1118 13.1918 14.648 13.192ZM7.73602 8.00797C8.2449 8.00791 8.74255 8.15764 9.16692 8.4385C9.59128 8.71936 9.92358 9.11892 10.1224 9.58737L10.1803 9.73597H18.104C18.3242 9.73622 18.536 9.82054 18.6962 9.97171C18.8563 10.1229 18.9527 10.3295 18.9656 10.5493C18.9785 10.7692 18.907 10.9856 18.7656 11.1545C18.6243 11.3234 18.4238 11.4319 18.2051 11.4579L18.104 11.464H10.1811C10.007 11.9567 9.68794 12.3853 9.26593 12.6936C8.84392 13.0018 8.3386 13.1754 7.81624 13.1914C7.29388 13.2075 6.77885 13.0653 6.33869 12.7836C5.89853 12.5018 5.55378 12.0937 5.34965 11.6126L5.2909 11.464H4.28002C4.0598 11.4637 3.84799 11.3794 3.68786 11.2282C3.52773 11.0771 3.43136 10.8704 3.41846 10.6506C3.40555 10.4308 3.47708 10.2143 3.61842 10.0454C3.75976 9.87656 3.96025 9.76803 4.17893 9.74202L4.28002 9.73597H5.2909C5.46975 9.23047 5.80093 8.79285 6.23883 8.48338C6.67673 8.17391 7.1998 8.00782 7.73602 8.00797ZM14.648 2.82397C15.7764 2.82397 16.7372 3.54541 17.0931 4.55197H18.104C18.3332 4.55197 18.5529 4.643 18.715 4.80503C18.877 4.96707 18.968 5.18683 18.968 5.41597C18.968 5.64512 18.877 5.86488 18.715 6.02691C18.5529 6.18895 18.3332 6.27997 18.104 6.27997H17.0931C16.9146 6.78587 16.5836 7.22395 16.1457 7.53382C15.7077 7.84369 15.1845 8.01009 14.648 8.01009C14.1115 8.01009 13.5883 7.84369 13.1504 7.53382C12.7124 7.22395 12.3814 6.78587 12.2029 6.27997H4.28002C4.05087 6.27997 3.83111 6.18895 3.66908 6.02691C3.50704 5.86488 3.41602 5.64512 3.41602 5.41597C3.41602 5.18683 3.50704 4.96707 3.66908 4.80503C3.83111 4.643 4.05087 4.55197 4.28002 4.55197H12.2029C12.3818 4.04647 12.7129 3.60885 13.1508 3.29938C13.5887 2.98991 14.1118 2.82382 14.648 2.82397Z" fill="#414141"/>
</svg>
