<svg width="28" height="28" viewBox="0 0 28 28" fill="none" xmlns="http://www.w3.org/2000/svg">
<path opacity="0.32" d="M0 13.545C0 21.0257 6.06431 27.0901 13.545 27.0901C21.0257 27.0901 27.0901 21.0257 27.0901 13.545C27.0901 6.06431 21.0257 0 13.545 0C6.06431 0 0 6.06431 0 13.545Z" fill="#414141"/>
<mask id="mask0_2928_1043" style="mask-type:alpha" maskUnits="userSpaceOnUse" x="0" y="0" width="28" height="28">
<path opacity="0.48" d="M0 13.545C0 21.0257 6.06431 27.0901 13.545 27.0901C21.0257 27.0901 27.0901 21.0257 27.0901 13.545C27.0901 6.06431 21.0257 0 13.545 0C6.06431 0 0 6.06431 0 13.545Z" fill="#FA756D"/>
</mask>
<g mask="url(#mask0_2928_1043)">
<path d="M3.87012 27.09C3.87012 32.586 8.32553 37.0414 13.8216 37.0414C19.3176 37.0414 23.773 32.586 23.773 27.09C23.773 21.594 19.3176 19.9028 13.8216 19.9028C8.32553 19.9028 3.87012 21.594 3.87012 27.09Z" fill="#414141"/>
<path d="M7.1875 12.4392C7.1875 15.9505 10.034 18.797 13.5454 18.797C17.0567 18.797 19.9032 15.9505 19.9032 12.4392C19.9032 8.92781 17.0567 6.0813 13.5454 6.0813C10.034 6.0813 7.1875 8.92781 7.1875 12.4392Z" fill="#414141"/>
</g>
</svg>
