<svg width="24" height="24" viewBox="0 0 24 24" fill="none" xmlns="http://www.w3.org/2000/svg">
<path d="M4.37384 11.1748H5.06771C5.80189 11.1748 6.32176 11.0411 6.62731 10.7737C6.93287 10.5064 7.08565 10.0544 7.08565 9.41782C7.08565 8.74306 6.96682 8.27836 6.72917 8.02373C6.49151 7.7691 6.03318 7.64178 5.35417 7.64178H4.37384V11.1748ZM5.64062 16H1.42014V15.6753H2.69329V7.64178H1.42014V7.3044H5.71701C6.8289 7.3044 7.63098 7.46354 8.12326 7.78183C8.61555 8.09587 8.86169 8.60513 8.86169 9.30961C8.86169 9.86979 8.64738 10.3154 8.21875 10.6464C7.79437 10.9774 7.12596 11.2151 6.21354 11.3594V11.4612C7.07504 11.6182 7.68615 11.9047 8.04687 12.3206C8.4076 12.7323 8.58796 13.3455 8.58796 14.1603V14.7205C8.58796 15.1109 8.65374 15.3804 8.7853 15.5289C8.9211 15.6775 9.15451 15.7517 9.48553 15.7517C9.53646 15.7517 9.59587 15.7454 9.66377 15.7326C9.73167 15.7199 9.8017 15.7008 9.87384 15.6753L9.88021 16.0382C9.70197 16.0849 9.5598 16.1167 9.4537 16.1337C9.35185 16.1507 9.25849 16.1591 9.17361 16.1591C8.3206 16.1591 7.71586 16.0127 7.35937 15.7199C7.00289 15.4271 6.80768 14.903 6.77373 14.1476L6.73553 13.3137C6.70158 12.5837 6.52546 12.0999 6.20718 11.8623C5.89313 11.6246 5.28202 11.4952 4.37384 11.474V15.6753H5.64062V16ZM14.1621 16H9.86518V15.6753H11.1383V7.64178H9.86518V7.3044H14.1493C15.3036 7.3044 16.1694 7.50386 16.7466 7.90278C17.328 8.29745 17.6187 8.89371 17.6187 9.69155C17.6187 10.4851 17.3216 11.0729 16.7275 11.4549C16.1376 11.8326 15.223 12.0214 13.9838 12.0214H12.8189V15.6753H14.1621V16ZM12.8189 11.7095H13.5764C14.3912 11.7095 14.9599 11.5546 15.2824 11.2448C15.605 10.9307 15.7662 10.3812 15.7662 9.59606C15.7662 8.86613 15.6368 8.35899 15.3779 8.07465C15.119 7.78607 14.6225 7.64178 13.8883 7.64178H12.8189V11.7095ZM21.8305 16H17.61V15.6753H18.8831V7.64178H17.61V7.3044H21.8305V7.64178H20.5637V15.6753H21.8305V16Z" fill="#B0AFAF"/>
</svg>
