<svg width="35" height="35" viewBox="0 0 35 35" fill="none" xmlns="http://www.w3.org/2000/svg">
<path fill-rule="evenodd" clip-rule="evenodd" d="M18.3625 2.90735C19.4916 2.90735 20.437 3.76294 20.5494 4.88644C20.7238 6.63114 22.7708 7.47906 24.1279 6.36874C25.0018 5.65375 26.2753 5.71727 27.0737 6.51566L28.3725 7.81447C29.1709 8.61287 29.2344 9.88637 28.5194 10.7603C27.4091 12.1173 28.257 14.1644 30.0017 14.3388C31.1252 14.4512 31.9808 15.3966 31.9808 16.5257L31.9808 18.3626C31.9808 19.4917 31.1253 20.437 30.0019 20.5493C28.2574 20.7238 27.4094 22.7706 28.5196 24.1275C29.2345 25.0013 29.171 26.2746 28.3727 27.0729L27.0737 28.3719C26.2753 29.1703 25.0019 29.2338 24.128 28.5188C22.7709 27.4085 20.7239 28.2567 20.5494 30.0014C20.437 31.125 19.4915 31.9808 18.3623 31.9808L16.5257 31.9808C15.3966 31.9808 14.4512 31.1253 14.3388 30.0017C14.1644 28.257 12.1173 27.4091 10.7602 28.5194C9.88632 29.2344 8.6128 29.1709 7.81439 28.3725L6.51562 27.0737C5.71721 26.2753 5.6537 25.0018 6.3687 24.1279C7.47903 22.7709 6.63114 20.7238 4.88643 20.5494C3.76293 20.437 2.90735 19.4916 2.90735 18.3625L2.90735 16.5259C2.90735 15.3967 3.763 14.4512 4.88661 14.3388C6.63148 14.1643 7.47938 12.117 6.36895 10.7598C5.65386 9.88584 5.71735 8.61214 6.51586 7.81363L7.81445 6.51503C8.61287 5.71662 9.88649 5.6532 10.7604 6.3682C12.1173 7.47843 14.1644 6.63079 14.3389 4.88625C14.4512 3.76285 15.3965 2.90735 16.5255 2.90735L18.3625 2.90735ZM17.4441 23.2588C20.6555 23.2588 23.2588 20.6555 23.2588 17.4441C23.2588 14.2327 20.6555 11.6294 17.4441 11.6294C14.2327 11.6294 11.6294 14.2327 11.6294 17.4441C11.6294 20.6555 14.2327 23.2588 17.4441 23.2588Z" fill="white"/>
</svg>
