<svg width="20" height="20" viewBox="0 0 20 20" fill="none" xmlns="http://www.w3.org/2000/svg">
<path d="M15.8156 8.54337H5.644L8.99044 5.19693C9.08578 5.10237 9.16145 4.98987 9.21309 4.86592C9.26473 4.74197 9.29131 4.60903 9.29131 4.47475C9.29131 4.34047 9.26473 4.20752 9.21309 4.08357C9.16145 3.95962 9.08578 3.84713 8.99044 3.75257C8.79986 3.56312 8.54206 3.45679 8.27334 3.45679C8.00463 3.45679 7.74683 3.56312 7.55625 3.75257L3.19265 8.12634C2.81062 8.50609 2.5948 9.02187 2.59253 9.56053C2.59748 10.0957 2.81309 10.6073 3.19265 10.9845L7.55625 15.3583C7.65109 15.4525 7.76355 15.5271 7.8872 15.5778C8.01086 15.6285 8.14329 15.6543 8.27694 15.6539C8.41059 15.6534 8.54284 15.6266 8.66613 15.575C8.78943 15.5234 8.90136 15.4481 8.99553 15.3532C9.0897 15.2584 9.16426 15.1459 9.21497 15.0223C9.26568 14.8986 9.29154 14.7662 9.29107 14.6325C9.29059 14.4989 9.2638 14.3666 9.21222 14.2434C9.16064 14.1201 9.08528 14.0081 8.99044 13.914L5.644 10.5777H15.8156C16.0853 10.5777 16.344 10.4705 16.5348 10.2798C16.7255 10.089 16.8327 9.8303 16.8327 9.56053C16.8327 9.29076 16.7255 9.03204 16.5348 8.84129C16.344 8.65054 16.0853 8.54337 15.8156 8.54337Z" fill="#414141"/>
</svg>
