<svg width="39" height="39" viewBox="0 0 39 39" fill="none" xmlns="http://www.w3.org/2000/svg">
<path fill-rule="evenodd" clip-rule="evenodd" d="M9.38403 6.41922C9.38403 5.94304 9.5732 5.48636 9.90991 5.14965C10.2466 4.81294 10.7033 4.62378 11.1795 4.62378C11.6557 4.62378 12.1123 4.81294 12.449 5.14965C12.7858 5.48636 12.9749 5.94304 12.9749 6.41922V9.41162H24.9445V6.41922C24.9445 5.94304 25.1337 5.48636 25.4704 5.14965C25.8071 4.81294 26.2638 4.62378 26.74 4.62378C27.2161 4.62378 27.6728 4.81294 28.0095 5.14965C28.3462 5.48636 28.5354 5.94304 28.5354 6.41922V9.41162C29.8052 9.41162 31.023 9.91605 31.9209 10.8139C32.8188 11.7118 33.3232 12.9297 33.3232 14.1995V30.9569C33.3232 32.2267 32.8188 33.4445 31.9209 34.3424C31.023 35.2403 29.8052 35.7448 28.5354 35.7448H9.38403C8.11422 35.7448 6.89641 35.2403 5.99852 34.3424C5.10062 33.4445 4.59619 32.2267 4.59619 30.9569V14.1995C4.59619 12.9297 5.10062 11.7118 5.99852 10.8139C6.89641 9.91605 8.11422 9.41162 9.38403 9.41162V6.41922ZM10.581 16.5934C9.94609 16.5934 9.33718 16.8456 8.88824 17.2945C8.43929 17.7435 8.18707 18.3524 8.18707 18.9873V29.76C8.18707 30.3949 8.43929 31.0038 8.88824 31.4527C9.33718 31.9017 9.94609 32.1539 10.581 32.1539H27.3384C27.9734 32.1539 28.5823 31.9017 29.0312 31.4527C29.4802 31.0038 29.7324 30.3949 29.7324 29.76V18.9873C29.7324 18.3524 29.4802 17.7435 29.0312 17.2945C28.5823 16.8456 27.9734 16.5934 27.3384 16.5934H10.581Z" fill="#414141"/>
</svg>
