<svg width="24" height="24" viewBox="0 0 24 24" fill="none" xmlns="http://www.w3.org/2000/svg">
<g clip-path="url(#clip0_196_28)">
<path fill-rule="evenodd" clip-rule="evenodd" d="M2 12C2 17.5228 6.47715 22 12 22C17.5228 22 22 17.5228 22 12C22 6.47715 17.5228 2 12 2C6.47715 2 2 6.47715 2 12ZM12 7.75C12.4142 7.75 12.75 8.08579 12.75 8.5V11.5C12.75 11.9142 12.4142 12.25 12 12.25C11.5858 12.25 11.25 11.9142 11.25 11.5V8.5C11.25 8.08579 11.5858 7.75 12 7.75ZM11 15.5C11 16.0523 11.4477 16.5 12 16.5C12.5523 16.5 13 16.0523 13 15.5V15.499C13 14.9467 12.5523 14.499 12 14.499C11.4477 14.499 11 14.9467 11 15.499V15.5Z" fill="#FA756D"/>
</g>
<defs>
<clipPath id="clip0_196_28">
<rect width="24" height="24" fill="white"/>
</clipPath>
</defs>
</svg>
