<svg width="49" height="49" viewBox="0 0 49 49" fill="none" xmlns="http://www.w3.org/2000/svg">
<path opacity="0.32" d="M0 24.5C0 38.031 10.969 49 24.5 49C38.031 49 49 38.031 49 24.5C49 10.969 38.031 0 24.5 0C10.969 0 0 10.969 0 24.5Z" fill="#414141"/>
<mask id="mask0_300_59" style="mask-type:alpha" maskUnits="userSpaceOnUse" x="0" y="0" width="49" height="49">
<path opacity="0.48" d="M0 24.5C0 38.031 10.969 49 24.5 49C38.031 49 49 38.031 49 24.5C49 10.969 38.031 0 24.5 0C10.969 0 0 10.969 0 24.5Z" fill="#FA756D"/>
</mask>
<g mask="url(#mask0_300_59)">
<path d="M7 49C7 58.9411 15.0589 67 25 67C34.9411 67 43 58.9411 43 49C43 39.0589 34.9411 36 25 36C15.0589 36 7 39.0589 7 49Z" fill="#414141"/>
<path d="M13 22.5C13 28.8513 18.1487 34 24.5 34C30.8513 34 36 28.8513 36 22.5C36 16.1487 30.8513 11 24.5 11C18.1487 11 13 16.1487 13 22.5Z" fill="#414141"/>
</g>
</svg>
