<svg width="37" height="29" viewBox="0 0 37 29" fill="none" xmlns="http://www.w3.org/2000/svg">
<path d="M16.1893 28.3786C16.1893 28.3786 13.8765 28.3786 13.8765 26.0658C13.8765 23.7531 16.1893 16.8148 25.4403 16.8148C34.6913 16.8148 37.004 23.7531 37.004 26.0658C37.004 28.3786 34.6913 28.3786 34.6913 28.3786H16.1893ZM25.4403 14.502C27.2804 14.502 29.0452 13.7711 30.3464 12.4699C31.6475 11.1687 32.3785 9.40393 32.3785 7.56379C32.3785 5.72365 31.6475 3.95888 30.3464 2.6577C29.0452 1.35653 27.2804 0.625534 25.4403 0.625534C23.6001 0.625534 21.8354 1.35653 20.5342 2.6577C19.233 3.95888 18.502 5.72365 18.502 7.56379C18.502 9.40393 19.233 11.1687 20.5342 12.4699C21.8354 13.7711 23.6001 14.502 25.4403 14.502ZM12.0633 28.3786C11.7206 27.6565 11.5496 26.8649 11.5638 26.0658C11.5638 22.932 13.1364 19.7057 16.0412 17.4624C14.5916 17.0147 13.0809 16.7962 11.5638 16.8148C2.31275 16.8148 0 23.7531 0 26.0658C0 28.3786 2.31275 28.3786 2.31275 28.3786H12.0633ZM10.4074 14.502C11.9408 14.502 13.4115 13.8929 14.4958 12.8086C15.5801 11.7243 16.1893 10.2536 16.1893 8.72017C16.1893 7.18672 15.5801 5.71607 14.4958 4.63176C13.4115 3.54745 11.9408 2.93829 10.4074 2.93829C8.87393 2.93829 7.40329 3.54745 6.31898 4.63176C5.23466 5.71607 4.6255 7.18672 4.6255 8.72017C4.6255 10.2536 5.23466 11.7243 6.31898 12.8086C7.40329 13.8929 8.87393 14.502 10.4074 14.502Z" fill="#414141"/>
</svg>
