<svg width="352" height="83" viewBox="0 0 352 83" fill="none" xmlns="http://www.w3.org/2000/svg">
<path opacity="0.32" d="M6.91666 41.5C6.91666 60.5998 22.4001 76.0833 41.5 76.0833C60.5998 76.0833 76.0833 60.5998 76.0833 41.5C76.0833 22.4002 60.5998 6.91667 41.5 6.91667C22.4001 6.91667 6.91666 22.4002 6.91666 41.5Z" fill="#FA756D" fill-opacity="0.8"/>
<path fill-rule="evenodd" clip-rule="evenodd" d="M33.1622 33.1622C28.7329 37.5916 27.7645 48.0888 27.7645 48.0888C27.1696 53.7459 29.254 55.8304 34.9112 55.2354C34.9112 55.2354 45.4084 54.2671 49.8378 49.8377C54.2671 45.4084 55.2354 34.9112 55.2354 34.9112C55.8304 29.2541 53.7459 27.1696 48.0888 27.7645C48.0888 27.7645 37.5916 28.7328 33.1622 33.1622ZM38.0417 41.5C38.0417 43.41 39.59 44.9583 41.5 44.9583C43.41 44.9583 44.9583 43.41 44.9583 41.5V41.4965C44.9583 39.5865 43.41 38.0382 41.5 38.0382C39.59 38.0382 38.0417 39.5865 38.0417 41.4965V41.5Z" fill="#FA756D"/>
<path d="M93.792 44.312H99.048C99.12 45.572 100.056 46.328 101.748 46.328C103.476 46.328 104.268 45.716 104.268 44.78C104.268 44.24 103.98 43.664 102.648 43.376L99.336 42.656C96.024 41.936 94.404 40.496 94.404 37.328C94.404 33.584 97.608 31.424 101.928 31.424C106.104 31.424 109.02 33.872 109.02 37.508H103.764C103.764 36.284 103.008 35.456 101.676 35.456C100.416 35.456 99.624 36.104 99.624 37.076C99.624 37.904 100.308 38.372 101.568 38.66L104.916 39.38C107.868 40.028 109.488 41.396 109.488 44.276C109.488 48.128 106.212 50.468 101.532 50.468C96.78 50.468 93.792 47.948 93.792 44.312ZM119.657 50H114.113V36.608H110.693V32H114.113V26.42H119.657V32H123.077V36.608H119.657V50ZM137.52 32H143.064V50H137.844L137.484 47.984C136.368 49.46 134.136 50.468 131.976 50.468C127.872 50.468 125.352 47.732 125.352 43.304V32H130.896V41.288C130.896 44.24 131.904 45.536 134.172 45.536C136.548 45.536 137.52 44.312 137.52 41.36V32ZM154.433 50.468C149.249 50.468 145.901 46.796 145.901 41.108C145.901 35.384 149.321 31.424 154.793 31.424C157.025 31.424 159.149 32.324 160.193 33.656V22.856H165.737V50H160.517L160.229 47.696C159.257 49.352 157.025 50.468 154.433 50.468ZM155.765 45.392C158.357 45.392 160.157 43.592 160.157 40.892C160.157 38.192 158.357 36.392 155.765 36.392C153.137 36.392 151.481 38.228 151.481 40.892C151.481 43.556 153.137 45.392 155.765 45.392ZM168.461 58.64V53.996H171.521C173.393 53.996 174.185 53.42 174.905 51.476L175.229 50.612L167.993 32H173.933L177.857 43.556L182.213 32H187.973L178.829 53.924C177.316 57.596 175.301 59.144 172.133 59.144C170.801 59.144 169.541 58.964 168.461 58.64ZM198.811 40.928C198.811 35.384 202.627 31.424 208.027 31.424C213.355 31.424 216.883 34.34 217.243 39.056H211.663C211.267 37.256 210.151 36.392 208.243 36.392C205.903 36.392 204.391 38.156 204.391 40.928C204.391 43.808 205.795 45.5 208.171 45.5C210.115 45.5 211.303 44.6 211.663 42.836H217.243C216.883 47.372 213.211 50.468 208.171 50.468C202.483 50.468 198.811 46.688 198.811 40.928ZM219.307 40.964C219.307 35.276 223.483 31.46 229.243 31.46C234.967 31.46 239.143 35.276 239.143 40.964C239.143 46.652 234.967 50.432 229.243 50.432C223.483 50.432 219.307 46.652 219.307 40.964ZM224.887 40.928C224.887 43.664 226.651 45.464 229.243 45.464C231.799 45.464 233.563 43.664 233.563 40.928C233.563 38.228 231.799 36.428 229.243 36.428C226.651 36.428 224.887 38.228 224.887 40.928ZM247.902 50H242.358V32H247.542L247.902 33.872C248.802 32.612 250.566 31.424 253.158 31.424C255.858 31.424 257.586 32.684 258.63 34.592C259.566 32.684 261.69 31.424 264.282 31.424C268.926 31.424 271.23 34.124 271.23 38.228V50H265.686V39.776C265.686 37.508 264.498 36.428 262.734 36.428C261.15 36.428 259.566 37.292 259.566 40.352V50H254.022V39.776C254.022 37.544 252.87 36.464 251.106 36.464C249.522 36.464 247.902 37.328 247.902 40.352V50ZM275.193 58.64V32H280.413L280.701 34.196C281.709 32.54 283.977 31.424 286.533 31.424C291.537 31.424 295.029 34.916 295.029 40.712C295.029 46.4 291.933 50.504 286.569 50.504C284.085 50.504 281.781 49.568 280.737 48.2V58.64H275.193ZM280.773 41C280.773 43.7 282.573 45.5 285.165 45.5C287.793 45.5 289.449 43.664 289.449 41C289.449 38.336 287.793 36.5 285.165 36.5C282.573 36.5 280.773 38.3 280.773 41ZM303.657 50.468C299.841 50.468 297.465 48.236 297.465 44.708C297.465 41.396 299.805 39.344 304.125 39.02L309.165 38.624V38.336C309.165 36.572 308.085 35.636 306.105 35.636C303.765 35.636 302.505 36.536 302.505 38.156H297.897C297.897 34.088 301.245 31.424 306.393 31.424C311.613 31.424 314.565 34.34 314.565 39.488V50H309.669L309.309 47.624C308.733 49.28 306.357 50.468 303.657 50.468ZM305.601 46.364C307.725 46.364 309.201 45.32 309.201 43.268V42.296L306.393 42.548C303.981 42.764 303.117 43.304 303.117 44.456C303.117 45.752 303.909 46.364 305.601 46.364ZM317.245 44.312H322.501C322.573 45.572 323.509 46.328 325.201 46.328C326.929 46.328 327.721 45.716 327.721 44.78C327.721 44.24 327.433 43.664 326.101 43.376L322.789 42.656C319.477 41.936 317.857 40.496 317.857 37.328C317.857 33.584 321.061 31.424 325.381 31.424C329.557 31.424 332.473 33.872 332.473 37.508H327.217C327.217 36.284 326.461 35.456 325.129 35.456C323.869 35.456 323.077 36.104 323.077 37.076C323.077 37.904 323.761 38.372 325.021 38.66L328.369 39.38C331.321 40.028 332.941 41.396 332.941 44.276C332.941 48.128 329.665 50.468 324.985 50.468C320.233 50.468 317.245 47.948 317.245 44.312ZM334.542 44.312H339.798C339.87 45.572 340.806 46.328 342.498 46.328C344.226 46.328 345.018 45.716 345.018 44.78C345.018 44.24 344.73 43.664 343.398 43.376L340.086 42.656C336.774 41.936 335.154 40.496 335.154 37.328C335.154 33.584 338.358 31.424 342.678 31.424C346.854 31.424 349.77 33.872 349.77 37.508H344.514C344.514 36.284 343.758 35.456 342.426 35.456C341.166 35.456 340.374 36.104 340.374 37.076C340.374 37.904 341.058 38.372 342.318 38.66L345.666 39.38C348.618 40.028 350.238 41.396 350.238 44.276C350.238 48.128 346.962 50.468 342.282 50.468C337.53 50.468 334.542 47.948 334.542 44.312Z" fill="#414141"/>
</svg>
