<svg width="21" height="21" viewBox="0 0 21 21" fill="none" xmlns="http://www.w3.org/2000/svg">
<path fill-rule="evenodd" clip-rule="evenodd" d="M0.384422 0.384422C0.896985 -0.128141 1.72801 -0.128141 2.24058 0.384422L19.7406 17.8844C20.2531 18.397 20.2531 19.228 19.7406 19.7406C19.228 20.2531 18.397 20.2531 17.8844 19.7406L0.384422 2.24058C-0.128141 1.72801 -0.128141 0.896985 0.384422 0.384422Z" fill="#414141"/>
<path fill-rule="evenodd" clip-rule="evenodd" d="M19.7406 0.384422C20.2531 0.896985 20.2531 1.72801 19.7406 2.24058L2.24058 19.7406C1.72801 20.2531 0.896985 20.2531 0.384422 19.7406C-0.128141 19.228 -0.128141 18.397 0.384422 17.8844L17.8844 0.384422C18.397 -0.128141 19.228 -0.128141 19.7406 0.384422Z" fill="#414141"/>
</svg>
