<svg width="24" height="25" viewBox="0 0 24 25" fill="none" xmlns="http://www.w3.org/2000/svg">
<path fill-rule="evenodd" clip-rule="evenodd" d="M6.46967 6.80301C6.76256 6.51012 7.23744 6.51012 7.53033 6.80301L17.5303 16.803C17.8232 17.0959 17.8232 17.5708 17.5303 17.8637C17.2374 18.1566 16.7626 18.1566 16.4697 17.8637L6.46967 7.86367C6.17678 7.57078 6.17678 7.09591 6.46967 6.80301Z" fill="black"/>
<path fill-rule="evenodd" clip-rule="evenodd" d="M17.5303 6.80301C17.8232 7.09591 17.8232 7.57078 17.5303 7.86367L7.53033 17.8637C7.23744 18.1566 6.76256 18.1566 6.46967 17.8637C6.17678 17.5708 6.17678 17.0959 6.46967 16.803L16.4697 6.80301C16.7626 6.51012 17.2374 6.51012 17.5303 6.80301Z" fill="black"/>
</svg>
