<svg width="44" height="44" viewBox="0 0 44 44" fill="none" xmlns="http://www.w3.org/2000/svg">
<g clip-path="url(#clip0_6758_1957)">
<g clip-path="url(#clip1_6758_1957)">
<rect x="-5.66431" y="10.2461" width="42.9937" height="42.9937" rx="21.4968" transform="rotate(-21.1323 -5.66431 10.2461)" fill="#6D8EFA" fill-opacity="0.3"/>
<path fill-rule="evenodd" clip-rule="evenodd" d="M15.6253 5.53751C13.387 6.40264 11.3411 7.70015 9.60425 9.35598C7.86743 11.0118 6.47375 12.9935 5.50279 15.1879C4.53184 17.3824 4.00261 19.7466 3.94534 22.1455C3.88806 24.5445 4.30386 26.9312 5.16898 29.1695C6.03411 31.4078 7.33163 33.4537 8.98745 35.1906C10.6433 36.9274 12.625 38.3211 14.8194 39.292C17.0138 40.263 19.378 40.7922 21.777 40.8495C24.176 40.9068 26.5627 40.491 28.801 39.6258C33.3214 37.8786 36.9626 34.4073 38.9235 29.9754C40.8844 25.5435 41.0045 20.5142 39.2573 15.9938C37.5101 11.4734 34.0387 7.83226 29.6069 5.87132C25.175 3.91038 20.1457 3.7903 15.6253 5.53751ZM2.16144 30.332C0.105932 25.0139 0.247195 19.0972 2.55415 13.8833C4.86111 8.66938 9.14479 4.58547 14.4628 2.52996C19.7809 0.474455 25.6977 0.615717 30.9115 2.92268C36.1254 5.22964 40.2093 9.51331 42.2649 14.8314C44.3204 20.1494 44.1791 26.0662 41.8721 31.2801C39.5652 36.494 35.2815 40.5779 29.9635 42.6334C24.6454 44.6889 18.7286 44.5476 13.5147 42.2407C8.30086 39.9337 4.21695 35.65 2.16144 30.332Z" fill="#6D8EFA"/>
<path fill-rule="evenodd" clip-rule="evenodd" d="M9.72042 9.23991C11.4312 7.63556 13.4367 6.37794 15.626 5.5366C17.812 4.68681 20.142 4.26869 22.4871 4.30537C23.5367 4.82413 24.5692 5.5003 25.5556 6.29645C27.4016 7.78697 29.1519 9.74748 30.6931 12.0734C31.6587 11.9532 32.5762 11.8808 33.4457 11.8561C34.8072 11.8164 36.0722 11.8918 37.1868 12.1008C37.7983 12.9738 38.3347 13.9082 38.7958 14.9041C38.5083 14.7337 38.2028 14.5956 37.885 14.4923C36.8155 14.1297 35.336 13.9523 33.5082 14.0068C33.0027 14.0205 32.4774 14.0525 31.9323 14.1026C33.3649 16.6644 34.4712 19.3955 35.2254 22.2321C35.6197 21.9305 35.9908 21.6297 36.3387 21.3298C37.728 20.1409 38.7036 19.0145 39.2511 18.0269C39.4354 17.6897 39.5678 17.3839 39.6483 17.1095C39.9768 18.1567 40.2083 19.209 40.3429 20.2663C39.5697 21.2532 38.6963 22.1574 37.7367 22.9643C37.0956 23.5101 36.4315 24.0281 35.7461 24.5171C36.3538 27.6879 36.4385 30.7204 36.026 33.3855C35.9493 33.8877 35.8515 34.3865 35.7329 34.8805C34.7084 36.0063 33.5362 37.0141 32.2288 37.8673C33.0272 36.6099 33.6024 34.9888 33.9014 33.056C34.2362 30.9075 34.2098 28.4412 33.7941 25.8237C31.5639 27.2161 28.9627 28.5426 26.1196 29.7023L29.7927 39.2054C29.1398 39.5034 28.4698 39.7623 27.7862 39.9809L24.1131 30.4779C21.4198 31.4737 18.6469 32.2394 15.8242 32.767C17.2757 34.9865 18.9162 36.8265 20.6098 38.1935C22.131 39.4227 23.6469 40.2356 25.0835 40.6291C23.5619 40.873 22.0154 40.9222 20.4814 40.7755C20.0614 40.4896 19.6536 40.1863 19.2591 39.8662C17.1614 38.1713 15.1846 35.8702 13.5017 33.1149C12.6649 33.2143 11.8243 33.2779 10.9821 33.3054C9.72924 33.3536 8.47478 33.2719 7.23878 33.0615C6.62085 32.1765 6.08309 31.238 5.6319 30.2574C5.87456 30.4069 6.17819 30.5441 6.54277 30.6692C7.61224 31.0319 9.09177 31.2093 10.9195 31.1548C11.3787 31.1427 11.8554 31.115 12.3495 31.0716C11.0002 28.4658 9.98237 25.7013 9.31968 22.8427C8.88265 23.1722 8.47217 23.5011 8.08824 23.8296C6.69976 25.0206 5.72415 26.147 5.17661 27.1346C4.99091 27.4724 4.85783 27.7785 4.77737 28.0528C4.45166 27.0045 4.22081 25.952 4.08482 24.8953C4.85805 23.9083 5.73144 23.0042 6.69101 22.1972C7.3502 21.6327 8.07721 21.0695 8.87205 20.5076C8.44913 17.7519 8.42507 15.1217 8.78953 12.7792C8.96995 11.5691 9.2821 10.3822 9.72042 9.23991ZM24.2057 7.97129C25.6484 9.13601 27.0551 10.6479 28.3379 12.4437C25.6069 12.9706 22.9236 13.7197 20.3146 14.6837L16.7053 5.34568C18.9315 4.94987 21.5607 5.83599 24.2057 7.97129ZM29.6188 14.3983C26.7107 14.8951 23.855 15.6609 21.0885 16.6859L25.3441 27.6959C28.3837 26.4529 31.1036 25.0246 33.3419 23.5586C33.0128 22.1742 32.5757 20.7749 32.0307 19.3605C31.3394 17.5721 30.5232 15.9073 29.6188 14.3983ZM14.6989 6.1212L18.3065 15.455C15.7269 16.4971 13.2369 17.7484 10.8611 19.1963C10.6048 17.0038 10.6268 14.9397 10.9125 13.1045C11.4325 9.7483 12.786 7.32763 14.6989 6.1212ZM19.0812 17.4593C16.3446 18.5614 13.7162 19.9153 11.2299 21.5035C11.5961 23.3092 12.1155 25.0804 12.7824 26.7979C13.328 28.2096 13.9505 29.5429 14.6346 30.7843C17.2778 30.366 20.2492 29.5946 23.336 28.4672L19.0812 17.4593Z" fill="#6D8EFA"/>
</g>
</g>
<defs>
<clipPath id="clip0_6758_1957">
<rect width="44" height="44" fill="white"/>
</clipPath>
<clipPath id="clip1_6758_1957">
<rect width="54.4583" height="54.4583" fill="white" transform="translate(-13 7) rotate(-21.1323)"/>
</clipPath>
</defs>
</svg>
