<svg width="394" height="125" viewBox="0 0 394 125" fill="none" xmlns="http://www.w3.org/2000/svg">
<path d="M147.738 113.002V81.4797H153.772L167.191 103.725H163.994L177.188 81.4797H183.178L183.268 113.002H176.423L176.378 91.9721H177.639L167.101 109.67H163.814L153.051 91.9721H154.582V113.002H147.738ZM202.275 113.362C199.513 113.362 197.081 112.822 194.979 111.741C192.908 110.66 191.302 109.189 190.161 107.328C189.02 105.437 188.45 103.29 188.45 100.888C188.45 98.4567 189.005 96.3102 190.116 94.4489C191.257 92.5575 192.803 91.0865 194.754 90.0357C196.706 88.955 198.912 88.4146 201.374 88.4146C203.746 88.4146 205.877 88.925 207.769 89.9457C209.69 90.9364 211.206 92.3774 212.317 94.2687C213.428 96.13 213.983 98.3666 213.983 100.978C213.983 101.249 213.968 101.564 213.938 101.924C213.908 102.254 213.878 102.57 213.848 102.87H194.169V98.7719H210.155L207.453 99.9878C207.453 98.7269 207.198 97.6311 206.688 96.7004C206.177 95.7698 205.472 95.0493 204.571 94.5389C203.671 93.9985 202.62 93.7283 201.419 93.7283C200.218 93.7283 199.152 93.9985 198.222 94.5389C197.321 95.0493 196.616 95.7848 196.105 96.7455C195.595 97.6761 195.34 98.7869 195.34 100.078V101.159C195.34 102.48 195.625 103.65 196.195 104.671C196.796 105.662 197.621 106.427 198.672 106.968C199.753 107.478 201.014 107.733 202.455 107.733C203.746 107.733 204.871 107.538 205.832 107.148C206.823 106.758 207.723 106.172 208.534 105.392L212.272 109.444C211.161 110.705 209.765 111.681 208.084 112.372C206.403 113.032 204.466 113.362 202.275 113.362ZM218.66 113.002V88.7749H225.37V95.6197L224.424 93.6383C225.144 91.9271 226.3 90.6362 227.891 89.7656C229.483 88.8649 231.419 88.4146 233.7 88.4146V94.8992C233.4 94.8692 233.13 94.8541 232.89 94.8541C232.65 94.8241 232.395 94.8091 232.124 94.8091C230.203 94.8091 228.642 95.3645 227.441 96.4753C226.27 97.5561 225.685 99.2522 225.685 101.564V113.002H218.66ZM237.922 113.002V88.7749H244.946V113.002H237.922ZM241.434 85.3975C240.143 85.3975 239.092 85.0222 238.282 84.2717C237.471 83.5211 237.066 82.5905 237.066 81.4797C237.066 80.3689 237.471 79.4383 238.282 78.6877C239.092 77.9372 240.143 77.5619 241.434 77.5619C242.725 77.5619 243.776 77.9222 244.586 78.6427C245.397 79.3332 245.802 80.2338 245.802 81.3446C245.802 82.5154 245.397 83.4911 244.586 84.2717C243.806 85.0222 242.755 85.3975 241.434 85.3975ZM261.869 113.362C259.587 113.362 257.531 112.852 255.699 111.831C253.868 110.78 252.412 109.324 251.331 107.463C250.28 105.602 249.755 103.41 249.755 100.888C249.755 98.3366 250.28 96.13 251.331 94.2687C252.412 92.4074 253.868 90.9664 255.699 89.9457C257.531 88.925 259.587 88.4146 261.869 88.4146C263.91 88.4146 265.696 88.8649 267.227 89.7656C268.758 90.6662 269.944 92.0322 270.785 93.8634C271.625 95.6947 272.046 98.0364 272.046 100.888C272.046 103.71 271.64 106.052 270.83 107.913C270.019 109.745 268.849 111.111 267.317 112.011C265.816 112.912 264 113.362 261.869 113.362ZM263.084 107.598C264.225 107.598 265.261 107.328 266.192 106.788C267.122 106.247 267.858 105.482 268.398 104.491C268.969 103.47 269.254 102.269 269.254 100.888C269.254 99.4774 268.969 98.2766 268.398 97.2859C267.858 96.2952 267.122 95.5296 266.192 94.9892C265.261 94.4489 264.225 94.1787 263.084 94.1787C261.914 94.1787 260.863 94.4489 259.932 94.9892C259.002 95.5296 258.251 96.2952 257.681 97.2859C257.14 98.2766 256.87 99.4774 256.87 100.888C256.87 102.269 257.14 103.47 257.681 104.491C258.251 105.482 259.002 106.247 259.932 106.788C260.863 107.328 261.914 107.598 263.084 107.598ZM269.434 113.002V108.048L269.569 100.843L269.119 93.6833V79.5884H276.144V113.002H269.434ZM282.645 113.002V88.7749H289.67V113.002H282.645ZM286.158 85.3975C284.867 85.3975 283.816 85.0222 283.006 84.2717C282.195 83.5211 281.79 82.5905 281.79 81.4797C281.79 80.3689 282.195 79.4383 283.006 78.6877C283.816 77.9372 284.867 77.5619 286.158 77.5619C287.449 77.5619 288.5 77.9222 289.31 78.6427C290.121 79.3332 290.526 80.2338 290.526 81.3446C290.526 82.5154 290.121 83.4911 289.31 84.2717C288.53 85.0222 287.479 85.3975 286.158 85.3975ZM311.051 113.002V108.274L310.6 107.238V98.7719C310.6 97.2709 310.135 96.1 309.204 95.2594C308.304 94.4188 306.908 93.9985 305.016 93.9985C303.725 93.9985 302.45 94.2087 301.189 94.629C299.958 95.0193 298.907 95.5596 298.036 96.2501L295.515 91.3417C296.836 90.411 298.427 89.6905 300.288 89.1801C302.149 88.6698 304.041 88.4146 305.962 88.4146C309.655 88.4146 312.522 89.2852 314.563 91.0264C316.605 92.7677 317.625 95.4846 317.625 99.1772V113.002H311.051ZM303.665 113.362C301.774 113.362 300.153 113.047 298.802 112.417C297.451 111.756 296.415 110.87 295.695 109.76C294.974 108.649 294.614 107.403 294.614 106.022C294.614 104.581 294.959 103.32 295.65 102.239C296.37 101.159 297.496 100.318 299.027 99.7176C300.558 99.0871 302.555 98.7719 305.016 98.7719H311.456V102.87H305.782C304.131 102.87 302.99 103.14 302.36 103.68C301.759 104.221 301.459 104.896 301.459 105.707C301.459 106.607 301.804 107.328 302.495 107.868C303.215 108.379 304.191 108.634 305.422 108.634C306.593 108.634 307.643 108.364 308.574 107.823C309.505 107.253 310.18 106.427 310.6 105.347L311.681 108.589C311.171 110.15 310.24 111.336 308.889 112.146C307.538 112.957 305.797 113.362 303.665 113.362ZM338.709 88.4146C340.63 88.4146 342.341 88.8049 343.842 89.5854C345.373 90.336 346.574 91.5068 347.445 93.0979C348.315 94.659 348.751 96.6704 348.751 99.1322V113.002H341.726V100.213C341.726 98.2616 341.29 96.8205 340.42 95.8899C339.579 94.9592 338.378 94.4939 336.817 94.4939C335.706 94.4939 334.701 94.7341 333.8 95.2144C332.93 95.6647 332.239 96.3702 331.729 97.3309C331.248 98.2916 331.008 99.5224 331.008 101.023V113.002H323.983V88.7749H330.693V95.4846L329.432 93.4582C330.303 91.837 331.549 90.5911 333.17 89.7205C334.791 88.8499 336.637 88.4146 338.709 88.4146Z" fill="#414141"/>
<path d="M119.57 97.1572C118.651 97.1572 117.862 96.9631 117.202 96.5749C116.542 96.1867 116.037 95.5979 115.688 94.8086C115.339 94.0063 115.164 92.997 115.164 91.7806C115.164 90.5513 115.345 89.5419 115.707 88.7526C116.083 87.9632 116.6 87.3745 117.26 86.9863C117.92 86.5981 118.69 86.404 119.57 86.404C120.553 86.404 121.433 86.6239 122.21 87.0639C122.999 87.5039 123.62 88.125 124.073 88.9273C124.539 89.7296 124.772 90.6807 124.772 91.7806C124.772 92.8676 124.539 93.8122 124.073 94.6145C123.62 95.4168 122.999 96.0444 122.21 96.4973C121.433 96.9373 120.553 97.1572 119.57 97.1572ZM113.398 97.002V82.5995H116.426V88.675L116.231 91.7612L116.29 94.8668V97.002H113.398ZM119.046 94.6727C119.551 94.6727 119.997 94.5563 120.385 94.3233C120.786 94.0904 121.103 93.7604 121.336 93.3334C121.582 92.8934 121.705 92.3758 121.705 91.7806C121.705 91.1724 121.582 90.6548 121.336 90.2278C121.103 89.8007 120.786 89.4708 120.385 89.2379C119.997 89.0049 119.551 88.8885 119.046 88.8885C118.541 88.8885 118.088 89.0049 117.687 89.2379C117.286 89.4708 116.969 89.8007 116.736 90.2278C116.503 90.6548 116.387 91.1724 116.387 91.7806C116.387 92.3758 116.503 92.8934 116.736 93.3334C116.969 93.7604 117.286 94.0904 117.687 94.3233C118.088 94.5563 118.541 94.6727 119.046 94.6727ZM127.835 100.923C127.291 100.923 126.754 100.839 126.223 100.67C125.693 100.502 125.259 100.269 124.923 99.9717L126.029 97.8172C126.262 98.0242 126.528 98.186 126.825 98.3024C127.136 98.4189 127.44 98.4771 127.737 98.4771C128.164 98.4771 128.501 98.3736 128.747 98.1666C129.006 97.9725 129.239 97.6425 129.446 97.1766L129.989 95.8956L130.222 95.5656L133.968 86.5592H136.88L132.163 97.6425C131.827 98.4836 131.438 99.1436 130.998 99.6223C130.571 100.101 130.093 100.438 129.562 100.632C129.044 100.826 128.469 100.923 127.835 100.923ZM129.62 97.4096L124.962 86.5592H128.087L131.697 95.2939L129.62 97.4096Z" fill="#414141"/>
<path d="M116.298 69.002V26.0171H138.282C143.932 26.0171 148.148 27.061 150.932 29.1488C153.716 31.1957 155.108 33.8976 155.108 37.2545C155.108 39.4652 154.514 41.4098 153.327 43.0882C152.181 44.7257 150.543 46.0357 148.414 47.0183C146.327 47.9598 143.829 48.4306 140.923 48.4306L142.151 45.4831C145.18 45.4831 147.821 45.9539 150.072 46.8954C152.324 47.7961 154.064 49.1266 155.292 50.8869C156.561 52.6063 157.196 54.7146 157.196 57.2118C157.196 60.9372 155.681 63.8438 152.651 65.9316C149.663 67.9785 145.283 69.002 139.51 69.002H116.298ZM128.334 60.2208H138.528C140.616 60.2208 142.192 59.8728 143.256 59.1768C144.361 58.44 144.914 57.3346 144.914 55.8609C144.914 54.3871 144.361 53.3022 143.256 52.6063C142.192 51.8694 140.616 51.501 138.528 51.501H127.475V43.0882H136.686C138.733 43.0882 140.268 42.7402 141.291 42.0443C142.315 41.3483 142.826 40.3044 142.826 38.9125C142.826 37.5206 142.315 36.4972 141.291 35.8422C140.268 35.1462 138.733 34.7983 136.686 34.7983H128.334V60.2208ZM174.669 42.6584H194.626V51.7466H174.669V42.6584ZM175.529 59.6067H198.004V69.002H163.493V26.0171H197.206V35.4123H175.529V59.6067ZM199.593 69.002L218.567 26.0171H230.542L249.578 69.002H236.928L222.068 31.9735H226.857L211.997 69.002H199.593ZM209.971 60.6506L213.102 51.6852H234.103L237.235 60.6506H209.971ZM273.856 69.8617C270.458 69.8617 267.306 69.3295 264.4 68.2651C261.534 67.1597 259.037 65.6041 256.908 63.5981C254.82 61.5922 253.183 59.2382 251.995 56.5363C250.808 53.7935 250.215 50.7845 250.215 47.5095C250.215 44.2345 250.808 41.246 251.995 38.5441C253.183 35.8012 254.82 33.4268 256.908 31.4209C259.037 29.4149 261.534 27.8797 264.4 26.8154C267.306 25.71 270.458 25.1574 273.856 25.1574C277.827 25.1574 281.368 25.8533 284.48 27.2452C287.632 28.6371 290.252 30.6431 292.34 33.2631L284.603 40.2635C283.211 38.626 281.675 37.3774 279.997 36.5177C278.36 35.658 276.517 35.2281 274.47 35.2281C272.71 35.2281 271.093 35.5147 269.619 36.0878C268.145 36.6609 266.876 37.5002 265.812 38.6055C264.789 39.6699 263.97 40.9594 263.356 42.4741C262.783 43.9888 262.496 45.6673 262.496 47.5095C262.496 49.3517 262.783 51.0302 263.356 52.5449C263.97 54.0596 264.789 55.3696 265.812 56.4749C266.876 57.5393 268.145 58.3581 269.619 58.9312C271.093 59.5043 272.71 59.7909 274.47 59.7909C276.517 59.7909 278.36 59.3611 279.997 58.5014C281.675 57.6417 283.211 56.3931 284.603 54.7555L292.34 61.7559C290.252 64.335 287.632 66.341 284.48 67.7738C281.368 69.1657 277.827 69.8617 273.856 69.8617ZM318.538 69.8617C315.099 69.8617 311.927 69.309 309.02 68.2037C306.113 67.0983 303.575 65.5427 301.406 63.5367C299.277 61.4898 297.619 59.1154 296.432 56.4135C295.244 53.7116 294.651 50.7436 294.651 47.5095C294.651 44.2754 295.244 41.3074 296.432 38.6055C297.619 35.9036 299.277 33.5497 301.406 31.5437C303.575 29.4968 306.113 27.9207 309.02 26.8154C311.927 25.71 315.099 25.1574 318.538 25.1574C322.018 25.1574 325.19 25.71 328.056 26.8154C330.963 27.9207 333.48 29.4968 335.609 31.5437C337.738 33.5497 339.396 35.9036 340.583 38.6055C341.811 41.3074 342.425 44.2754 342.425 47.5095C342.425 50.7436 341.811 53.7321 340.583 56.4749C339.396 59.1768 337.738 61.5308 335.609 63.5367C333.48 65.5427 330.963 67.0983 328.056 68.2037C325.19 69.309 322.018 69.8617 318.538 69.8617ZM318.538 59.7909C320.176 59.7909 321.69 59.5043 323.082 58.9312C324.515 58.3581 325.743 57.5393 326.767 56.4749C327.831 55.3696 328.65 54.0596 329.223 52.5449C329.837 51.0302 330.144 49.3517 330.144 47.5095C330.144 45.6264 329.837 43.9479 329.223 42.4741C328.65 40.9594 327.831 39.6699 326.767 38.6055C325.743 37.5002 324.515 36.6609 323.082 36.0878C321.69 35.5147 320.176 35.2281 318.538 35.2281C316.901 35.2281 315.365 35.5147 313.933 36.0878C312.541 36.6609 311.312 37.5002 310.248 38.6055C309.225 39.6699 308.406 40.9594 307.792 42.4741C307.219 43.9479 306.932 45.6264 306.932 47.5095C306.932 49.3517 307.219 51.0302 307.792 52.5449C308.406 54.0596 309.225 55.3696 310.248 56.4749C311.312 57.5393 312.541 58.3581 313.933 58.9312C315.365 59.5043 316.901 59.7909 318.538 59.7909ZM348.793 69.002V26.0171H358.803L382.506 54.6327H377.778V26.0171H389.691V69.002H379.681L355.978 40.3863H360.706V69.002H348.793Z" fill="#7D6DFA"/>
<g clip-path="url(#clip0_6704_1305)">
<rect x="12.9316" y="40.334" width="75.79" height="75.79" rx="37.895" transform="rotate(-21.1323 12.9316 40.334)" fill="#7D6DFA" fill-opacity="0.3"/>
<path fill-rule="evenodd" clip-rule="evenodd" d="M50.4612 32.0339C46.5155 33.559 42.9089 35.8462 39.8472 38.7652C36.7855 41.6841 34.3287 45.1775 32.617 49.0458C30.9054 52.9142 29.9725 57.0819 29.8715 61.3108C29.7706 65.5397 30.5035 69.7472 32.0286 73.6928C33.5537 77.6385 35.8409 81.2451 38.7599 84.3068C41.6788 87.3685 45.1721 89.8253 49.0405 91.537C52.9089 93.2486 57.0766 94.1815 61.3055 94.2825C65.5344 94.3834 69.7418 93.6505 73.6875 92.1254C81.6561 89.0454 88.0749 82.926 91.5316 75.1135C94.9884 67.3009 95.2001 58.4351 92.1201 50.4665C89.0401 42.4979 82.9207 36.0791 75.1081 32.6223C67.2956 29.1656 58.4298 28.9539 50.4612 32.0339ZM26.7268 75.742C23.1033 66.3673 23.3524 55.9371 27.4191 46.746C31.4859 37.5548 39.0372 30.3556 48.412 26.7321C57.7867 23.1087 68.2169 23.3577 77.408 27.4244C86.5992 31.4912 93.7984 39.0425 97.4219 48.4173C101.045 57.792 100.796 68.2222 96.7296 77.4133C92.6628 86.6045 85.1115 93.8037 75.7367 97.4272C66.362 101.051 55.9318 100.802 46.7406 96.7349C37.5495 92.6681 30.3503 85.1168 26.7268 75.742Z" fill="#7D6DFA"/>
<path fill-rule="evenodd" clip-rule="evenodd" d="M40.0521 38.5593C43.068 35.7311 46.6033 33.5142 50.4626 32.0311C54.3162 30.533 58.4235 29.7959 62.5575 29.8606C64.4076 30.7751 66.2278 31.9671 67.9667 33.3705C71.2208 35.998 74.3063 39.4541 77.0232 43.5543C78.7253 43.3424 80.3427 43.2147 81.8754 43.1712C84.2756 43.1012 86.5055 43.2342 88.4704 43.6025C89.5484 45.1414 90.4939 46.7887 91.3068 48.5443C90.7999 48.2439 90.2614 48.0005 89.7011 47.8184C87.8158 47.1791 85.2077 46.8663 81.9856 46.9624C81.0945 46.9867 80.1685 47.043 79.2077 47.1313C81.7331 51.6473 83.6833 56.4617 85.0127 61.4622C85.7078 60.9305 86.362 60.4003 86.9753 59.8717C89.4244 57.7758 91.1442 55.7902 92.1094 54.0491C92.4343 53.4547 92.6676 52.9157 92.8095 52.432C93.3886 54.278 93.7968 56.1329 94.034 57.9967C92.671 59.7365 91.1313 61.3304 89.4398 62.7529C88.3097 63.715 87.1389 64.6282 85.9306 65.4901C87.0019 71.0798 87.1512 76.4255 86.424 81.1236C86.2888 82.0089 86.1164 82.8882 85.9074 83.7591C84.1015 85.7436 82.035 87.5201 79.7302 89.0242C81.1378 86.8077 82.1517 83.95 82.6788 80.5428C83.269 76.7553 83.2224 72.4077 82.4897 67.7936C78.5582 70.248 73.9728 72.5864 68.9608 74.6308L75.4358 91.383C74.2849 91.9083 73.1038 92.3648 71.8989 92.7501L65.4239 75.9979C60.676 77.7534 55.7879 79.1033 50.812 80.0332C53.3707 83.9459 56.2626 87.1894 59.2481 89.5991C61.9297 91.7661 64.602 93.199 67.1344 93.8927C64.4521 94.3227 61.726 94.4094 59.0218 94.1508C58.2815 93.6469 57.5626 93.1121 56.867 92.5479C53.1692 89.5601 49.6844 85.5036 46.7178 80.6465C45.2427 80.8219 43.7609 80.9339 42.2762 80.9824C40.0677 81.0674 37.8563 80.9233 35.6774 80.5525C34.5881 78.9923 33.6402 77.338 32.8448 75.6093C33.2726 75.8728 33.8078 76.1148 34.4505 76.3352C36.3358 76.9745 38.9439 77.2873 42.166 77.1912C42.9754 77.1699 43.8156 77.1211 44.6866 77.0446C42.3082 72.451 40.5139 67.5778 39.3457 62.5386C38.5753 63.1194 37.8517 63.6993 37.1749 64.2782C34.7272 66.3778 33.0074 68.3634 32.0422 70.1045C31.7149 70.6999 31.4803 71.2394 31.3384 71.723C30.7643 69.8751 30.3573 68.0197 30.1176 66.1569C31.4806 64.4171 33.0203 62.8232 34.7118 61.4007C35.8739 60.4055 37.1554 59.4127 38.5566 58.4223C37.8111 53.5643 37.7686 48.9278 38.4111 44.7985C38.7292 42.6652 39.2794 40.573 40.0521 38.5593ZM65.5871 36.323C68.1303 38.3761 70.61 41.0414 72.8713 44.207C68.0571 45.1358 63.3269 46.4564 58.7278 48.1557L52.3652 31.6945C56.2896 30.9967 60.9245 32.5588 65.5871 36.323ZM75.1294 47.6527C70.0029 48.5284 64.9688 49.8784 60.092 51.6852L67.5937 71.0939C72.9521 68.9027 77.7468 66.3848 81.6924 63.8005C81.1123 61.3602 80.3418 58.8934 79.381 56.4001C78.1624 53.2474 76.7237 50.3128 75.1294 47.6527ZM48.8283 33.0616L55.1879 49.5153C50.6405 51.3525 46.251 53.5583 42.063 56.1107C41.6112 52.2456 41.65 48.6069 42.1535 45.3718C43.0702 39.4555 45.4562 35.1883 48.8283 33.0616ZM56.5535 53.0486C51.7293 54.9914 47.0959 57.3781 42.713 60.1778C43.3587 63.3609 44.2743 66.4831 45.4498 69.5108C46.4117 71.9994 47.5089 74.3499 48.715 76.5382C53.3745 75.8008 58.6124 74.4409 64.0539 72.4535L56.5535 53.0486Z" fill="#7D6DFA"/>
</g>
<defs>
<clipPath id="clip0_6704_1305">
<rect width="96" height="96" fill="white" transform="translate(0 34.6113) rotate(-21.1323)"/>
</clipPath>
</defs>
</svg>
