<svg width="480" height="141" viewBox="0 0 480 141" fill="none" xmlns="http://www.w3.org/2000/svg">
<path d="M113.965 117.779L125.055 92.8993H130.742L141.866 117.779H135.824L126.725 95.8138H129L119.865 117.779H113.965ZM119.51 112.448L121.038 108.076H133.834L135.398 112.448H119.51ZM148.352 117.779V97.5909H140.39V92.8993H162.071V97.5909H154.11V117.779H148.352ZM165.169 117.779V92.8993H170.927V113.088H183.403V117.779H165.169ZM183.489 117.779L194.578 92.8993H200.265L211.39 117.779H205.348L196.249 95.8138H198.524L189.389 117.779H183.489ZM189.034 112.448L190.562 108.076H203.358L204.921 112.448H189.034ZM222.146 118.206C220.156 118.206 218.249 117.945 216.424 117.424C214.599 116.879 213.13 116.18 212.017 115.327L213.972 110.991C215.038 111.749 216.294 112.377 217.739 112.874C219.208 113.348 220.689 113.585 222.182 113.585C223.319 113.585 224.232 113.479 224.919 113.265C225.63 113.028 226.151 112.709 226.483 112.306C226.814 111.903 226.98 111.441 226.98 110.92C226.98 110.256 226.72 109.735 226.198 109.356C225.677 108.953 224.99 108.633 224.137 108.396C223.284 108.135 222.336 107.898 221.293 107.685C220.274 107.448 219.244 107.164 218.201 106.832C217.182 106.5 216.246 106.074 215.393 105.553C214.54 105.031 213.841 104.344 213.296 103.491C212.775 102.638 212.514 101.548 212.514 100.221C212.514 98.7994 212.893 97.508 213.652 96.3469C214.434 95.1622 215.595 94.2262 217.135 93.5391C218.699 92.8282 220.654 92.4728 222.999 92.4728C224.563 92.4728 226.103 92.6623 227.62 93.0415C229.136 93.3969 230.475 93.9419 231.636 94.6764L229.859 99.0482C228.698 98.3847 227.537 97.899 226.376 97.5909C225.215 97.2592 224.078 97.0933 222.964 97.0933C221.85 97.0933 220.938 97.2237 220.227 97.4843C219.516 97.745 219.007 98.0885 218.699 98.5151C218.391 98.9179 218.237 99.3918 218.237 99.9368C218.237 100.577 218.497 101.098 219.019 101.501C219.54 101.88 220.227 102.188 221.08 102.425C221.933 102.662 222.869 102.899 223.888 103.136C224.931 103.373 225.961 103.645 226.98 103.953C228.023 104.261 228.971 104.676 229.824 105.197C230.677 105.718 231.364 106.406 231.885 107.259C232.43 108.112 232.703 109.19 232.703 110.493C232.703 111.891 232.312 113.171 231.53 114.332C230.748 115.493 229.575 116.429 228.011 117.14C226.471 117.85 224.516 118.206 222.146 118.206Z" fill="#64AB6C"/>
<path d="M118.403 74V29.9731H128.655L146.894 59.9114H141.485L159.222 29.9731H169.474L169.6 74H158.153L158.027 47.3952H159.977L146.706 69.6602H141.171L127.523 47.3952H129.913V74H118.403ZM195.708 74.5661C191.682 74.5661 188.16 73.8113 185.141 72.3018C182.164 70.7504 179.837 68.6539 178.16 66.0123C176.525 63.3287 175.707 60.2888 175.707 56.8924C175.707 53.4961 176.504 50.4771 178.097 47.8355C179.732 45.1519 181.975 43.0764 184.827 41.6088C187.678 40.0993 190.886 39.3446 194.45 39.3446C197.804 39.3446 200.865 40.0364 203.632 41.4201C206.4 42.7619 208.601 44.7536 210.237 47.3952C211.872 50.0368 212.689 53.2445 212.689 57.0182C212.689 57.4375 212.668 57.9197 212.627 58.4648C212.585 59.0099 212.543 59.5131 212.501 59.9743H185.519V53.6847H206.148L201.62 55.4458C201.662 53.8944 201.368 52.5526 200.739 51.4205C200.152 50.2884 199.314 49.4079 198.223 48.7789C197.175 48.1499 195.938 47.8355 194.513 47.8355C193.087 47.8355 191.829 48.1499 190.739 48.7789C189.691 49.4079 188.873 50.3094 188.286 51.4834C187.699 52.6155 187.405 53.9573 187.405 55.5087V57.3327C187.405 59.0099 187.741 60.4565 188.412 61.6725C189.125 62.8885 190.131 63.8319 191.431 64.5028C192.731 65.1317 194.282 65.4462 196.085 65.4462C197.762 65.4462 199.188 65.2156 200.362 64.7544C201.578 64.2512 202.773 63.4964 203.947 62.4901L210.237 69.0313C208.601 70.8343 206.589 72.218 204.199 73.1824C201.809 74.1048 198.978 74.5661 195.708 74.5661ZM218.199 74V39.9106H229.583V49.8481L227.885 47.0178C228.891 44.4601 230.527 42.5522 232.791 41.2943C235.055 39.9945 237.802 39.3446 241.03 39.3446V50.0997C240.485 50.0158 240.003 49.9739 239.584 49.9739C239.206 49.932 238.787 49.911 238.326 49.911C235.894 49.911 233.923 50.5819 232.414 51.9237C230.904 53.2235 230.149 55.362 230.149 58.339V74H218.199ZM245.962 74V39.9106H257.912V74H245.962ZM251.937 36.1369C249.756 36.1369 247.995 35.5289 246.654 34.3129C245.312 33.097 244.641 31.5875 244.641 29.7845C244.641 27.9814 245.312 26.472 246.654 25.256C247.995 24.04 249.756 23.432 251.937 23.432C254.117 23.432 255.878 24.019 257.22 25.1931C258.562 26.3252 259.233 27.7928 259.233 29.5958C259.233 31.4826 258.562 33.055 257.22 34.3129C255.92 35.5289 254.159 36.1369 251.937 36.1369ZM280.521 74.5661C277.418 74.5661 274.588 73.8532 272.03 72.4276C269.515 70.9601 267.502 68.9264 265.992 66.3267C264.483 63.6851 263.728 60.5404 263.728 56.8924C263.728 53.2864 264.483 50.1836 265.992 47.5839C267.502 44.9423 269.515 42.9087 272.03 41.483C274.588 40.0574 277.418 39.3446 280.521 39.3446C283.456 39.3446 285.93 39.9735 287.943 41.2314C289.998 42.4893 291.549 44.4181 292.597 47.0178C293.645 49.6175 294.17 52.909 294.17 56.8924C294.17 60.9597 293.666 64.2931 292.66 66.8928C291.654 69.4925 290.144 71.4213 288.132 72.6792C286.119 73.9371 283.582 74.5661 280.521 74.5661ZM283.037 65.0688C284.379 65.0688 285.574 64.7544 286.622 64.1254C287.712 63.4964 288.572 62.574 289.201 61.358C289.83 60.1001 290.144 58.6116 290.144 56.8924C290.144 55.1733 289.83 53.7267 289.201 52.5526C288.572 51.3367 287.712 50.4142 286.622 49.7852C285.574 49.1563 284.379 48.8418 283.037 48.8418C281.653 48.8418 280.416 49.1563 279.326 49.7852C278.278 50.4142 277.439 51.3367 276.81 52.5526C276.181 53.7267 275.867 55.1733 275.867 56.8924C275.867 58.6116 276.181 60.1001 276.81 61.358C277.439 62.574 278.278 63.4964 279.326 64.1254C280.416 64.7544 281.653 65.0688 283.037 65.0688ZM290.522 74V68.1507L290.585 56.8924L289.956 45.6341V27.3315H301.906V74H290.522ZM309.594 74V39.9106H321.544V74H309.594ZM315.569 36.1369C313.389 36.1369 311.628 35.5289 310.286 34.3129C308.944 33.097 308.273 31.5875 308.273 29.7845C308.273 27.9814 308.944 26.472 310.286 25.256C311.628 24.04 313.389 23.432 315.569 23.432C317.75 23.432 319.511 24.019 320.853 25.1931C322.194 26.3252 322.865 27.7928 322.865 29.5958C322.865 31.4826 322.194 33.055 320.853 34.3129C319.553 35.5289 317.792 36.1369 315.569 36.1369ZM350.129 74V67.6476L349.311 66.0752V54.3766C349.311 52.4897 348.724 51.0431 347.55 50.0368C346.418 48.9886 344.594 48.4644 342.078 48.4644C340.443 48.4644 338.787 48.737 337.11 49.2821C335.432 49.7852 334.007 50.498 332.833 51.4205L328.807 43.307C330.736 42.0491 333.042 41.0847 335.726 40.4138C338.451 39.701 341.156 39.3446 343.839 39.3446C349.374 39.3446 353.651 40.6234 356.67 43.1812C359.731 45.697 361.261 49.6594 361.261 55.0684V74H350.129ZM340.066 74.5661C337.34 74.5661 335.034 74.1048 333.147 73.1824C331.26 72.2599 329.814 71.002 328.807 69.4086C327.843 67.8153 327.361 66.0332 327.361 64.0625C327.361 61.966 327.885 60.163 328.933 58.6535C330.023 57.1021 331.68 55.928 333.902 55.1313C336.124 54.2927 338.996 53.8734 342.519 53.8734H350.569V60.1001H344.154C342.225 60.1001 340.862 60.4146 340.066 61.0435C339.311 61.6725 338.934 62.5111 338.934 63.5593C338.934 64.6076 339.332 65.4462 340.129 66.0752C340.925 66.7041 342.015 67.0186 343.399 67.0186C344.699 67.0186 345.873 66.7041 346.921 66.0752C348.011 65.4043 348.808 64.398 349.311 63.0562L350.947 67.4589C350.318 69.807 349.081 71.589 347.236 72.805C345.433 73.979 343.043 74.5661 340.066 74.5661ZM391.007 39.3446C393.648 39.3446 396.038 39.8897 398.177 40.9799C400.315 42.0281 401.992 43.6634 403.208 45.8857C404.466 48.108 405.095 50.9802 405.095 54.5024V74H393.145V56.4522C393.145 54.0202 392.642 52.2591 391.636 51.1689C390.671 50.0368 389.308 49.4707 387.547 49.4707C386.289 49.4707 385.136 49.7643 384.088 50.3513C383.04 50.8964 382.222 51.756 381.635 52.93C381.048 54.1041 380.755 55.6345 380.755 57.5214V74H368.804V39.9106H380.189V49.5965L377.987 46.7662C379.287 44.2924 381.069 42.4474 383.333 41.2314C385.598 39.9735 388.155 39.3446 391.007 39.3446Z" fill="#414141"/>
<g clip-path="url(#clip0_6852_20770)">
<rect x="13.2441" y="41.3125" width="77.6272" height="77.6272" rx="38.8136" transform="rotate(-21.1323 13.2441 41.3125)" fill="url(#paint0_linear_6852_20770)" fill-opacity="0.3"/>
<path fill-rule="evenodd" clip-rule="evenodd" d="M51.6841 32.8097C47.6428 34.3718 43.9487 36.7145 40.8128 39.7042C37.6769 42.6939 35.1605 46.2719 33.4074 50.2341C31.6543 54.1962 30.6988 58.4649 30.5953 62.7963C30.4919 67.1278 31.2427 71.4372 32.8047 75.4785C34.3667 79.5198 36.7095 83.2139 39.6991 86.3498C42.6888 89.4857 46.2669 92.0021 50.229 93.7552C54.1912 95.5083 58.4599 96.4639 62.7913 96.5673C67.1227 96.6707 71.4322 95.9199 75.4735 94.3579C83.6353 91.2032 90.2096 84.9355 93.7501 76.9336C97.2907 68.9316 97.5075 59.8509 94.3529 51.6891C91.1982 43.5274 84.9305 36.953 76.9285 33.4125C68.9266 29.8719 59.8459 29.6551 51.6841 32.8097ZM27.3744 77.5774C23.6631 67.9754 23.9182 57.2924 28.0835 47.8784C32.2488 38.4645 39.9832 31.0908 49.5852 27.3795C59.1872 23.6682 69.8702 23.9232 79.2842 28.0885C88.6981 32.2539 96.0718 39.9883 99.7831 49.5903C103.494 59.1922 103.239 69.8753 99.0741 79.2892C94.9087 88.7032 87.1743 96.0769 77.5724 99.7882C67.9704 103.5 57.2873 103.244 47.8734 99.0791C38.4594 94.9138 31.0858 87.1794 27.3744 77.5774Z" fill="url(#paint1_linear_6852_20770)"/>
<path fill-rule="evenodd" clip-rule="evenodd" d="M41.0227 39.4932C44.1117 36.5965 47.7327 34.3258 51.6856 32.8067C55.6326 31.2724 59.8395 30.5175 64.0737 30.5837C65.9686 31.5203 67.8329 32.7412 69.614 34.1787C72.947 36.8699 76.1072 40.4097 78.89 44.6093C80.6334 44.3923 82.29 44.2615 83.8598 44.2169C86.3182 44.1452 88.6022 44.2814 90.6147 44.6587C91.7188 46.2349 92.6872 47.9221 93.5199 49.7203C93.0007 49.4126 92.4492 49.1633 91.8752 48.9768C89.9443 48.322 87.2729 48.0016 83.9728 48.1C83.06 48.1249 82.1115 48.1825 81.1275 48.273C83.7141 52.8985 85.7115 57.8296 87.0732 62.9513C87.7851 62.4067 88.4552 61.8637 89.0833 61.3222C91.5918 59.1755 93.3533 57.1418 94.3419 55.3586C94.6747 54.7497 94.9137 54.1976 95.0589 53.7022C95.6521 55.593 96.0702 57.4929 96.3132 59.4019C94.9171 61.1838 93.3401 62.8164 91.6076 64.2733C90.4501 65.2587 89.2509 66.1941 88.0134 67.0769C89.1106 72.8021 89.2635 78.2773 88.5187 83.0893C88.3802 83.9961 88.2037 84.8967 87.9896 85.7887C86.1399 87.8214 84.0233 89.6409 81.6627 91.1814C83.1043 88.9112 84.1428 85.9842 84.6827 82.4944C85.2872 78.6151 85.2395 74.1622 84.489 69.4362C80.4622 71.9501 75.7657 74.3452 70.6322 76.4392L77.2642 93.5975C76.0853 94.1354 74.8756 94.603 73.6415 94.9977L67.0095 77.8394C62.1465 79.6374 57.1399 81.02 52.0435 81.9725C54.6642 85.98 57.6261 89.3022 60.684 91.7703C63.4306 93.9898 66.1677 95.4575 68.7615 96.1679C66.0142 96.6084 63.222 96.6972 60.4523 96.4323C59.694 95.9162 58.9576 95.3684 58.2453 94.7905C54.4578 91.7303 50.8885 87.5755 47.85 82.6007C46.3392 82.7803 44.8214 82.8951 43.3007 82.9447C41.0387 83.0317 38.7737 82.8842 36.542 82.5044C35.4263 80.9063 34.4554 79.2119 33.6407 77.4414C34.0789 77.7113 34.6271 77.9591 35.2853 78.1849C37.2163 78.8397 39.8877 79.16 43.1878 79.0616C44.0169 79.0398 44.8775 78.9898 45.7696 78.9114C43.3335 74.2065 41.4957 69.2152 40.2992 64.0538C39.5101 64.6487 38.769 65.2426 38.0758 65.8356C35.5688 67.9861 33.8073 70.0198 32.8187 71.8031C32.4834 72.4129 32.2431 72.9655 32.0978 73.4609C31.5097 71.5682 31.0929 69.6678 30.8474 67.7598C32.2435 65.9778 33.8204 64.3453 35.553 62.8883C36.7432 61.869 38.0558 60.8521 39.491 59.8377C38.7274 54.862 38.6839 50.1131 39.342 45.8837C39.6677 43.6987 40.2313 41.5558 41.0227 39.4932ZM67.1767 37.2027C69.7816 39.3056 72.3213 42.0355 74.6375 45.2779C69.7066 46.2291 64.8617 47.5818 60.1511 49.3222L53.6343 32.462C57.6538 31.7474 62.401 33.3473 67.1767 37.2027ZM76.9503 48.807C71.6996 49.704 66.5434 51.0867 61.5484 52.9373L69.232 72.8165C74.7203 70.5722 79.6312 67.9932 83.6724 65.3463C83.0783 62.8468 82.2891 60.3202 81.305 57.7665C80.0569 54.5374 78.5832 51.5316 76.9503 48.807ZM50.0116 33.8623L56.5254 50.7148C51.8678 52.5965 47.3718 54.8558 43.0824 57.4701C42.6196 53.5113 42.6593 49.7844 43.1751 46.4709C44.114 40.4112 46.5578 36.0405 50.0116 33.8623ZM57.9242 54.3337C52.983 56.3237 48.2373 58.7682 43.7482 61.6358C44.4095 64.896 45.3472 68.094 46.5513 71.195C47.5365 73.7439 48.6603 76.1514 49.8956 78.3928C54.668 77.6375 60.033 76.2446 65.6063 74.2091L57.9242 54.3337Z" fill="url(#paint2_linear_6852_20770)"/>
</g>
<defs>
<linearGradient id="paint0_linear_6852_20770" x1="52.0577" y1="41.3125" x2="52.0577" y2="118.94" gradientUnits="userSpaceOnUse">
<stop offset="0.173077" stop-color="#414141"/>
<stop offset="1" stop-color="#64AB6C"/>
</linearGradient>
<linearGradient id="paint1_linear_6852_20770" x1="49.5852" y1="27.3795" x2="77.5724" y2="99.7882" gradientUnits="userSpaceOnUse">
<stop offset="0.5" stop-color="#414141"/>
<stop offset="1" stop-color="#64AB6C"/>
</linearGradient>
<linearGradient id="paint2_linear_6852_20770" x1="51.6837" y1="32.8074" x2="75.4717" y2="94.352" gradientUnits="userSpaceOnUse">
<stop offset="0.5" stop-color="#414141"/>
<stop offset="1" stop-color="#64AB6C"/>
</linearGradient>
<clipPath id="clip0_6852_20770">
<rect width="98.3271" height="98.3271" fill="white" transform="translate(0 35.4492) rotate(-21.1323)"/>
</clipPath>
</defs>
</svg>
