<svg width="817" height="128" viewBox="0 0 817 128" fill="none" xmlns="http://www.w3.org/2000/svg">
<path opacity="0.32" d="M10.6361 63.8167C10.6361 93.1876 34.4459 116.997 63.8167 116.997C93.1876 116.997 116.997 93.1876 116.997 63.8167C116.997 34.4459 93.1876 10.6361 63.8167 10.6361C34.4459 10.6361 10.6361 34.4459 10.6361 63.8167Z" fill="#FA756D" fill-opacity="0.8"/>
<path fill-rule="evenodd" clip-rule="evenodd" d="M50.9953 50.9952C44.1841 57.8065 42.695 73.9486 42.695 73.9486C41.7801 82.6479 44.9855 85.8533 53.6848 84.9384C53.6848 84.9384 69.8269 83.4494 76.6382 76.6381C83.4494 69.8268 84.9385 53.6847 84.9385 53.6847C85.8533 44.9855 82.6479 41.7801 73.9487 42.695C73.9487 42.695 57.8066 44.184 50.9953 50.9952ZM58.4987 63.8167C58.4987 66.7538 60.8797 69.1347 63.8167 69.1347C66.7538 69.1347 69.1348 66.7538 69.1348 63.8167V63.8114C69.1348 60.8743 66.7538 58.4933 63.8167 58.4933C60.8797 58.4933 58.4987 60.8743 58.4987 63.8114V63.8167Z" fill="#FA756D"/>
<rect x="577" y="36" width="6" height="56" rx="3" fill="#414141"/>
<path d="M144.154 68.1202H152.236C152.347 70.0578 153.786 71.2203 156.388 71.2203C159.045 71.2203 160.263 70.2792 160.263 68.8399C160.263 68.0095 159.82 67.1237 157.772 66.6809L152.679 65.5737C147.586 64.4665 145.095 62.2521 145.095 57.3805C145.095 51.6232 150.022 48.3016 156.665 48.3016C163.087 48.3016 167.571 52.0661 167.571 57.6573H159.488C159.488 55.7751 158.326 54.5019 156.277 54.5019C154.34 54.5019 153.122 55.4983 153.122 56.993C153.122 58.2663 154.174 58.986 156.111 59.4288L161.26 60.536C165.799 61.5325 168.29 63.6361 168.29 68.0648C168.29 73.9883 163.253 77.5866 156.056 77.5866C148.748 77.5866 144.154 73.7115 144.154 68.1202ZM183.927 76.8669H175.402V56.2734H170.143V49.1874H175.402V40.6067H183.927V49.1874H189.187V56.2734H183.927V76.8669ZM211.397 49.1874H219.923V76.8669H211.895L211.342 73.7668C209.626 76.0366 206.194 77.5866 202.872 77.5866C196.561 77.5866 192.686 73.3793 192.686 66.5702V49.1874H201.211V63.47C201.211 68.0095 202.761 70.0024 206.249 70.0024C209.903 70.0024 211.397 68.1202 211.397 63.5808V49.1874ZM237.405 77.5866C229.433 77.5866 224.285 71.94 224.285 63.1932C224.285 54.3912 229.544 48.3016 237.958 48.3016C241.391 48.3016 244.657 49.6856 246.262 51.7339V35.1262H254.788V76.8669H246.76L246.318 73.324C244.823 75.8705 241.391 77.5866 237.405 77.5866ZM239.453 69.781C243.439 69.781 246.207 67.013 246.207 62.8611C246.207 58.7092 243.439 55.9412 239.453 55.9412C235.412 55.9412 232.865 58.7645 232.865 62.8611C232.865 66.9577 235.412 69.781 239.453 69.781ZM258.975 90.1531V83.0118H263.681C266.56 83.0118 267.777 82.1261 268.885 79.1367L269.383 77.808L258.256 49.1874H267.39L273.424 66.9577L280.123 49.1874H288.98L274.919 82.9011C272.594 88.5477 269.494 90.9282 264.622 90.9282C262.574 90.9282 260.636 90.6514 258.975 90.1531ZM305.647 62.9165C305.647 54.3912 311.515 48.3016 319.819 48.3016C328.012 48.3016 333.438 52.7857 333.991 60.0378H325.411C324.802 57.2698 323.086 55.9412 320.151 55.9412C316.553 55.9412 314.228 58.6538 314.228 62.9165C314.228 67.3452 316.387 69.9471 320.041 69.9471C323.03 69.9471 324.857 68.5631 325.411 65.8505H333.991C333.438 72.8257 327.791 77.5866 320.041 77.5866C311.294 77.5866 305.647 71.7739 305.647 62.9165ZM337.165 62.9718C337.165 54.2251 343.587 48.357 352.444 48.357C361.247 48.357 367.668 54.2251 367.668 62.9718C367.668 71.7185 361.247 77.5313 352.444 77.5313C343.587 77.5313 337.165 71.7185 337.165 62.9718ZM345.746 62.9165C345.746 67.1237 348.459 69.8917 352.444 69.8917C356.375 69.8917 359.088 67.1237 359.088 62.9165C359.088 58.7645 356.375 55.9966 352.444 55.9966C348.459 55.9966 345.746 58.7645 345.746 62.9165ZM381.136 76.8669H372.611V49.1874H380.582L381.136 52.0661C382.52 50.1285 385.233 48.3016 389.218 48.3016C393.37 48.3016 396.028 50.2392 397.633 53.1732C399.072 50.2392 402.339 48.3016 406.324 48.3016C413.466 48.3016 417.009 52.4536 417.009 58.7645V76.8669H408.483V61.145C408.483 57.6573 406.657 55.9966 403.944 55.9966C401.508 55.9966 399.072 57.3252 399.072 62.0307V76.8669H390.547V61.145C390.547 57.7127 388.776 56.0519 386.063 56.0519C383.627 56.0519 381.136 57.3805 381.136 62.0307V76.8669ZM423.104 90.1531V49.1874H431.131L431.574 52.5643C433.124 50.0178 436.612 48.3016 440.542 48.3016C448.237 48.3016 453.607 53.6715 453.607 62.5843C453.607 71.331 448.846 77.642 440.598 77.642C436.778 77.642 433.235 76.2026 431.63 74.099V90.1531H423.104ZM431.685 63.0272C431.685 67.1791 434.453 69.9471 438.439 69.9471C442.48 69.9471 445.026 67.1237 445.026 63.0272C445.026 58.9306 442.48 56.1073 438.439 56.1073C434.453 56.1073 431.685 58.8752 431.685 63.0272ZM466.874 77.5866C461.006 77.5866 457.352 74.1543 457.352 68.7292C457.352 63.6361 460.95 60.4807 467.594 59.9824L475.344 59.3735V58.9306C475.344 56.218 473.683 54.7787 470.638 54.7787C467.04 54.7787 465.102 56.1626 465.102 58.6538H458.016C458.016 52.3982 463.165 48.3016 471.081 48.3016C479.108 48.3016 483.648 52.7857 483.648 60.7021V76.8669H476.119L475.565 73.2132C474.679 75.7598 471.026 77.5866 466.874 77.5866ZM469.863 71.2757C473.129 71.2757 475.399 69.6703 475.399 66.5148V65.0201L471.081 65.4076C467.372 65.7398 466.043 66.5702 466.043 68.3416C466.043 70.3346 467.261 71.2757 469.863 71.2757ZM487.769 68.1202H495.852C495.962 70.0578 497.402 71.2203 500.004 71.2203C502.661 71.2203 503.879 70.2792 503.879 68.8399C503.879 68.0095 503.436 67.1237 501.388 66.6809L496.295 65.5737C491.202 64.4665 488.71 62.2521 488.71 57.3805C488.71 51.6232 493.637 48.3016 500.28 48.3016C506.702 48.3016 511.186 52.0661 511.186 57.6573H503.104C503.104 55.7751 501.941 54.5019 499.893 54.5019C497.955 54.5019 496.737 55.4983 496.737 56.993C496.737 58.2663 497.789 58.986 499.727 59.4288L504.875 60.536C509.415 61.5325 511.906 63.6361 511.906 68.0648C511.906 73.9883 506.868 77.5866 499.672 77.5866C492.364 77.5866 487.769 73.7115 487.769 68.1202ZM514.368 68.1202H522.45C522.561 70.0578 524 71.2203 526.602 71.2203C529.259 71.2203 530.477 70.2792 530.477 68.8399C530.477 68.0095 530.034 67.1237 527.986 66.6809L522.893 65.5737C517.8 64.4665 515.309 62.2521 515.309 57.3805C515.309 51.6232 520.236 48.3016 526.879 48.3016C533.3 48.3016 537.785 52.0661 537.785 57.6573H529.702C529.702 55.7751 528.54 54.5019 526.491 54.5019C524.554 54.5019 523.336 55.4983 523.336 56.993C523.336 58.2663 524.388 58.986 526.325 59.4288L531.474 60.536C536.013 61.5325 538.504 63.6361 538.504 68.0648C538.504 73.9883 533.467 77.5866 526.27 77.5866C518.962 77.5866 514.368 73.7115 514.368 68.1202Z" fill="#414141"/>
<path d="M629.699 77H624.114V40.2251H630.144V56.1411C631.726 53.4226 634.988 51.7914 638.695 51.7914C645.665 51.7914 649.916 57.2286 649.916 64.9394C649.916 72.4526 645.319 77.6426 638.3 77.6426C634.642 77.6426 631.528 76.0114 630.095 73.194L629.699 77ZM630.194 64.6923C630.194 69.0914 632.912 72.1066 637.064 72.1066C641.315 72.1066 643.836 69.042 643.836 64.6923C643.836 60.3426 641.315 57.2286 637.064 57.2286C632.912 57.2286 630.194 60.2931 630.194 64.6923ZM665.641 77.6426C658.375 77.6426 653.284 72.3537 653.284 64.7911C653.284 57.1297 658.276 51.8409 665.443 51.8409C672.759 51.8409 677.405 56.7343 677.405 64.3463V66.1751L659.018 66.2246C659.462 70.5249 661.736 72.6997 665.74 72.6997C669.052 72.6997 671.226 71.4146 671.918 69.0914H677.504C676.466 74.4297 672.017 77.6426 665.641 77.6426ZM665.493 56.7837C661.934 56.7837 659.759 58.7114 659.166 62.3691H671.424C671.424 59.008 669.101 56.7837 665.493 56.7837ZM697.554 52.4834V58.0689H695.33C690.98 58.0689 688.261 60.392 688.261 65.1371V77H682.231V52.6317H687.915L688.261 56.1906C689.299 53.7686 691.623 52.1374 694.885 52.1374C695.725 52.1374 696.565 52.2363 697.554 52.4834ZM707.715 77H701.735V40.2251H707.715V62.814L717.206 52.5823H724.768L715.476 62.2703L724.571 77H717.651L711.274 66.7189L707.715 70.426V77ZM738.046 77.6426C730.78 77.6426 725.689 72.3537 725.689 64.7911C725.689 57.1297 730.681 51.8409 737.848 51.8409C745.164 51.8409 749.81 56.7343 749.81 64.3463V66.1751L731.423 66.2246C731.868 70.5249 734.141 72.6997 738.145 72.6997C741.457 72.6997 743.632 71.4146 744.324 69.0914H749.909C748.871 74.4297 744.422 77.6426 738.046 77.6426ZM737.898 56.7837C734.339 56.7837 732.164 58.7114 731.571 62.3691H743.829C743.829 59.008 741.506 56.7837 737.898 56.7837ZM760.716 77H754.735V40.2251H760.716V77ZM777.965 77.6426C770.699 77.6426 765.608 72.3537 765.608 64.7911C765.608 57.1297 770.601 51.8409 777.768 51.8409C785.083 51.8409 789.729 56.7343 789.729 64.3463V66.1751L771.342 66.2246C771.787 70.5249 774.061 72.6997 778.064 72.6997C781.376 72.6997 783.551 71.4146 784.243 69.0914H789.828C788.79 74.4297 784.342 77.6426 777.965 77.6426ZM777.817 56.7837C774.258 56.7837 772.083 58.7114 771.49 62.3691H783.749C783.749 59.008 781.425 56.7837 777.817 56.7837ZM791.61 88.3191V83.2774H795.218C797.591 83.2774 799.073 82.7337 800.111 79.8669L800.803 78.038L790.967 52.5823H797.343L803.621 70.3766L810.244 52.5823H816.472L804.511 82.4371C802.682 86.9846 800.111 88.8629 796.108 88.8629C794.427 88.8629 792.944 88.6651 791.61 88.3191Z" fill="#FA756D"/>
</svg>
