<svg width="480" height="141" viewBox="0 0 480 141" fill="none" xmlns="http://www.w3.org/2000/svg">
<path d="M153.738 122.006V90.4836H159.772L173.191 112.729H169.994L183.188 90.4836H189.178L189.268 122.006H182.423L182.378 100.976H183.639L173.101 118.674H169.814L159.051 100.976H160.582V122.006H153.738ZM208.275 122.366C205.513 122.366 203.081 121.826 200.979 120.745C198.908 119.664 197.302 118.193 196.161 116.332C195.02 114.441 194.45 112.294 194.45 109.892C194.45 107.461 195.005 105.314 196.116 103.453C197.257 101.561 198.803 100.09 200.754 99.0396C202.706 97.9589 204.912 97.4185 207.374 97.4185C209.746 97.4185 211.877 97.9289 213.769 98.9496C215.69 99.9403 217.206 101.381 218.317 103.273C219.428 105.134 219.983 107.371 219.983 109.982C219.983 110.253 219.968 110.568 219.938 110.928C219.908 111.258 219.878 111.573 219.848 111.874H200.169V107.776H216.155L213.453 108.992C213.453 107.731 213.198 106.635 212.688 105.704C212.177 104.774 211.472 104.053 210.571 103.543C209.671 103.002 208.62 102.732 207.419 102.732C206.218 102.732 205.152 103.002 204.222 103.543C203.321 104.053 202.616 104.789 202.105 105.749C201.595 106.68 201.34 107.791 201.34 109.082V110.163C201.34 111.483 201.625 112.654 202.195 113.675C202.796 114.666 203.621 115.431 204.672 115.972C205.753 116.482 207.014 116.737 208.455 116.737C209.746 116.737 210.871 116.542 211.832 116.152C212.823 115.761 213.723 115.176 214.534 114.395L218.272 118.448C217.161 119.709 215.765 120.685 214.084 121.375C212.403 122.036 210.466 122.366 208.275 122.366ZM224.66 122.006V97.7788H231.37V104.624L230.424 102.642C231.144 100.931 232.3 99.6401 233.891 98.7695C235.483 97.8688 237.419 97.4185 239.7 97.4185V103.903C239.4 103.873 239.13 103.858 238.89 103.858C238.65 103.828 238.395 103.813 238.124 103.813C236.203 103.813 234.642 104.368 233.441 105.479C232.27 106.56 231.685 108.256 231.685 110.568V122.006H224.66ZM243.922 122.006V97.7788H250.946V122.006H243.922ZM247.434 94.4014C246.143 94.4014 245.092 94.0261 244.282 93.2756C243.471 92.5251 243.066 91.5944 243.066 90.4836C243.066 89.3728 243.471 88.4422 244.282 87.6916C245.092 86.9411 246.143 86.5658 247.434 86.5658C248.725 86.5658 249.776 86.9261 250.586 87.6466C251.397 88.3371 251.802 89.2377 251.802 90.3485C251.802 91.5193 251.397 92.495 250.586 93.2756C249.806 94.0261 248.755 94.4014 247.434 94.4014ZM267.869 122.366C265.587 122.366 263.531 121.856 261.699 120.835C259.868 119.784 258.412 118.328 257.331 116.467C256.28 114.606 255.755 112.414 255.755 109.892C255.755 107.341 256.28 105.134 257.331 103.273C258.412 101.411 259.868 99.9703 261.699 98.9496C263.531 97.9289 265.587 97.4185 267.869 97.4185C269.91 97.4185 271.696 97.8688 273.227 98.7695C274.758 99.6701 275.944 101.036 276.785 102.867C277.625 104.699 278.046 107.04 278.046 109.892C278.046 112.714 277.64 115.056 276.83 116.917C276.019 118.749 274.849 120.115 273.317 121.015C271.816 121.916 270 122.366 267.869 122.366ZM269.084 116.602C270.225 116.602 271.261 116.332 272.192 115.791C273.122 115.251 273.858 114.486 274.398 113.495C274.969 112.474 275.254 111.273 275.254 109.892C275.254 108.481 274.969 107.28 274.398 106.29C273.858 105.299 273.122 104.534 272.192 103.993C271.261 103.453 270.225 103.183 269.084 103.183C267.914 103.183 266.863 103.453 265.932 103.993C265.002 104.534 264.251 105.299 263.681 106.29C263.14 107.28 262.87 108.481 262.87 109.892C262.87 111.273 263.14 112.474 263.681 113.495C264.251 114.486 265.002 115.251 265.932 115.791C266.863 116.332 267.914 116.602 269.084 116.602ZM275.434 122.006V117.052L275.569 109.847L275.119 102.687V88.5923H282.144V122.006H275.434ZM288.645 122.006V97.7788H295.67V122.006H288.645ZM292.158 94.4014C290.867 94.4014 289.816 94.0261 289.006 93.2756C288.195 92.5251 287.79 91.5944 287.79 90.4836C287.79 89.3728 288.195 88.4422 289.006 87.6916C289.816 86.9411 290.867 86.5658 292.158 86.5658C293.449 86.5658 294.5 86.9261 295.31 87.6466C296.121 88.3371 296.526 89.2377 296.526 90.3485C296.526 91.5193 296.121 92.495 295.31 93.2756C294.53 94.0261 293.479 94.4014 292.158 94.4014ZM317.051 122.006V117.278L316.6 116.242V107.776C316.6 106.275 316.135 105.104 315.204 104.263C314.304 103.423 312.908 103.002 311.016 103.002C309.725 103.002 308.45 103.213 307.189 103.633C305.958 104.023 304.907 104.564 304.036 105.254L301.515 100.346C302.836 99.4149 304.427 98.6944 306.288 98.184C308.149 97.6737 310.041 97.4185 311.962 97.4185C315.655 97.4185 318.522 98.2891 320.563 100.03C322.605 101.772 323.625 104.488 323.625 108.181V122.006H317.051ZM309.665 122.366C307.774 122.366 306.153 122.051 304.802 121.42C303.451 120.76 302.415 119.874 301.695 118.764C300.974 117.653 300.614 116.407 300.614 115.026C300.614 113.585 300.959 112.324 301.65 111.243C302.37 110.163 303.496 109.322 305.027 108.721C306.558 108.091 308.555 107.776 311.016 107.776H317.456V111.874H311.782C310.131 111.874 308.99 112.144 308.36 112.684C307.759 113.225 307.459 113.9 307.459 114.711C307.459 115.611 307.804 116.332 308.495 116.872C309.215 117.383 310.191 117.638 311.422 117.638C312.593 117.638 313.643 117.368 314.574 116.827C315.505 116.257 316.18 115.431 316.6 114.35L317.681 117.593C317.171 119.154 316.24 120.34 314.889 121.15C313.538 121.961 311.797 122.366 309.665 122.366ZM344.709 97.4185C346.63 97.4185 348.341 97.8088 349.842 98.5893C351.373 99.3399 352.574 100.511 353.445 102.102C354.315 103.663 354.751 105.674 354.751 108.136V122.006H347.726V109.217C347.726 107.265 347.29 105.824 346.42 104.894C345.579 103.963 344.378 103.498 342.817 103.498C341.706 103.498 340.701 103.738 339.8 104.218C338.93 104.669 338.239 105.374 337.729 106.335C337.248 107.295 337.008 108.526 337.008 110.027V122.006H329.983V97.7788H336.693V104.488L335.432 102.462C336.303 100.841 337.549 99.595 339.17 98.7244C340.791 97.8538 342.637 97.4185 344.709 97.4185Z" fill="#414141"/>
<path d="M125.57 106.161C124.651 106.161 123.862 105.967 123.202 105.579C122.542 105.191 122.037 104.602 121.688 103.813C121.339 103.01 121.164 102.001 121.164 100.785C121.164 99.5552 121.345 98.5459 121.707 97.7565C122.083 96.9672 122.6 96.3784 123.26 95.9902C123.92 95.602 124.69 95.4079 125.57 95.4079C126.553 95.4079 127.433 95.6278 128.21 96.0678C128.999 96.5078 129.62 97.1289 130.073 97.9312C130.539 98.7335 130.772 99.6846 130.772 100.785C130.772 101.871 130.539 102.816 130.073 103.618C129.62 104.421 128.999 105.048 128.21 105.501C127.433 105.941 126.553 106.161 125.57 106.161ZM119.398 106.006V91.6035H122.426V97.6789L122.231 100.765L122.29 103.871V106.006H119.398ZM125.046 103.677C125.551 103.677 125.997 103.56 126.385 103.327C126.786 103.094 127.103 102.764 127.336 102.337C127.582 101.897 127.705 101.38 127.705 100.785C127.705 100.176 127.582 99.6587 127.336 99.2317C127.103 98.8047 126.786 98.4747 126.385 98.2418C125.997 98.0088 125.551 97.8924 125.046 97.8924C124.541 97.8924 124.088 98.0088 123.687 98.2418C123.286 98.4747 122.969 98.8047 122.736 99.2317C122.503 99.6587 122.387 100.176 122.387 100.785C122.387 101.38 122.503 101.897 122.736 102.337C122.969 102.764 123.286 103.094 123.687 103.327C124.088 103.56 124.541 103.677 125.046 103.677ZM133.835 109.927C133.291 109.927 132.754 109.843 132.223 109.674C131.693 109.506 131.259 109.273 130.923 108.976L132.029 106.821C132.262 107.028 132.528 107.19 132.825 107.306C133.136 107.423 133.44 107.481 133.737 107.481C134.164 107.481 134.501 107.378 134.747 107.17C135.006 106.976 135.239 106.646 135.446 106.181L135.989 104.899L136.222 104.57L139.968 95.5631H142.88L138.163 106.646C137.827 107.488 137.438 108.147 136.998 108.626C136.571 109.105 136.093 109.441 135.562 109.636C135.044 109.83 134.469 109.927 133.835 109.927ZM135.62 106.413L130.962 95.5631H134.087L137.697 104.298L135.62 106.413Z" fill="#414141"/>
<path d="M143.73 78.8656C140.332 78.8656 137.179 78.3334 134.273 77.269C131.407 76.1637 128.91 74.608 126.781 72.602C124.693 70.5961 123.056 68.2421 121.869 65.5402C120.681 62.7974 120.088 59.7885 120.088 56.5134C120.088 53.2384 120.681 50.2499 121.869 47.548C123.056 44.8052 124.693 42.4308 126.781 40.4248C128.91 38.4188 131.407 36.8837 134.273 35.8193C137.179 34.7139 140.332 34.1613 143.73 34.1613C147.701 34.1613 151.242 34.8572 154.353 36.2491C157.505 37.641 160.125 39.647 162.213 42.267L154.476 49.2674C153.084 47.6299 151.549 46.3813 149.87 45.5216C148.233 44.6619 146.39 44.232 144.344 44.232C142.583 44.232 140.966 44.5186 139.492 45.0917C138.019 45.6649 136.75 46.5041 135.685 47.6094C134.662 48.6738 133.843 49.9633 133.229 51.478C132.656 52.9928 132.369 54.6712 132.369 56.5134C132.369 58.3556 132.656 60.0341 133.229 61.5488C133.843 63.0635 134.662 64.3735 135.685 65.4788C136.75 66.5432 138.019 67.362 139.492 67.9351C140.966 68.5082 142.583 68.7948 144.344 68.7948C146.39 68.7948 148.233 68.365 149.87 67.5053C151.549 66.6456 153.084 65.397 154.476 63.7594L162.213 70.7598C160.125 73.3389 157.505 75.3449 154.353 76.7777C151.242 78.1696 147.701 78.8656 143.73 78.8656ZM188.411 78.8656C184.972 78.8656 181.8 78.3129 178.893 77.2076C175.987 76.1022 173.448 74.5466 171.279 72.5406C169.15 70.4937 167.492 68.1193 166.305 65.4174C165.118 62.7155 164.524 59.7475 164.524 56.5134C164.524 53.2793 165.118 50.3113 166.305 47.6094C167.492 44.9075 169.15 42.5536 171.279 40.5476C173.448 38.5007 175.987 36.9246 178.893 35.8193C181.8 34.7139 184.972 34.1613 188.411 34.1613C191.891 34.1613 195.064 34.7139 197.929 35.8193C200.836 36.9246 203.354 38.5007 205.482 40.5476C207.611 42.5536 209.269 44.9075 210.456 47.6094C211.684 50.3113 212.299 53.2793 212.299 56.5134C212.299 59.7475 211.684 62.736 210.456 65.4788C209.269 68.1807 207.611 70.5347 205.482 72.5406C203.354 74.5466 200.836 76.1022 197.929 77.2076C195.064 78.3129 191.891 78.8656 188.411 78.8656ZM188.411 68.7948C190.049 68.7948 191.563 68.5082 192.955 67.9351C194.388 67.362 195.616 66.5432 196.64 65.4788C197.704 64.3735 198.523 63.0635 199.096 61.5488C199.71 60.0341 200.017 58.3556 200.017 56.5134C200.017 54.6303 199.71 52.9518 199.096 51.478C198.523 49.9633 197.704 48.6738 196.64 47.6094C195.616 46.5041 194.388 45.6649 192.955 45.0917C191.563 44.5186 190.049 44.232 188.411 44.232C186.774 44.232 185.239 44.5186 183.806 45.0917C182.414 45.6649 181.186 46.5041 180.121 47.6094C179.098 48.6738 178.279 49.9633 177.665 51.478C177.092 52.9518 176.805 54.6303 176.805 56.5134C176.805 58.3556 177.092 60.0341 177.665 61.5488C178.279 63.0635 179.098 64.3735 180.121 65.4788C181.186 66.5432 182.414 67.362 183.806 67.9351C185.239 68.5082 186.774 68.7948 188.411 68.7948ZM218.667 78.0059V35.021H228.676L246.484 64.2507H241.203L258.52 35.021H268.529L268.652 78.0059H257.476L257.353 52.0307H259.257L246.3 73.7688H240.896L227.571 52.0307H229.904V78.0059H218.667ZM277.255 78.0059V35.021H296.905C300.835 35.021 304.213 35.6555 307.038 36.9246C309.903 38.1937 312.114 40.0359 313.669 42.4512C315.225 44.8256 316.003 47.6503 316.003 50.9254C316.003 54.1595 315.225 56.9637 313.669 59.3381C312.114 61.7125 309.903 63.5548 307.038 64.8648C304.213 66.1338 300.835 66.7684 296.905 66.7684H284.01L289.414 61.4874V78.0059H277.255ZM289.414 62.7769L284.01 57.1889H296.169C298.707 57.1889 300.59 56.6362 301.818 55.5309C303.087 54.4256 303.722 52.8904 303.722 50.9254C303.722 48.9194 303.087 47.3638 301.818 46.2585C300.59 45.1531 298.707 44.6005 296.169 44.6005H284.01L289.414 39.0124V62.7769ZM314.614 78.0059L333.589 35.021H345.563L364.599 78.0059H351.95L337.089 40.9775H341.879L327.018 78.0059H314.614ZM324.992 69.6545L328.124 60.6891H349.125L352.257 69.6545H324.992ZM383.152 78.8656C379.632 78.8656 376.234 78.4357 372.959 77.576C369.725 76.6754 367.084 75.5291 365.037 74.1372L369.029 65.1718C370.953 66.3999 373.164 67.4234 375.661 68.2421C378.199 69.02 380.717 69.4089 383.214 69.4089C384.892 69.4089 386.243 69.2656 387.267 68.979C388.29 68.6515 389.027 68.2422 389.477 67.7509C389.969 67.2187 390.214 66.6046 390.214 65.9087C390.214 64.9262 389.764 64.1484 388.863 63.5752C387.963 63.0021 386.796 62.5313 385.363 62.1629C383.93 61.7944 382.334 61.426 380.573 61.0575C378.854 60.6891 377.114 60.2183 375.354 59.6452C373.634 59.072 372.058 58.3352 370.625 57.4345C369.193 56.4929 368.026 55.2853 367.125 53.8115C366.225 52.2968 365.774 50.3932 365.774 48.1007C365.774 45.5216 366.47 43.1881 367.862 41.1003C369.295 39.0124 371.424 37.334 374.248 36.0649C377.073 34.7958 380.594 34.1613 384.81 34.1613C387.635 34.1613 390.398 34.4888 393.1 35.1438C395.843 35.7579 398.279 36.679 400.408 37.9071L396.662 46.9339C394.615 45.8286 392.589 45.0098 390.583 44.4777C388.577 43.9045 386.632 43.618 384.749 43.618C383.071 43.618 381.72 43.8022 380.696 44.1706C379.673 44.4981 378.936 44.9484 378.486 45.5216C378.035 46.0947 377.81 46.7497 377.81 47.4866C377.81 48.4282 378.24 49.1855 379.1 49.7587C380 50.2908 381.167 50.7412 382.6 51.1096C384.074 51.4371 385.67 51.7851 387.39 52.1535C389.15 52.522 390.89 52.9927 392.609 53.5659C394.369 54.0981 395.966 54.835 397.399 55.7765C398.832 56.6772 399.978 57.8848 400.838 59.3995C401.738 60.8733 402.189 62.736 402.189 64.9876C402.189 67.4848 401.472 69.7978 400.039 71.9266C398.647 74.0144 396.539 75.6929 393.714 76.9619C390.931 78.231 387.41 78.8656 383.152 78.8656ZM422.911 78.8656C419.39 78.8656 415.993 78.4357 412.717 77.576C409.483 76.6754 406.843 75.5291 404.796 74.1372L408.787 65.1718C410.712 66.3999 412.922 67.4234 415.419 68.2421C417.958 69.02 420.475 69.4089 422.972 69.4089C424.651 69.4089 426.002 69.2656 427.025 68.979C428.049 68.6515 428.786 68.2422 429.236 67.7509C429.727 67.2187 429.973 66.6046 429.973 65.9087C429.973 64.9262 429.523 64.1484 428.622 63.5752C427.721 63.0021 426.555 62.5313 425.122 62.1629C423.689 61.7944 422.092 61.426 420.332 61.0575C418.613 60.6891 416.873 60.2183 415.112 59.6452C413.393 59.072 411.817 58.3352 410.384 57.4345C408.951 56.4929 407.784 55.2853 406.884 53.8115C405.983 52.2968 405.533 50.3932 405.533 48.1007C405.533 45.5216 406.229 43.1881 407.621 41.1003C409.054 39.0124 411.182 37.334 414.007 36.0649C416.832 34.7958 420.352 34.1613 424.569 34.1613C427.394 34.1613 430.157 34.4888 432.859 35.1438C435.602 35.7579 438.038 36.679 440.166 37.9071L436.421 46.9339C434.374 45.8286 432.347 45.0098 430.341 44.4777C428.335 43.9045 426.391 43.618 424.508 43.618C422.829 43.618 421.478 43.8022 420.455 44.1706C419.431 44.4981 418.694 44.9484 418.244 45.5216C417.794 46.0947 417.569 46.7497 417.569 47.4866C417.569 48.4282 417.998 49.1855 418.858 49.7587C419.759 50.2908 420.926 50.7412 422.358 51.1096C423.832 51.4371 425.429 51.7851 427.148 52.1535C428.908 52.522 430.648 52.9927 432.368 53.5659C434.128 54.0981 435.725 54.835 437.157 55.7765C438.59 56.6772 439.737 57.8848 440.596 59.3995C441.497 60.8733 441.947 62.736 441.947 64.9876C441.947 67.4848 441.231 69.7978 439.798 71.9266C438.406 74.0144 436.298 75.6929 433.473 76.9619C430.689 78.231 427.169 78.8656 422.911 78.8656Z" fill="#FA756D"/>
<g clip-path="url(#clip0_6704_1293)">
<rect x="18.9316" y="49.3379" width="75.79" height="75.79" rx="37.895" transform="rotate(-21.1323 18.9316 49.3379)" fill="#FA756D" fill-opacity="0.3"/>
<path fill-rule="evenodd" clip-rule="evenodd" d="M56.4612 41.0378C52.5155 42.5629 48.9089 44.8502 45.8472 47.7691C42.7855 50.688 40.3287 54.1814 38.617 58.0498C36.9054 61.9181 35.9725 66.0858 35.8715 70.3147C35.7706 74.5437 36.5035 78.7511 38.0286 82.6967C39.5537 86.6424 41.8409 90.249 44.7599 93.3107C47.6788 96.3724 51.1721 98.8292 55.0405 100.541C58.9089 102.252 63.0766 103.185 67.3055 103.286C71.5344 103.387 75.7418 102.654 79.6875 101.129C87.6561 98.0493 94.0749 91.9299 97.5316 84.1174C100.988 76.3048 101.2 67.439 98.1201 59.4704C95.0401 51.5018 88.9207 45.083 81.1081 41.6263C73.2956 38.1695 64.4298 37.9578 56.4612 41.0378ZM32.7268 84.7459C29.1033 75.3712 29.3524 64.941 33.4191 55.7499C37.4859 46.5587 45.0372 39.3595 54.412 35.7361C63.7867 32.1126 74.2169 32.3616 83.408 36.4283C92.5992 40.4951 99.7984 48.0464 103.422 57.4212C107.045 66.7959 106.796 77.2261 102.73 86.4173C98.6628 95.6084 91.1115 102.808 81.7367 106.431C72.362 110.055 61.9318 109.806 52.7406 105.739C43.5495 101.672 36.3503 94.1207 32.7268 84.7459Z" fill="#FA756D"/>
<path fill-rule="evenodd" clip-rule="evenodd" d="M46.0521 47.5632C49.068 44.735 52.6033 42.5181 56.4626 41.035C60.3162 39.5369 64.4235 38.7999 68.5575 38.8645C70.4076 39.779 72.2278 40.971 73.9667 42.3744C77.2208 45.0019 80.3063 48.458 83.0232 52.5582C84.7253 52.3463 86.3427 52.2186 87.8754 52.1751C90.2756 52.1051 92.5055 52.2381 94.4704 52.6064C95.5484 54.1453 96.4939 55.7926 97.3068 57.5482C96.7999 57.2478 96.2614 57.0044 95.7011 56.8223C93.8158 56.183 91.2077 55.8702 87.9856 55.9663C87.0945 55.9906 86.1685 56.0469 85.2077 56.1352C87.7331 60.6512 89.6833 65.4656 91.0127 70.4661C91.7078 69.9344 92.362 69.4042 92.9753 68.8756C95.4244 66.7797 97.1442 64.7941 98.1094 63.053C98.4343 62.4586 98.6676 61.9196 98.8095 61.4359C99.3886 63.2819 99.7968 65.1368 100.034 67.0006C98.671 68.7404 97.1313 70.3343 95.4398 71.7568C94.3097 72.7189 93.1389 73.6321 91.9306 74.494C93.0019 80.0837 93.1512 85.4294 92.424 90.1275C92.2888 91.0128 92.1164 91.8921 91.9074 92.763C90.1015 94.7475 88.035 96.524 85.7302 98.0281C87.1378 95.8116 88.1517 92.9539 88.6788 89.5467C89.269 85.7592 89.2224 81.4116 88.4897 76.7975C84.5582 79.252 79.9728 81.5903 74.9608 83.6348L81.4358 100.387C80.2849 100.912 79.1038 101.369 77.8989 101.754L71.4239 85.0019C66.676 86.7573 61.7879 88.1072 56.812 89.0371C59.3707 92.9498 62.2626 96.1933 65.2481 98.603C67.9297 100.77 70.602 102.203 73.1344 102.897C70.4521 103.327 67.726 103.413 65.0218 103.155C64.2815 102.651 63.5626 102.116 62.867 101.552C59.1692 98.564 55.6844 94.5075 52.7178 89.6504C51.2427 89.8258 49.7609 89.9379 48.2762 89.9863C46.0677 90.0713 43.8563 89.9272 41.6774 89.5564C40.5881 87.9962 39.6402 86.3419 38.8448 84.6132C39.2726 84.8767 39.8078 85.1187 40.4505 85.3391C42.3358 85.9785 44.9439 86.2912 48.166 86.1951C48.9754 86.1739 49.8156 86.125 50.6866 86.0485C48.3082 81.4549 46.5139 76.5817 45.3457 71.5425C44.5753 72.1233 43.8517 72.7032 43.1749 73.2821C40.7272 75.3817 39.0074 77.3673 38.0422 79.1084C37.7149 79.7038 37.4803 80.2433 37.3384 80.727C36.7643 78.879 36.3573 77.0236 36.1176 75.1608C37.4806 73.421 39.0203 71.8271 40.7118 70.4046C41.8739 69.4094 43.1554 68.4166 44.5566 67.4262C43.8111 62.5682 43.7686 57.9317 44.4111 53.8024C44.7292 51.6691 45.2794 49.5769 46.0521 47.5632ZM71.5871 45.3269C74.1303 47.38 76.61 50.0453 78.8713 53.2109C74.0571 54.1397 69.3269 55.4603 64.7278 57.1596L58.3652 40.6984C62.2896 40.0006 66.9245 41.5627 71.5871 45.3269ZM81.1294 56.6566C76.0029 57.5323 70.9688 58.8823 66.092 60.6891L73.5937 80.0978C78.9521 77.9066 83.7468 75.3887 87.6924 72.8044C87.1123 70.3641 86.3418 67.8973 85.381 65.404C84.1624 62.2513 82.7237 59.3167 81.1294 56.6566ZM54.8283 42.0655L61.1879 58.5192C56.6405 60.3564 52.251 62.5622 48.063 65.1146C47.6112 61.2495 47.65 57.6109 48.1535 54.3758C49.0702 48.4594 51.4562 44.1922 54.8283 42.0655ZM62.5535 62.0525C57.7293 63.9953 53.0959 66.382 48.713 69.1817C49.3587 72.3648 50.2743 75.487 51.4498 78.5147C52.4117 81.0033 53.5089 83.3538 54.715 85.5421C59.3745 84.8047 64.6124 83.4448 70.0539 81.4574L62.5535 62.0525Z" fill="#FA756D"/>
</g>
<defs>
<clipPath id="clip0_6704_1293">
<rect width="96" height="96" fill="white" transform="translate(6 43.6152) rotate(-21.1323)"/>
</clipPath>
</defs>
</svg>
