<svg width="480" height="141" viewBox="0 0 480 141" fill="none" xmlns="http://www.w3.org/2000/svg">
<path d="M129.142 118.206C127.223 118.206 125.434 117.898 123.775 117.282C122.14 116.642 120.718 115.742 119.51 114.58C118.302 113.419 117.354 112.057 116.667 110.493C116.003 108.929 115.671 107.211 115.671 105.339C115.671 103.467 116.003 101.749 116.667 100.186C117.354 98.6217 118.302 97.2592 119.51 96.0981C120.742 94.9371 122.176 94.0485 123.811 93.4324C125.446 92.7927 127.235 92.4728 129.178 92.4728C131.334 92.4728 133.277 92.8519 135.007 93.6101C136.76 94.3447 138.229 95.4347 139.414 96.8801L135.718 100.292C134.864 99.3207 133.917 98.598 132.874 98.1241C131.831 97.6265 130.694 97.3777 129.462 97.3777C128.301 97.3777 127.235 97.5672 126.263 97.9464C125.292 98.3255 124.45 98.8705 123.74 99.5813C123.029 100.292 122.472 101.133 122.069 102.105C121.69 103.076 121.5 104.155 121.5 105.339C121.5 106.524 121.69 107.602 122.069 108.574C122.472 109.545 123.029 110.386 123.74 111.097C124.45 111.808 125.292 112.353 126.263 112.732C127.235 113.111 128.301 113.301 129.462 113.301C130.694 113.301 131.831 113.064 132.874 112.59C133.917 112.092 134.864 111.346 135.718 110.351L139.414 113.763C138.229 115.208 136.76 116.31 135.007 117.068C133.277 117.827 131.322 118.206 129.142 118.206ZM154.866 118.206C152.9 118.206 151.075 117.886 149.393 117.246C147.734 116.606 146.289 115.706 145.056 114.545C143.848 113.384 142.9 112.021 142.213 110.457C141.55 108.894 141.218 107.188 141.218 105.339C141.218 103.491 141.55 101.785 142.213 100.221C142.9 98.6572 143.86 97.2948 145.092 96.1337C146.324 94.9726 147.77 94.0722 149.428 93.4324C151.087 92.7927 152.888 92.4728 154.831 92.4728C156.797 92.4728 158.598 92.7927 160.233 93.4324C161.892 94.0722 163.325 94.9726 164.534 96.1337C165.766 97.2948 166.726 98.6572 167.413 100.221C168.1 101.761 168.444 103.467 168.444 105.339C168.444 107.188 168.1 108.905 167.413 110.493C166.726 112.057 165.766 113.419 164.534 114.58C163.325 115.718 161.892 116.606 160.233 117.246C158.598 117.886 156.809 118.206 154.866 118.206ZM154.831 113.301C155.944 113.301 156.963 113.111 157.887 112.732C158.835 112.353 159.665 111.808 160.375 111.097C161.086 110.386 161.631 109.545 162.01 108.574C162.413 107.602 162.615 106.524 162.615 105.339C162.615 104.155 162.413 103.076 162.01 102.105C161.631 101.133 161.086 100.292 160.375 99.5813C159.688 98.8705 158.871 98.3255 157.923 97.9464C156.975 97.5672 155.944 97.3777 154.831 97.3777C153.717 97.3777 152.686 97.5672 151.738 97.9464C150.814 98.3255 149.997 98.8705 149.286 99.5813C148.575 100.292 148.018 101.133 147.615 102.105C147.236 103.076 147.047 104.155 147.047 105.339C147.047 106.5 147.236 107.578 147.615 108.574C148.018 109.545 148.563 110.386 149.25 111.097C149.961 111.808 150.791 112.353 151.738 112.732C152.686 113.111 153.717 113.301 154.831 113.301ZM172.771 117.779V92.8993H177.534L188.125 110.457H185.602L196.016 92.8993H200.743L200.814 117.779H195.412L195.376 101.181H196.371L188.054 115.149H185.46L176.965 101.181H178.173V117.779H172.771ZM206.717 117.779V92.8993H217.487C219.714 92.8993 221.633 93.2666 223.245 94.0011C224.856 94.712 226.1 95.7427 226.977 97.0933C227.853 98.444 228.292 100.055 228.292 101.927C228.292 103.775 227.853 105.375 226.977 106.725C226.1 108.076 224.856 109.119 223.245 109.853C221.633 110.564 219.714 110.92 217.487 110.92H209.916L212.475 108.325V117.779H206.717ZM212.475 108.965L209.916 106.228H217.167C218.944 106.228 220.271 105.849 221.148 105.09C222.024 104.332 222.463 103.278 222.463 101.927C222.463 100.553 222.024 99.4866 221.148 98.7283C220.271 97.9701 218.944 97.5909 217.167 97.5909H209.916L212.475 94.8541V108.965ZM227.883 117.779L238.972 92.8993H244.659L255.784 117.779H249.742L240.643 95.8138H242.918L233.783 117.779H227.883ZM233.428 112.448L234.956 108.076H247.751L249.315 112.448H233.428ZM266.54 118.206C264.55 118.206 262.642 117.945 260.818 117.424C258.993 116.879 257.524 116.18 256.411 115.327L258.365 110.991C259.432 111.749 260.688 112.377 262.133 112.874C263.602 113.348 265.083 113.585 266.576 113.585C267.713 113.585 268.625 113.479 269.313 113.265C270.023 113.028 270.545 112.709 270.877 112.306C271.208 111.903 271.374 111.441 271.374 110.92C271.374 110.256 271.113 109.735 270.592 109.356C270.071 108.953 269.384 108.633 268.531 108.396C267.678 108.135 266.73 107.898 265.687 107.685C264.668 107.448 263.638 107.164 262.595 106.832C261.576 106.5 260.64 106.074 259.787 105.553C258.934 105.031 258.235 104.344 257.69 103.491C257.169 102.638 256.908 101.548 256.908 100.221C256.908 98.7994 257.287 97.508 258.046 96.3469C258.827 95.1622 259.989 94.2262 261.529 93.5391C263.093 92.8282 265.047 92.4728 267.393 92.4728C268.957 92.4728 270.497 92.6623 272.014 93.0415C273.53 93.3969 274.869 93.9419 276.03 94.6764L274.253 99.0482C273.092 98.3847 271.931 97.899 270.77 97.5909C269.609 97.2592 268.471 97.0933 267.358 97.0933C266.244 97.0933 265.332 97.2237 264.621 97.4843C263.91 97.745 263.401 98.0885 263.093 98.5151C262.785 98.9179 262.631 99.3918 262.631 99.9368C262.631 100.577 262.891 101.098 263.413 101.501C263.934 101.88 264.621 102.188 265.474 102.425C266.327 102.662 267.263 102.899 268.282 103.136C269.324 103.373 270.355 103.645 271.374 103.953C272.417 104.261 273.365 104.676 274.218 105.197C275.071 105.718 275.758 106.406 276.279 107.259C276.824 108.112 277.097 109.19 277.097 110.493C277.097 111.891 276.706 113.171 275.924 114.332C275.142 115.493 273.969 116.429 272.405 117.14C270.865 117.85 268.91 118.206 266.54 118.206ZM289.206 118.206C287.215 118.206 285.308 117.945 283.483 117.424C281.659 116.879 280.19 116.18 279.076 115.327L281.031 110.991C282.097 111.749 283.353 112.377 284.798 112.874C286.268 113.348 287.749 113.585 289.241 113.585C290.379 113.585 291.291 113.479 291.978 113.265C292.689 113.028 293.21 112.709 293.542 112.306C293.874 111.903 294.04 111.441 294.04 110.92C294.04 110.256 293.779 109.735 293.258 109.356C292.736 108.953 292.049 108.633 291.196 108.396C290.343 108.135 289.395 107.898 288.353 107.685C287.334 107.448 286.303 107.164 285.261 106.832C284.242 106.5 283.306 106.074 282.453 105.553C281.6 105.031 280.901 104.344 280.356 103.491C279.834 102.638 279.574 101.548 279.574 100.221C279.574 98.7994 279.953 97.508 280.711 96.3469C281.493 95.1622 282.654 94.2262 284.194 93.5391C285.758 92.8282 287.713 92.4728 290.059 92.4728C291.623 92.4728 293.163 92.6623 294.679 93.0415C296.196 93.3969 297.535 93.9419 298.696 94.6764L296.919 99.0482C295.758 98.3847 294.596 97.899 293.435 97.5909C292.274 97.2592 291.137 97.0933 290.023 97.0933C288.91 97.0933 287.997 97.2237 287.286 97.4843C286.576 97.745 286.066 98.0885 285.758 98.5151C285.45 98.9179 285.296 99.3918 285.296 99.9368C285.296 100.577 285.557 101.098 286.078 101.501C286.599 101.88 287.286 102.188 288.14 102.425C288.993 102.662 289.928 102.899 290.947 103.136C291.99 103.373 293.021 103.645 294.04 103.953C295.082 104.261 296.03 104.676 296.883 105.197C297.736 105.718 298.423 106.406 298.945 107.259C299.49 108.112 299.762 109.19 299.762 110.493C299.762 111.891 299.371 113.171 298.589 114.332C297.807 115.493 296.634 116.429 295.07 117.14C293.53 117.85 291.575 118.206 289.206 118.206Z" fill="#FA756D"/>
<path d="M118.403 74V29.9731H128.655L146.894 59.9114H141.485L159.222 29.9731H169.474L169.6 74H158.153L158.027 47.3952H159.977L146.706 69.6602H141.171L127.523 47.3952H129.913V74H118.403ZM195.708 74.5661C191.682 74.5661 188.16 73.8113 185.141 72.3018C182.164 70.7504 179.837 68.6539 178.16 66.0123C176.525 63.3287 175.707 60.2888 175.707 56.8924C175.707 53.4961 176.504 50.4771 178.097 47.8355C179.732 45.1519 181.975 43.0764 184.827 41.6088C187.678 40.0993 190.886 39.3446 194.45 39.3446C197.804 39.3446 200.865 40.0364 203.632 41.4201C206.4 42.7619 208.601 44.7536 210.237 47.3952C211.872 50.0368 212.689 53.2445 212.689 57.0182C212.689 57.4375 212.668 57.9197 212.627 58.4648C212.585 59.0099 212.543 59.5131 212.501 59.9743H185.519V53.6847H206.148L201.62 55.4458C201.662 53.8944 201.368 52.5526 200.739 51.4205C200.152 50.2884 199.314 49.4079 198.223 48.7789C197.175 48.1499 195.938 47.8355 194.513 47.8355C193.087 47.8355 191.829 48.1499 190.739 48.7789C189.691 49.4079 188.873 50.3094 188.286 51.4834C187.699 52.6155 187.405 53.9573 187.405 55.5087V57.3327C187.405 59.0099 187.741 60.4565 188.412 61.6725C189.125 62.8885 190.131 63.8319 191.431 64.5028C192.731 65.1317 194.282 65.4462 196.085 65.4462C197.762 65.4462 199.188 65.2156 200.362 64.7544C201.578 64.2512 202.773 63.4964 203.947 62.4901L210.237 69.0313C208.601 70.8343 206.589 72.218 204.199 73.1824C201.809 74.1048 198.978 74.5661 195.708 74.5661ZM218.199 74V39.9106H229.583V49.8481L227.885 47.0178C228.891 44.4601 230.527 42.5522 232.791 41.2943C235.055 39.9945 237.802 39.3446 241.03 39.3446V50.0997C240.485 50.0158 240.003 49.9739 239.584 49.9739C239.206 49.932 238.787 49.911 238.326 49.911C235.894 49.911 233.923 50.5819 232.414 51.9237C230.904 53.2235 230.149 55.362 230.149 58.339V74H218.199ZM245.962 74V39.9106H257.912V74H245.962ZM251.937 36.1369C249.756 36.1369 247.995 35.5289 246.654 34.3129C245.312 33.097 244.641 31.5875 244.641 29.7845C244.641 27.9814 245.312 26.472 246.654 25.256C247.995 24.04 249.756 23.432 251.937 23.432C254.117 23.432 255.878 24.019 257.22 25.1931C258.562 26.3252 259.233 27.7928 259.233 29.5958C259.233 31.4826 258.562 33.055 257.22 34.3129C255.92 35.5289 254.159 36.1369 251.937 36.1369ZM280.521 74.5661C277.418 74.5661 274.588 73.8532 272.03 72.4276C269.515 70.9601 267.502 68.9264 265.992 66.3267C264.483 63.6851 263.728 60.5404 263.728 56.8924C263.728 53.2864 264.483 50.1836 265.992 47.5839C267.502 44.9423 269.515 42.9087 272.03 41.483C274.588 40.0574 277.418 39.3446 280.521 39.3446C283.456 39.3446 285.93 39.9735 287.943 41.2314C289.998 42.4893 291.549 44.4181 292.597 47.0178C293.645 49.6175 294.17 52.909 294.17 56.8924C294.17 60.9597 293.666 64.2931 292.66 66.8928C291.654 69.4925 290.144 71.4213 288.132 72.6792C286.119 73.9371 283.582 74.5661 280.521 74.5661ZM283.037 65.0688C284.379 65.0688 285.574 64.7544 286.622 64.1254C287.712 63.4964 288.572 62.574 289.201 61.358C289.83 60.1001 290.144 58.6116 290.144 56.8924C290.144 55.1733 289.83 53.7267 289.201 52.5526C288.572 51.3367 287.712 50.4142 286.622 49.7852C285.574 49.1563 284.379 48.8418 283.037 48.8418C281.653 48.8418 280.416 49.1563 279.326 49.7852C278.278 50.4142 277.439 51.3367 276.81 52.5526C276.181 53.7267 275.867 55.1733 275.867 56.8924C275.867 58.6116 276.181 60.1001 276.81 61.358C277.439 62.574 278.278 63.4964 279.326 64.1254C280.416 64.7544 281.653 65.0688 283.037 65.0688ZM290.522 74V68.1507L290.585 56.8924L289.956 45.6341V27.3315H301.906V74H290.522ZM309.594 74V39.9106H321.544V74H309.594ZM315.569 36.1369C313.389 36.1369 311.628 35.5289 310.286 34.3129C308.944 33.097 308.273 31.5875 308.273 29.7845C308.273 27.9814 308.944 26.472 310.286 25.256C311.628 24.04 313.389 23.432 315.569 23.432C317.75 23.432 319.511 24.019 320.853 25.1931C322.194 26.3252 322.865 27.7928 322.865 29.5958C322.865 31.4826 322.194 33.055 320.853 34.3129C319.553 35.5289 317.792 36.1369 315.569 36.1369ZM350.129 74V67.6476L349.311 66.0752V54.3766C349.311 52.4897 348.724 51.0431 347.55 50.0368C346.418 48.9886 344.594 48.4644 342.078 48.4644C340.443 48.4644 338.787 48.737 337.11 49.2821C335.432 49.7852 334.007 50.498 332.833 51.4205L328.807 43.307C330.736 42.0491 333.042 41.0847 335.726 40.4138C338.451 39.701 341.156 39.3446 343.839 39.3446C349.374 39.3446 353.651 40.6234 356.67 43.1812C359.731 45.697 361.261 49.6594 361.261 55.0684V74H350.129ZM340.066 74.5661C337.34 74.5661 335.034 74.1048 333.147 73.1824C331.26 72.2599 329.814 71.002 328.807 69.4086C327.843 67.8153 327.361 66.0332 327.361 64.0625C327.361 61.966 327.885 60.163 328.933 58.6535C330.023 57.1021 331.68 55.928 333.902 55.1313C336.124 54.2927 338.996 53.8734 342.519 53.8734H350.569V60.1001H344.154C342.225 60.1001 340.862 60.4146 340.066 61.0435C339.311 61.6725 338.934 62.5111 338.934 63.5593C338.934 64.6076 339.332 65.4462 340.129 66.0752C340.925 66.7041 342.015 67.0186 343.399 67.0186C344.699 67.0186 345.873 66.7041 346.921 66.0752C348.011 65.4043 348.808 64.398 349.311 63.0562L350.947 67.4589C350.318 69.807 349.081 71.589 347.236 72.805C345.433 73.979 343.043 74.5661 340.066 74.5661ZM391.007 39.3446C393.648 39.3446 396.038 39.8897 398.177 40.9799C400.315 42.0281 401.992 43.6634 403.208 45.8857C404.466 48.108 405.095 50.9802 405.095 54.5024V74H393.145V56.4522C393.145 54.0202 392.642 52.2591 391.636 51.1689C390.671 50.0368 389.308 49.4707 387.547 49.4707C386.289 49.4707 385.136 49.7643 384.088 50.3513C383.04 50.8964 382.222 51.756 381.635 52.93C381.048 54.1041 380.755 55.6345 380.755 57.5214V74H368.804V39.9106H380.189V49.5965L377.987 46.7662C379.287 44.2924 381.069 42.4474 383.333 41.2314C385.598 39.9735 388.155 39.3446 391.007 39.3446Z" fill="#414141"/>
<g clip-path="url(#clip0_6713_2330)">
<rect x="13.2441" y="41.3125" width="77.6272" height="77.6272" rx="38.8136" transform="rotate(-21.1323 13.2441 41.3125)" fill="url(#paint0_linear_6713_2330)" fill-opacity="0.3"/>
<path fill-rule="evenodd" clip-rule="evenodd" d="M51.6841 32.8097C47.6428 34.3718 43.9487 36.7145 40.8128 39.7042C37.6769 42.6939 35.1605 46.2719 33.4074 50.2341C31.6543 54.1962 30.6988 58.4649 30.5953 62.7963C30.4919 67.1278 31.2427 71.4372 32.8047 75.4785C34.3667 79.5198 36.7095 83.2139 39.6991 86.3498C42.6888 89.4857 46.2669 92.0021 50.229 93.7552C54.1912 95.5083 58.4599 96.4639 62.7913 96.5673C67.1227 96.6707 71.4322 95.9199 75.4735 94.3579C83.6353 91.2032 90.2096 84.9355 93.7501 76.9336C97.2907 68.9316 97.5075 59.8509 94.3529 51.6891C91.1982 43.5274 84.9305 36.953 76.9285 33.4125C68.9266 29.8719 59.8459 29.6551 51.6841 32.8097ZM27.3744 77.5774C23.6631 67.9754 23.9182 57.2924 28.0835 47.8784C32.2488 38.4645 39.9832 31.0908 49.5852 27.3795C59.1872 23.6682 69.8702 23.9232 79.2842 28.0885C88.6981 32.2539 96.0718 39.9883 99.7831 49.5903C103.494 59.1922 103.239 69.8753 99.0741 79.2892C94.9087 88.7032 87.1743 96.0769 77.5724 99.7882C67.9704 103.5 57.2873 103.244 47.8734 99.0791C38.4594 94.9138 31.0858 87.1794 27.3744 77.5774Z" fill="url(#paint1_linear_6713_2330)"/>
<path fill-rule="evenodd" clip-rule="evenodd" d="M41.0227 39.4932C44.1117 36.5965 47.7327 34.3258 51.6856 32.8067C55.6326 31.2724 59.8395 30.5175 64.0737 30.5837C65.9686 31.5203 67.8329 32.7412 69.614 34.1787C72.947 36.8699 76.1072 40.4097 78.89 44.6093C80.6334 44.3923 82.29 44.2615 83.8598 44.2169C86.3182 44.1452 88.6022 44.2814 90.6147 44.6587C91.7188 46.2349 92.6872 47.9221 93.5199 49.7203C93.0007 49.4126 92.4492 49.1633 91.8752 48.9768C89.9443 48.322 87.2729 48.0016 83.9728 48.1C83.06 48.1249 82.1115 48.1825 81.1275 48.273C83.7141 52.8985 85.7115 57.8296 87.0732 62.9513C87.7851 62.4067 88.4552 61.8637 89.0833 61.3222C91.5918 59.1755 93.3533 57.1418 94.3419 55.3586C94.6747 54.7497 94.9137 54.1976 95.0589 53.7022C95.6521 55.593 96.0702 57.4929 96.3132 59.4019C94.9171 61.1838 93.3401 62.8164 91.6076 64.2733C90.4501 65.2587 89.2509 66.1941 88.0134 67.0769C89.1106 72.8021 89.2635 78.2773 88.5187 83.0893C88.3802 83.9961 88.2037 84.8967 87.9896 85.7887C86.1399 87.8214 84.0233 89.6409 81.6627 91.1814C83.1043 88.9112 84.1428 85.9842 84.6827 82.4944C85.2872 78.6151 85.2395 74.1622 84.489 69.4362C80.4622 71.9501 75.7657 74.3452 70.6322 76.4392L77.2642 93.5975C76.0853 94.1354 74.8756 94.603 73.6415 94.9977L67.0095 77.8394C62.1465 79.6374 57.1399 81.02 52.0435 81.9725C54.6642 85.98 57.6261 89.3022 60.684 91.7703C63.4306 93.9898 66.1677 95.4575 68.7615 96.1679C66.0142 96.6084 63.222 96.6972 60.4523 96.4323C59.694 95.9162 58.9576 95.3684 58.2453 94.7905C54.4578 91.7303 50.8885 87.5755 47.85 82.6007C46.3392 82.7803 44.8214 82.8951 43.3007 82.9447C41.0387 83.0317 38.7737 82.8842 36.542 82.5044C35.4263 80.9063 34.4554 79.2119 33.6407 77.4414C34.0789 77.7113 34.6271 77.9591 35.2853 78.1849C37.2163 78.8397 39.8877 79.16 43.1878 79.0616C44.0169 79.0398 44.8775 78.9898 45.7696 78.9114C43.3335 74.2065 41.4957 69.2152 40.2992 64.0538C39.5101 64.6487 38.769 65.2426 38.0758 65.8356C35.5688 67.9861 33.8073 70.0198 32.8187 71.8031C32.4834 72.4129 32.2431 72.9655 32.0978 73.4609C31.5097 71.5682 31.0929 69.6678 30.8474 67.7598C32.2435 65.9778 33.8204 64.3453 35.553 62.8883C36.7432 61.869 38.0558 60.8521 39.491 59.8377C38.7274 54.862 38.6839 50.1131 39.342 45.8837C39.6677 43.6987 40.2313 41.5558 41.0227 39.4932ZM67.1767 37.2027C69.7816 39.3056 72.3213 42.0355 74.6375 45.2779C69.7066 46.2291 64.8617 47.5818 60.1511 49.3222L53.6343 32.462C57.6538 31.7474 62.401 33.3473 67.1767 37.2027ZM76.9503 48.807C71.6996 49.704 66.5434 51.0867 61.5484 52.9373L69.232 72.8165C74.7203 70.5722 79.6312 67.9932 83.6724 65.3463C83.0783 62.8468 82.2891 60.3202 81.305 57.7665C80.0569 54.5374 78.5832 51.5316 76.9503 48.807ZM50.0116 33.8623L56.5254 50.7148C51.8678 52.5965 47.3718 54.8558 43.0824 57.4701C42.6196 53.5113 42.6593 49.7844 43.1751 46.4709C44.114 40.4112 46.5578 36.0405 50.0116 33.8623ZM57.9242 54.3337C52.983 56.3237 48.2373 58.7682 43.7482 61.6358C44.4095 64.896 45.3472 68.094 46.5513 71.195C47.5365 73.7439 48.6603 76.1514 49.8956 78.3928C54.668 77.6375 60.033 76.2446 65.6063 74.2091L57.9242 54.3337Z" fill="url(#paint2_linear_6713_2330)"/>
</g>
<defs>
<linearGradient id="paint0_linear_6713_2330" x1="52.0577" y1="41.3125" x2="52.0577" y2="118.94" gradientUnits="userSpaceOnUse">
<stop offset="0.5" stop-color="#414141"/>
<stop offset="1" stop-color="#FA756D"/>
</linearGradient>
<linearGradient id="paint1_linear_6713_2330" x1="49.5852" y1="27.3795" x2="77.5724" y2="99.7882" gradientUnits="userSpaceOnUse">
<stop offset="0.5" stop-color="#414141"/>
<stop offset="1" stop-color="#FA756D"/>
</linearGradient>
<linearGradient id="paint2_linear_6713_2330" x1="51.6837" y1="32.8074" x2="75.4717" y2="94.352" gradientUnits="userSpaceOnUse">
<stop offset="0.5" stop-color="#414141"/>
<stop offset="1" stop-color="#FA756D"/>
</linearGradient>
<clipPath id="clip0_6713_2330">
<rect width="98.3271" height="98.3271" fill="white" transform="translate(0 35.4492) rotate(-21.1323)"/>
</clipPath>
</defs>
</svg>
