<svg width="41" height="41" viewBox="0 0 41 41" fill="none" xmlns="http://www.w3.org/2000/svg">
<g clip-path="url(#clip0_4713_2327)">
<path d="M3.41699 20.5001C3.41699 29.9349 11.0655 37.5834 20.5003 37.5834C29.9352 37.5834 37.5837 29.9349 37.5837 20.5001C37.5837 11.0652 29.9352 3.41675 20.5003 3.41675C11.0655 3.41675 3.41699 11.0652 3.41699 20.5001Z" fill="#FA756D" fill-opacity="0.32"/>
<path fill-rule="evenodd" clip-rule="evenodd" d="M16.3817 16.3814C14.1937 18.5694 13.7153 23.7548 13.7153 23.7548C13.4215 26.5493 14.4511 27.579 17.2456 27.2851C17.2456 27.2851 22.431 26.8067 24.619 24.6187C26.807 22.4307 27.2853 17.2454 27.2853 17.2454C27.5792 14.4509 26.5495 13.4212 23.755 13.7151C23.755 13.7151 18.5697 14.1934 16.3817 16.3814ZM18.792 20.5001C18.792 21.4436 19.5568 22.2084 20.5003 22.2084C21.4438 22.2084 22.2087 21.4436 22.2087 20.5001V20.4984C22.2087 19.5549 21.4438 18.79 20.5003 18.79C19.5568 18.79 18.792 19.5549 18.792 20.4984V20.5001Z" fill="#EA4335"/>
</g>
<defs>
<clipPath id="clip0_4713_2327">
<rect width="41" height="41" fill="white"/>
</clipPath>
</defs>
</svg>
