<svg width="634" height="133" viewBox="0 0 634 133" fill="none" xmlns="http://www.w3.org/2000/svg">
<path opacity="0.32" d="M10.6361 68.8167C10.6361 98.1876 34.4459 121.997 63.8167 121.997C93.1876 121.997 116.997 98.1876 116.997 68.8167C116.997 39.4459 93.1876 15.6361 63.8167 15.6361C34.4459 15.6361 10.6361 39.4459 10.6361 68.8167Z" fill="#FA756D" fill-opacity="0.8"/>
<path fill-rule="evenodd" clip-rule="evenodd" d="M50.9953 55.9953C44.1841 62.8066 42.695 78.9487 42.695 78.9487C41.7801 87.648 44.9855 90.8533 53.6848 89.9384C53.6848 89.9384 69.8269 88.4494 76.6382 81.6382C83.4495 74.8269 84.9385 58.6848 84.9385 58.6848C85.8533 49.9855 82.648 46.7802 73.9487 47.695C73.9487 47.695 57.8066 49.184 50.9953 55.9953ZM58.4987 68.8167C58.4987 71.7538 60.8797 74.1348 63.8168 74.1348C66.7538 74.1348 69.1348 71.7538 69.1348 68.8167V68.8114C69.1348 65.8743 66.7538 63.4934 63.8168 63.4934C60.8797 63.4934 58.4987 65.8743 58.4987 68.8114V68.8167Z" fill="#FA756D"/>
<path d="M148.321 54.5152H157.085C157.205 56.6163 158.766 57.8769 161.587 57.8769C164.469 57.8769 165.79 56.8564 165.79 55.2956C165.79 54.3951 165.309 53.4347 163.088 52.9544L157.565 51.7538C152.043 50.5532 149.341 48.152 149.341 42.8693C149.341 36.6261 154.684 33.0243 161.888 33.0243C168.851 33.0243 173.714 37.1064 173.714 43.1695H164.949C164.949 41.1284 163.688 39.7477 161.467 39.7477C159.366 39.7477 158.046 40.8283 158.046 42.4491C158.046 43.8298 159.186 44.6102 161.287 45.0904L166.87 46.291C171.793 47.3716 174.494 49.6527 174.494 54.4552C174.494 60.8784 169.031 64.7804 161.227 64.7804C153.303 64.7804 148.321 60.5783 148.321 54.5152ZM191.451 64H182.206V41.6687H176.503V33.9848H182.206V24.6801H191.451V33.9848H197.154V41.6687H191.451V64ZM221.238 33.9848H230.483V64H221.779L221.178 60.6383C219.317 63.0995 215.595 64.7804 211.994 64.7804C205.15 64.7804 200.948 60.2181 200.948 52.8344V33.9848H210.193V49.4726C210.193 54.3951 211.874 56.5562 215.656 56.5562C219.618 56.5562 221.238 54.5152 221.238 49.5927V33.9848ZM249.44 64.7804C240.796 64.7804 235.213 58.6573 235.213 49.1725C235.213 39.6277 240.916 33.0243 250.041 33.0243C253.763 33.0243 257.304 34.5251 259.045 36.7462V18.7371H268.29V64H259.586L259.105 60.1581C257.484 62.9195 253.763 64.7804 249.44 64.7804ZM251.662 56.3161C255.984 56.3161 258.985 53.3146 258.985 48.8123C258.985 44.31 255.984 41.3085 251.662 41.3085C247.279 41.3085 244.518 44.3701 244.518 48.8123C244.518 53.2546 247.279 56.3161 251.662 56.3161ZM272.831 78.4073V70.6634H277.934C281.055 70.6634 282.376 69.7029 283.577 66.4612L284.117 65.0205L272.051 33.9848H281.956L288.499 53.2546L295.763 33.9848H305.368L290.12 70.5433C287.599 76.6664 284.237 79.2477 278.954 79.2477C276.733 79.2477 274.632 78.9476 272.831 78.4073ZM323.441 48.8723C323.441 39.6277 329.805 33.0243 338.809 33.0243C347.694 33.0243 353.577 37.8868 354.177 45.7508H344.872C344.212 42.7492 342.351 41.3085 339.169 41.3085C335.267 41.3085 332.746 44.25 332.746 48.8723C332.746 53.6748 335.087 56.4962 339.049 56.4962C342.291 56.4962 344.272 54.9954 344.872 52.054H354.177C353.577 59.6178 347.454 64.7804 339.049 64.7804C329.565 64.7804 323.441 58.4772 323.441 48.8723ZM357.619 48.9324C357.619 39.4476 364.582 33.0844 374.187 33.0844C383.732 33.0844 390.696 39.4476 390.696 48.9324C390.696 58.4172 383.732 64.7204 374.187 64.7204C364.582 64.7204 357.619 58.4172 357.619 48.9324ZM366.924 48.8723C366.924 53.4347 369.865 56.4362 374.187 56.4362C378.449 56.4362 381.391 53.4347 381.391 48.8723C381.391 44.3701 378.449 41.3685 374.187 41.3685C369.865 41.3685 366.924 44.3701 366.924 48.8723ZM405.3 64H396.055V33.9848H404.7L405.3 37.1064C406.801 35.0053 409.742 33.0243 414.064 33.0243C418.567 33.0243 421.448 35.1254 423.189 38.307C424.75 35.1254 428.292 33.0243 432.614 33.0243C440.358 33.0243 444.2 37.5266 444.2 44.3701V64H434.955V46.9514C434.955 43.1695 432.974 41.3685 430.032 41.3685C427.391 41.3685 424.75 42.8093 424.75 47.9119V64H415.505V46.9514C415.505 43.2295 413.584 41.4286 410.643 41.4286C408.001 41.4286 405.3 42.8693 405.3 47.9119V64ZM450.809 78.4073V33.9848H459.514L459.994 37.6467C461.675 34.8853 465.457 33.0243 469.719 33.0243C478.063 33.0243 483.886 38.8473 483.886 48.5122C483.886 57.997 478.724 64.8404 469.779 64.8404C465.637 64.8404 461.795 63.2796 460.054 60.9985V78.4073H450.809ZM460.114 48.9924C460.114 53.4947 463.116 56.4962 467.438 56.4962C471.82 56.4962 474.582 53.4347 474.582 48.9924C474.582 44.5502 471.82 41.4886 467.438 41.4886C463.116 41.4886 460.114 44.4901 460.114 48.9924ZM498.272 64.7804C491.909 64.7804 487.947 61.0585 487.947 55.1755C487.947 49.6527 491.849 46.231 499.053 45.6907L507.457 45.0304V44.5502C507.457 41.6087 505.656 40.0479 502.354 40.0479C498.453 40.0479 496.351 41.5486 496.351 44.25H488.668C488.668 37.4666 494.25 33.0243 502.835 33.0243C511.539 33.0243 516.462 37.8868 516.462 46.4711V64H508.297L507.697 60.038C506.737 62.7994 502.775 64.7804 498.272 64.7804ZM501.514 57.9369C505.056 57.9369 507.517 56.1961 507.517 52.7743V51.1535L502.835 51.5737C498.813 51.9339 497.372 52.8344 497.372 54.7553C497.372 56.9164 498.693 57.9369 501.514 57.9369ZM520.931 54.5152H529.696C529.816 56.6163 531.376 57.8769 534.198 57.8769C537.079 57.8769 538.4 56.8564 538.4 55.2956C538.4 54.3951 537.92 53.4347 535.699 52.9544L530.176 51.7538C524.653 50.5532 521.952 48.152 521.952 42.8693C521.952 36.6261 527.294 33.0243 534.498 33.0243C541.461 33.0243 546.324 37.1064 546.324 43.1695H537.559C537.559 41.1284 536.299 39.7477 534.078 39.7477C531.977 39.7477 530.656 40.8283 530.656 42.4491C530.656 43.8298 531.797 44.6102 533.898 45.0904L539.48 46.291C544.403 47.3716 547.104 49.6527 547.104 54.4552C547.104 60.8784 541.642 64.7804 533.838 64.7804C525.914 64.7804 520.931 60.5783 520.931 54.5152ZM549.774 54.5152H558.538C558.658 56.6163 560.219 57.8769 563.041 57.8769C565.922 57.8769 567.243 56.8564 567.243 55.2956C567.243 54.3951 566.762 53.4347 564.541 52.9544L559.018 51.7538C553.496 50.5532 550.794 48.152 550.794 42.8693C550.794 36.6261 556.137 33.0243 563.341 33.0243C570.304 33.0243 575.167 37.1064 575.167 43.1695H566.402C566.402 41.1284 565.142 39.7477 562.92 39.7477C560.819 39.7477 559.499 40.8283 559.499 42.4491C559.499 43.8298 560.639 44.6102 562.74 45.0904L568.323 46.291C573.246 47.3716 575.947 49.6527 575.947 54.4552C575.947 60.8784 570.484 64.7804 562.68 64.7804C554.756 64.7804 549.774 60.5783 549.774 54.5152Z" fill="#414141"/>
<path d="M161.739 118.639C154.065 118.639 148.576 113.049 148.576 105.222C148.576 97.293 153.912 91.7532 161.587 91.7532C169.566 91.7532 174.547 96.9881 174.547 105.272V107.255L156.098 107.356C156.555 110.711 158.435 112.286 161.892 112.286C164.839 112.286 166.923 111.219 167.482 109.389H174.648C173.734 115.031 168.702 118.639 161.739 118.639ZM161.637 98.1062C158.537 98.1062 156.809 99.4785 156.199 102.528H166.771C166.771 99.8343 164.788 98.1062 161.637 98.1062ZM185.108 117.979L175.198 92.5664H183.634L186.735 101.461C188.005 105.171 189.022 108.373 189.225 109.542C189.53 108.068 190.648 104.764 191.919 101.461L195.324 92.5664H203.456L192.834 117.979H185.108ZM217.179 118.639C209.505 118.639 204.016 113.049 204.016 105.222C204.016 97.293 209.352 91.7532 217.027 91.7532C225.006 91.7532 229.987 96.9881 229.987 105.272V107.255L211.538 107.356C211.995 110.711 213.876 112.286 217.332 112.286C220.279 112.286 222.363 111.219 222.922 109.389H230.089C229.174 115.031 224.142 118.639 217.179 118.639ZM217.078 98.1062C213.977 98.1062 212.249 99.4785 211.639 102.528H222.211C222.211 99.8343 220.229 98.1062 217.078 98.1062ZM242.449 117.979H234.622V92.5664H241.991L242.5 95.2092C244.075 93.0238 246.972 91.7532 250.276 91.7532C256.324 91.7532 259.831 95.6158 259.831 102.274V117.979H252.004V104.154C252.004 100.952 250.225 98.8686 247.531 98.8686C244.431 98.8686 242.449 100.902 242.449 104.053V117.979ZM275.71 117.979H267.884V99.0719H263.055V92.5664H267.884V84.6886H275.71V92.5664H280.539V99.0719H275.71V117.979ZM282.227 109.948H289.647C289.749 111.727 291.07 112.794 293.459 112.794C295.898 112.794 297.017 111.93 297.017 110.609C297.017 109.847 296.61 109.033 294.729 108.627L290.054 107.61C285.378 106.594 283.091 104.561 283.091 100.088C283.091 94.8027 287.614 91.7532 293.713 91.7532C299.609 91.7532 303.725 95.2092 303.725 100.342H296.305C296.305 98.6145 295.238 97.4455 293.357 97.4455C291.578 97.4455 290.46 98.3604 290.46 99.7326C290.46 100.902 291.426 101.562 293.205 101.969L297.931 102.985C302.099 103.9 304.386 105.832 304.386 109.897C304.386 115.336 299.761 118.639 293.154 118.639C286.445 118.639 282.227 115.082 282.227 109.948Z" fill="#FA756D"/>
</svg>
