<svg width="556" height="128" viewBox="0 0 556 128" fill="none" xmlns="http://www.w3.org/2000/svg">
<path opacity="0.32" d="M10.6361 63.8167C10.6361 93.1876 34.4459 116.997 63.8167 116.997C93.1876 116.997 116.997 93.1876 116.997 63.8167C116.997 34.4459 93.1876 10.6361 63.8167 10.6361C34.4459 10.6361 10.6361 34.4459 10.6361 63.8167Z" fill="#FA756D" fill-opacity="0.8"/>
<path fill-rule="evenodd" clip-rule="evenodd" d="M50.9954 50.9953C44.1841 57.8066 42.6951 73.9487 42.6951 73.9487C41.7802 82.648 44.9855 85.8533 53.6849 84.9384C53.6849 84.9384 69.827 83.4494 76.6382 76.6382C83.4495 69.8269 84.9385 53.6848 84.9385 53.6848C85.8534 44.9855 82.648 41.7802 73.9487 42.695C73.9487 42.695 57.8067 44.184 50.9954 50.9953ZM58.4987 63.8167C58.4987 66.7538 60.8797 69.1348 63.8168 69.1348C66.7539 69.1348 69.1349 66.7538 69.1349 63.8167V63.8114C69.1349 60.8743 66.7539 58.4934 63.8168 58.4934C60.8797 58.4934 58.4987 60.8743 58.4987 63.8114V63.8167Z" fill="#FA756D"/>
<path d="M144.154 68.1203H152.236C152.347 70.0578 153.786 71.2204 156.388 71.2204C159.045 71.2204 160.263 70.2793 160.263 68.8399C160.263 68.0095 159.82 67.1238 157.772 66.6809L152.679 65.5737C147.586 64.4666 145.095 62.2522 145.095 57.3806C145.095 51.6233 150.022 48.3017 156.665 48.3017C163.087 48.3017 167.571 52.0661 167.571 57.6574H159.488C159.488 55.7752 158.326 54.5019 156.277 54.5019C154.34 54.5019 153.122 55.4984 153.122 56.9931C153.122 58.2663 154.174 58.986 156.111 59.4289L161.26 60.5361C165.799 61.5325 168.29 63.6362 168.29 68.0649C168.29 73.9883 163.253 77.5867 156.056 77.5867C148.748 77.5867 144.154 73.7115 144.154 68.1203ZM183.927 76.867H175.402V56.2734H170.143V49.1875H175.402V40.6068H183.927V49.1875H189.187V56.2734H183.927V76.867ZM211.397 49.1875H219.923V76.867H211.895L211.342 73.7669C209.626 76.0366 206.194 77.5867 202.872 77.5867C196.561 77.5867 192.686 73.3794 192.686 66.5702V49.1875H201.211V63.4701C201.211 68.0095 202.761 70.0025 206.249 70.0025C209.903 70.0025 211.397 68.1203 211.397 63.5808V49.1875ZM237.405 77.5867C229.433 77.5867 224.285 71.94 224.285 63.1933C224.285 54.3912 229.544 48.3017 237.958 48.3017C241.391 48.3017 244.657 49.6857 246.262 51.734V35.1262H254.788V76.867H246.76L246.318 73.324C244.823 75.8705 241.391 77.5867 237.405 77.5867ZM239.453 69.781C243.439 69.781 246.207 67.0131 246.207 62.8612C246.207 58.7092 243.439 55.9413 239.453 55.9413C235.412 55.9413 232.865 58.7646 232.865 62.8612C232.865 66.9577 235.412 69.781 239.453 69.781ZM258.975 90.1532V83.0119H263.681C266.56 83.0119 267.777 82.1261 268.885 79.1367L269.383 77.8081L258.256 49.1875H267.39L273.424 66.9577L280.123 49.1875H288.98L274.919 82.9011C272.594 88.5478 269.494 90.9282 264.622 90.9282C262.574 90.9282 260.636 90.6514 258.975 90.1532ZM305.647 62.9165C305.647 54.3912 311.515 48.3017 319.819 48.3017C328.012 48.3017 333.438 52.7858 333.991 60.0378H325.411C324.802 57.2699 323.086 55.9413 320.151 55.9413C316.553 55.9413 314.228 58.6539 314.228 62.9165C314.228 67.3452 316.387 69.9471 320.041 69.9471C323.03 69.9471 324.857 68.5631 325.411 65.8505H333.991C333.438 72.8258 327.791 77.5867 320.041 77.5867C311.294 77.5867 305.647 71.774 305.647 62.9165ZM337.165 62.9719C337.165 54.2251 343.587 48.3571 352.444 48.3571C361.247 48.3571 367.668 54.2251 367.668 62.9719C367.668 71.7186 361.247 77.5313 352.444 77.5313C343.587 77.5313 337.165 71.7186 337.165 62.9719ZM345.746 62.9165C345.746 67.1238 348.459 69.8918 352.444 69.8918C356.375 69.8918 359.088 67.1238 359.088 62.9165C359.088 58.7646 356.375 55.9966 352.444 55.9966C348.459 55.9966 345.746 58.7646 345.746 62.9165ZM381.136 76.867H372.611V49.1875H380.582L381.136 52.0661C382.52 50.1286 385.233 48.3017 389.218 48.3017C393.37 48.3017 396.028 50.2393 397.633 53.1733C399.072 50.2393 402.339 48.3017 406.324 48.3017C413.466 48.3017 417.009 52.4536 417.009 58.7646V76.867H408.483V61.145C408.483 57.6574 406.657 55.9966 403.944 55.9966C401.508 55.9966 399.072 57.3252 399.072 62.0308V76.867H390.547V61.145C390.547 57.7128 388.776 56.052 386.063 56.052C383.627 56.052 381.136 57.3806 381.136 62.0308V76.867ZM423.104 90.1532V49.1875H431.131L431.574 52.5644C433.124 50.0178 436.612 48.3017 440.542 48.3017C448.237 48.3017 453.607 53.6715 453.607 62.5844C453.607 71.3311 448.846 77.642 440.598 77.642C436.778 77.642 433.235 76.2027 431.63 74.099V90.1532H423.104ZM431.685 63.0272C431.685 67.1792 434.453 69.9471 438.439 69.9471C442.48 69.9471 445.026 67.1238 445.026 63.0272C445.026 58.9307 442.48 56.1073 438.439 56.1073C434.453 56.1073 431.685 58.8753 431.685 63.0272ZM466.874 77.5867C461.006 77.5867 457.352 74.1544 457.352 68.7292C457.352 63.6362 460.95 60.4807 467.594 59.9825L475.344 59.3735V58.9307C475.344 56.2181 473.683 54.7787 470.638 54.7787C467.04 54.7787 465.102 56.1627 465.102 58.6539H458.016C458.016 52.3983 463.165 48.3017 471.081 48.3017C479.108 48.3017 483.648 52.7858 483.648 60.7021V76.867H476.119L475.565 73.2133C474.679 75.7598 471.026 77.5867 466.874 77.5867ZM469.863 71.2757C473.129 71.2757 475.399 69.6703 475.399 66.5149V65.0202L471.081 65.4077C467.372 65.7398 466.043 66.5702 466.043 68.3417C466.043 70.3346 467.261 71.2757 469.863 71.2757ZM487.769 68.1203H495.852C495.962 70.0578 497.402 71.2204 500.004 71.2204C502.661 71.2204 503.879 70.2793 503.879 68.8399C503.879 68.0095 503.436 67.1238 501.388 66.6809L496.295 65.5737C491.202 64.4666 488.71 62.2522 488.71 57.3806C488.71 51.6233 493.637 48.3017 500.28 48.3017C506.702 48.3017 511.186 52.0661 511.186 57.6574H503.104C503.104 55.7752 501.941 54.5019 499.893 54.5019C497.955 54.5019 496.737 55.4984 496.737 56.9931C496.737 58.2663 497.789 58.986 499.727 59.4289L504.875 60.5361C509.415 61.5325 511.906 63.6362 511.906 68.0649C511.906 73.9883 506.868 77.5867 499.672 77.5867C492.364 77.5867 487.769 73.7115 487.769 68.1203ZM514.368 68.1203H522.45C522.561 70.0578 524 71.2204 526.602 71.2204C529.259 71.2204 530.477 70.2793 530.477 68.8399C530.477 68.0095 530.034 67.1238 527.986 66.6809L522.893 65.5737C517.8 64.4666 515.309 62.2522 515.309 57.3806C515.309 51.6233 520.236 48.3017 526.879 48.3017C533.3 48.3017 537.785 52.0661 537.785 57.6574H529.702C529.702 55.7752 528.54 54.5019 526.491 54.5019C524.554 54.5019 523.336 55.4984 523.336 56.9931C523.336 58.2663 524.388 58.986 526.325 59.4289L531.474 60.5361C536.013 61.5325 538.504 63.6362 538.504 68.0649C538.504 73.9883 533.467 77.5867 526.27 77.5867C518.962 77.5867 514.368 73.7115 514.368 68.1203Z" fill="#414141"/>
</svg>
