<svg width="278" height="61" viewBox="0 0 278 61" fill="none" xmlns="http://www.w3.org/2000/svg">
<g clip-path="url(#clip0_6074_3334)">
<path opacity="0.32" d="M5.15757 30.0987C5.15757 43.9513 16.7032 55.181 30.9454 55.181C45.1876 55.181 56.7332 43.9513 56.7332 30.0987C56.7332 16.2461 45.1876 5.01636 30.9454 5.01636C16.7032 5.01636 5.15757 16.2461 5.15757 30.0987Z" fill="#FA756D"/>
<path fill-rule="evenodd" clip-rule="evenodd" d="M24.7282 24.0517C21.4253 27.2642 20.7033 34.8775 20.7033 34.8775C20.2596 38.9805 21.8139 40.4923 26.0323 40.0608C26.0323 40.0608 33.8598 39.3585 37.1627 36.146C40.4655 32.9335 41.1876 25.3202 41.1876 25.3202C41.6312 21.2172 40.0769 19.7054 35.8585 20.1369C35.8585 20.1369 28.031 20.8392 24.7282 24.0517ZM28.3666 30.0988C28.3666 31.4841 29.5212 32.6071 30.9454 32.6071C32.3696 32.6071 33.5242 31.4841 33.5242 30.0988V30.0963C33.5242 28.7111 32.3696 27.5881 30.9454 27.5881C29.5212 27.5881 28.3666 28.7111 28.3666 30.0963V30.0988Z" fill="#FA756D"/>
</g>
<path d="M75.5387 56.1875C74.326 56.1875 73.2836 55.9394 72.4116 55.4433C71.5447 54.9422 70.8757 54.2456 70.4046 53.3535C69.9385 52.4565 69.7055 51.4167 69.7055 50.234C69.7055 49.0463 69.9385 48.0064 70.4046 47.1144C70.8757 46.2174 71.5447 45.5208 72.4116 45.0247C73.2836 44.5235 74.326 44.273 75.5387 44.273C76.7515 44.273 77.7913 44.5235 78.6583 45.0247C79.5303 45.5208 80.1993 46.2174 80.6654 47.1144C81.1364 48.0064 81.372 49.0463 81.372 50.234C81.372 51.4167 81.1364 52.4565 80.6654 53.3535C80.1993 54.2456 79.5303 54.9422 78.6583 55.4433C77.7913 55.9394 76.7515 56.1875 75.5387 56.1875ZM75.5613 53.4137C76.0023 53.4137 76.3756 53.2784 76.6813 53.0078C76.987 52.7372 77.22 52.3613 77.3804 51.8802C77.5458 51.3991 77.6285 50.8429 77.6285 50.2114C77.6285 49.57 77.5458 49.0087 77.3804 48.5276C77.22 48.0465 76.987 47.6707 76.6813 47.4C76.3756 47.1294 76.0023 46.9941 75.5613 46.9941C75.1052 46.9941 74.7194 47.1294 74.4037 47.4C74.093 47.6707 73.8549 48.0465 73.6895 48.5276C73.5292 49.0087 73.449 49.57 73.449 50.2114C73.449 50.8429 73.5292 51.3991 73.6895 51.8802C73.8549 52.3613 74.093 52.7372 74.4037 53.0078C74.7194 53.2784 75.1052 53.4137 75.5613 53.4137ZM83.255 55.9695V44.4233H86.8256V46.5281H86.9459C87.1563 45.7663 87.4996 45.2001 87.9757 44.8292C88.4518 44.4534 89.0055 44.2654 89.637 44.2654C89.8073 44.2654 89.9827 44.278 90.1632 44.303C90.3436 44.3231 90.5114 44.3556 90.6668 44.4007V47.5955C90.4914 47.5354 90.2609 47.4877 89.9752 47.4527C89.6946 47.4176 89.444 47.4 89.2235 47.4C88.7875 47.4 88.3941 47.4978 88.0433 47.6932C87.6976 47.8836 87.4244 48.1518 87.224 48.4975C87.0285 48.8383 86.9308 49.2392 86.9308 49.7003V55.9695H83.255ZM96.9473 60.5398C95.8498 60.5398 94.9102 60.387 94.1284 60.0813C93.3466 59.7756 92.7327 59.3572 92.2867 58.826C91.8407 58.2948 91.5726 57.6934 91.4824 57.0219L94.9628 56.8264C95.0279 57.062 95.1482 57.2674 95.3236 57.4428C95.504 57.6182 95.737 57.7535 96.0227 57.8487C96.3134 57.944 96.6541 57.9916 97.045 57.9916C97.6614 57.9916 98.1701 57.8412 98.571 57.5405C98.9769 57.2449 99.1799 56.7262 99.1799 55.9845V53.9549H99.0521C98.9067 54.3107 98.6862 54.6289 98.3906 54.9096C98.0949 55.1902 97.7266 55.4107 97.2856 55.5711C96.8496 55.7314 96.3484 55.8116 95.7821 55.8116C94.9402 55.8116 94.1685 55.6162 93.4669 55.2253C92.7703 54.8294 92.2115 54.218 91.7906 53.3911C91.3746 52.5592 91.1667 51.4893 91.1667 50.1814C91.1667 48.8333 91.3822 47.7233 91.8131 46.8513C92.2441 45.9743 92.8079 45.3253 93.5045 44.9044C94.2061 44.4834 94.9603 44.273 95.7671 44.273C96.3735 44.273 96.8922 44.3782 97.3231 44.5887C97.7591 44.7941 98.1174 45.0597 98.3981 45.3855C98.6787 45.7112 98.8917 46.0495 99.037 46.4003H99.1423V44.4233H102.803V56.0146C102.803 56.9918 102.558 57.8162 102.066 58.4877C101.575 59.1592 100.889 59.6679 100.007 60.0137C99.1247 60.3645 98.1049 60.5398 96.9473 60.5398ZM97.06 53.1356C97.5061 53.1356 97.8869 53.0178 98.2026 52.7823C98.5184 52.5467 98.7614 52.2085 98.9318 51.7675C99.1022 51.3265 99.1874 50.7978 99.1874 50.1814C99.1874 49.5549 99.1022 49.0162 98.9318 48.5652C98.7664 48.1092 98.5234 47.7584 98.2026 47.5128C97.8869 47.2672 97.5061 47.1445 97.06 47.1445C96.604 47.1445 96.2181 47.2697 95.9024 47.5203C95.5867 47.7709 95.3462 48.1242 95.1808 48.5802C95.0204 49.0312 94.9402 49.565 94.9402 50.1814C94.9402 50.7978 95.0229 51.3265 95.1883 51.7675C95.3537 52.2085 95.5917 52.5467 95.9024 52.7823C96.2181 53.0178 96.604 53.1356 97.06 53.1356ZM108.401 56.1649C107.665 56.1649 107.011 56.0421 106.439 55.7966C105.873 55.546 105.425 55.1702 105.094 54.669C104.768 54.1629 104.605 53.5289 104.605 52.7672C104.605 52.1258 104.718 51.5845 104.944 51.1435C105.169 50.7025 105.48 50.3442 105.876 50.0686C106.272 49.793 106.728 49.585 107.244 49.4447C107.76 49.2994 108.311 49.2016 108.898 49.1515C109.554 49.0914 110.083 49.0287 110.484 48.9636C110.885 48.8934 111.175 48.7957 111.356 48.6704C111.541 48.5401 111.634 48.3572 111.634 48.1217V48.0841C111.634 47.6982 111.501 47.4 111.235 47.1896C110.97 46.9791 110.611 46.8739 110.16 46.8739C109.674 46.8739 109.283 46.9791 108.988 47.1896C108.692 47.4 108.504 47.6907 108.424 48.0615L105.034 47.9413C105.134 47.2397 105.392 46.6133 105.808 46.062C106.229 45.5057 106.805 45.0698 107.537 44.754C108.274 44.4333 109.158 44.273 110.19 44.273C110.927 44.273 111.606 44.3607 112.228 44.536C112.849 44.7064 113.39 44.957 113.851 45.2878C114.312 45.6135 114.668 46.0144 114.919 46.4905C115.174 46.9666 115.302 47.5103 115.302 48.1217V55.9695H111.844V54.3608H111.754C111.549 54.7517 111.285 55.0825 110.965 55.3531C110.649 55.6237 110.276 55.8267 109.845 55.962C109.419 56.0973 108.938 56.1649 108.401 56.1649ZM109.536 53.7595C109.932 53.7595 110.288 53.6793 110.604 53.5189C110.925 53.3586 111.18 53.1381 111.371 52.8574C111.561 52.5718 111.656 52.241 111.656 51.8652V50.7677C111.551 50.8228 111.423 50.8729 111.273 50.918C111.128 50.9631 110.967 51.0057 110.792 51.0458C110.616 51.0859 110.436 51.121 110.251 51.1511C110.065 51.1811 109.887 51.2087 109.717 51.2337C109.371 51.2889 109.075 51.3741 108.83 51.4893C108.589 51.6046 108.404 51.7549 108.274 51.9403C108.148 52.1208 108.086 52.3362 108.086 52.5868C108.086 52.9677 108.221 53.2583 108.492 53.4588C108.767 53.6592 109.116 53.7595 109.536 53.7595ZM121.225 49.3845V55.9695H117.55V44.4233H121.045V46.5431H121.173C121.428 45.8365 121.864 45.2827 122.481 44.8818C123.097 44.4759 123.831 44.273 124.683 44.273C125.495 44.273 126.199 44.4559 126.796 44.8217C127.397 45.1825 127.863 45.6887 128.194 46.3401C128.53 46.9866 128.695 47.7433 128.69 48.6103V55.9695H125.014V49.3319C125.019 48.6905 124.856 48.1893 124.525 47.8285C124.2 47.4677 123.746 47.2873 123.165 47.2873C122.779 47.2873 122.438 47.3725 122.143 47.5429C121.852 47.7082 121.626 47.9463 121.466 48.257C121.311 48.5677 121.23 48.9435 121.225 49.3845ZM130.966 55.9695V44.4233H134.642V55.9695H130.966ZM132.807 43.0777C132.291 43.0777 131.848 42.9074 131.477 42.5666C131.106 42.2208 130.921 41.8049 130.921 41.3188C130.921 40.8377 131.106 40.4267 131.477 40.086C131.848 39.7402 132.291 39.5673 132.807 39.5673C133.329 39.5673 133.772 39.7402 134.138 40.086C134.509 40.4267 134.694 40.8377 134.694 41.3188C134.694 41.8049 134.509 42.2208 134.138 42.5666C133.772 42.9074 133.329 43.0777 132.807 43.0777ZM137.011 55.9695V53.8722L142.363 47.3549V47.2798H137.199V44.4233H146.746V46.7235L141.785 53.0378V53.113H146.926V55.9695H137.011ZM152.557 56.1649C151.82 56.1649 151.166 56.0421 150.595 55.7966C150.028 55.546 149.58 55.1702 149.249 54.669C148.923 54.1629 148.76 53.5289 148.76 52.7672C148.76 52.1258 148.873 51.5845 149.099 51.1435C149.324 50.7025 149.635 50.3442 150.031 50.0686C150.427 49.793 150.883 49.585 151.399 49.4447C151.915 49.2994 152.466 49.2016 153.053 49.1515C153.709 49.0914 154.238 49.0287 154.639 48.9636C155.04 48.8934 155.33 48.7957 155.511 48.6704C155.696 48.5401 155.789 48.3572 155.789 48.1217V48.0841C155.789 47.6982 155.656 47.4 155.39 47.1896C155.125 46.9791 154.767 46.8739 154.316 46.8739C153.829 46.8739 153.439 46.9791 153.143 47.1896C152.847 47.4 152.659 47.6907 152.579 48.0615L149.189 47.9413C149.289 47.2397 149.547 46.6133 149.963 46.062C150.384 45.5057 150.96 45.0698 151.692 44.754C152.429 44.4333 153.313 44.273 154.346 44.273C155.082 44.273 155.761 44.3607 156.383 44.536C157.004 44.7064 157.545 44.957 158.006 45.2878C158.467 45.6135 158.823 46.0144 159.074 46.4905C159.329 46.9666 159.457 47.5103 159.457 48.1217V55.9695H155.999V54.3608H155.909C155.704 54.7517 155.441 55.0825 155.12 55.3531C154.804 55.6237 154.431 55.8267 154 55.962C153.574 56.0973 153.093 56.1649 152.557 56.1649ZM153.692 53.7595C154.088 53.7595 154.443 53.6793 154.759 53.5189C155.08 53.3586 155.335 53.1381 155.526 52.8574C155.716 52.5718 155.811 52.241 155.811 51.8652V50.7677C155.706 50.8228 155.578 50.8729 155.428 50.918C155.283 50.9631 155.122 51.0057 154.947 51.0458C154.772 51.0859 154.591 51.121 154.406 51.1511C154.22 51.1811 154.042 51.2087 153.872 51.2337C153.526 51.2889 153.231 51.3741 152.985 51.4893C152.744 51.6046 152.559 51.7549 152.429 51.9403C152.303 52.1208 152.241 52.3362 152.241 52.5868C152.241 52.9677 152.376 53.2583 152.647 53.4588C152.922 53.6592 153.271 53.7595 153.692 53.7595ZM168.222 44.4233V47.1294H160.938V44.4233H168.222ZM162.464 41.657H166.14V52.3387C166.14 52.5643 166.175 52.7472 166.245 52.8875C166.32 53.0228 166.428 53.1205 166.568 53.1807C166.709 53.2358 166.877 53.2633 167.072 53.2633C167.212 53.2633 167.36 53.2508 167.515 53.2258C167.676 53.1957 167.796 53.1706 167.876 53.1506L168.433 55.8041C168.257 55.8542 168.009 55.9169 167.688 55.992C167.373 56.0672 166.994 56.1148 166.553 56.1349C165.691 56.1749 164.952 56.0747 164.336 55.8342C163.724 55.5886 163.256 55.2078 162.93 54.6916C162.609 54.1754 162.454 53.5264 162.464 52.7447V41.657ZM170.098 55.9695V44.4233H173.773V55.9695H170.098ZM171.939 43.0777C171.423 43.0777 170.98 42.9074 170.609 42.5666C170.238 42.2208 170.052 41.8049 170.052 41.3188C170.052 40.8377 170.238 40.4267 170.609 40.086C170.98 39.7402 171.423 39.5673 171.939 39.5673C172.46 39.5673 172.904 39.7402 173.27 40.086C173.641 40.4267 173.826 40.8377 173.826 41.3188C173.826 41.8049 173.641 42.2208 173.27 42.5666C172.904 42.9074 172.46 43.0777 171.939 43.0777ZM181.503 56.1875C180.29 56.1875 179.248 55.9394 178.376 55.4433C177.509 54.9422 176.84 54.2456 176.369 53.3535C175.903 52.4565 175.67 51.4167 175.67 50.234C175.67 49.0463 175.903 48.0064 176.369 47.1144C176.84 46.2174 177.509 45.5208 178.376 45.0247C179.248 44.5235 180.29 44.273 181.503 44.273C182.716 44.273 183.755 44.5235 184.622 45.0247C185.494 45.5208 186.163 46.2174 186.629 47.1144C187.101 48.0064 187.336 49.0463 187.336 50.234C187.336 51.4167 187.101 52.4565 186.629 53.3535C186.163 54.2456 185.494 54.9422 184.622 55.4433C183.755 55.9394 182.716 56.1875 181.503 56.1875ZM181.525 53.4137C181.966 53.4137 182.34 53.2784 182.645 53.0078C182.951 52.7372 183.184 52.3613 183.345 51.8802C183.51 51.3991 183.593 50.8429 183.593 50.2114C183.593 49.57 183.51 49.0087 183.345 48.5276C183.184 48.0465 182.951 47.6707 182.645 47.4C182.34 47.1294 181.966 46.9941 181.525 46.9941C181.069 46.9941 180.683 47.1294 180.368 47.4C180.057 47.6707 179.819 48.0465 179.654 48.5276C179.493 49.0087 179.413 49.57 179.413 50.2114C179.413 50.8429 179.493 51.3991 179.654 51.8802C179.819 52.3613 180.057 52.7372 180.368 53.0078C180.683 53.2784 181.069 53.4137 181.525 53.4137ZM192.895 49.3845V55.9695H189.219V44.4233H192.715V46.5431H192.842C193.098 45.8365 193.534 45.2827 194.15 44.8818C194.767 44.4759 195.501 44.273 196.353 44.273C197.165 44.273 197.869 44.4559 198.465 44.8217C199.066 45.1825 199.532 45.6887 199.863 46.3401C200.199 46.9866 200.364 47.7433 200.359 48.6103V55.9695H196.684V49.3319C196.689 48.6905 196.526 48.1893 196.195 47.8285C195.869 47.4677 195.416 47.2873 194.834 47.2873C194.448 47.2873 194.108 47.3725 193.812 47.5429C193.521 47.7082 193.296 47.9463 193.135 48.257C192.98 48.5677 192.9 48.9435 192.895 49.3845Z" fill="url(#paint0_linear_6074_3334)"/>
<path d="M68.8852 28.1799H73.0211C73.0777 29.1714 73.8143 29.7663 75.1457 29.7663C76.5055 29.7663 77.1287 29.2847 77.1287 28.5482C77.1287 28.1232 76.9021 27.67 75.8539 27.4434L73.2477 26.8768C70.6415 26.3102 69.3667 25.1771 69.3667 22.6842C69.3667 19.7381 71.888 18.0384 75.2874 18.0384C78.5734 18.0384 80.868 19.9647 80.868 22.8259H76.7321C76.7321 21.8627 76.1372 21.2111 75.0891 21.2111C74.0976 21.2111 73.4743 21.721 73.4743 22.4859C73.4743 23.1375 74.0126 23.5057 75.0041 23.7324L77.6386 24.2989C79.9615 24.8088 81.2363 25.8853 81.2363 28.1516C81.2363 31.1827 78.6584 33.024 74.9757 33.024C71.2364 33.024 68.8852 31.0411 68.8852 28.1799ZM89.2381 32.6558H84.8756V22.1176H82.1844V18.4916H84.8756V14.1007H89.2381V18.4916H91.9293V22.1176H89.2381V32.6558ZM103.295 18.4916H107.657V32.6558H103.55L103.267 31.0694C102.388 32.2308 100.632 33.024 98.9324 33.024C95.703 33.024 93.72 30.8711 93.72 27.3867V18.4916H98.0825V25.8003C98.0825 28.1232 98.8757 29.1431 100.66 29.1431C102.53 29.1431 103.295 28.1799 103.295 25.857V18.4916ZM116.603 33.024C112.524 33.024 109.89 30.1345 109.89 25.6587C109.89 21.1545 112.581 18.0384 116.887 18.0384C118.643 18.0384 120.314 18.7466 121.136 19.7947V11.2962H125.499V32.6558H121.391L121.164 30.8428C120.399 32.1459 118.643 33.024 116.603 33.024ZM117.652 29.0297C119.691 29.0297 121.108 27.6133 121.108 25.4887C121.108 23.3641 119.691 21.9477 117.652 21.9477C115.584 21.9477 114.281 23.3924 114.281 25.4887C114.281 27.585 115.584 29.0297 117.652 29.0297ZM127.642 39.4545V35.8002H130.049C131.523 35.8002 132.146 35.3469 132.712 33.8172L132.967 33.1373L127.273 18.4916H131.947L135.035 27.585L138.463 18.4916H142.995L135.8 35.7435C134.61 38.633 133.024 39.8511 130.531 39.8511C129.483 39.8511 128.491 39.7095 127.642 39.4545ZM151.524 25.517C151.524 21.1545 154.527 18.0384 158.777 18.0384C162.969 18.0384 165.745 20.333 166.029 24.044H161.638C161.326 22.6276 160.448 21.9477 158.947 21.9477C157.105 21.9477 155.915 23.3358 155.915 25.517C155.915 27.7833 157.02 29.1147 158.89 29.1147C160.42 29.1147 161.354 28.4065 161.638 27.0184H166.029C165.745 30.5878 162.856 33.024 158.89 33.024C154.414 33.024 151.524 30.0496 151.524 25.517ZM167.653 25.5454C167.653 21.0695 170.939 18.0667 175.471 18.0667C179.976 18.0667 183.262 21.0695 183.262 25.5454C183.262 30.0212 179.976 32.9957 175.471 32.9957C170.939 32.9957 167.653 30.0212 167.653 25.5454ZM172.044 25.517C172.044 27.67 173.432 29.0864 175.471 29.0864C177.483 29.0864 178.871 27.67 178.871 25.517C178.871 23.3924 177.483 21.976 175.471 21.976C173.432 21.976 172.044 23.3924 172.044 25.517ZM190.153 32.6558H185.791V18.4916H189.87L190.153 19.9647C190.862 18.9732 192.25 18.0384 194.289 18.0384C196.414 18.0384 197.774 19.0299 198.595 20.5313C199.332 19.0299 201.003 18.0384 203.043 18.0384C206.697 18.0384 208.51 20.163 208.51 23.3924V32.6558H204.148V24.6105C204.148 22.8259 203.213 21.976 201.825 21.976C200.578 21.976 199.332 22.6559 199.332 25.0638V32.6558H194.969V24.6105C194.969 22.8542 194.063 22.0043 192.675 22.0043C191.428 22.0043 190.153 22.6842 190.153 25.0638V32.6558ZM211.629 39.4545V18.4916H215.737L215.964 20.2196C216.757 18.9165 218.541 18.0384 220.553 18.0384C224.49 18.0384 227.238 20.7862 227.238 25.3471C227.238 29.8229 224.802 33.0524 220.581 33.0524C218.626 33.0524 216.813 32.3158 215.992 31.2393V39.4545H211.629ZM216.02 25.5737C216.02 27.6983 217.437 29.1147 219.476 29.1147C221.544 29.1147 222.847 27.67 222.847 25.5737C222.847 23.4774 221.544 22.0327 219.476 22.0327C217.437 22.0327 216.02 23.4491 216.02 25.5737ZM234.027 33.024C231.024 33.024 229.155 31.2677 229.155 28.4915C229.155 25.8853 230.996 24.2706 234.395 24.0156L238.361 23.704V23.4774C238.361 22.0893 237.511 21.3528 235.953 21.3528C234.112 21.3528 233.121 22.061 233.121 23.3358H229.495C229.495 20.1347 232.129 18.0384 236.18 18.0384C240.288 18.0384 242.611 20.333 242.611 24.3839V32.6558H238.758L238.475 30.7861C238.021 32.0892 236.152 33.024 234.027 33.024ZM235.557 29.7946C237.228 29.7946 238.39 28.9731 238.39 27.3584V26.5935L236.18 26.7918C234.282 26.9618 233.602 27.3867 233.602 28.2932C233.602 29.313 234.225 29.7946 235.557 29.7946ZM244.72 28.1799H248.856C248.912 29.1714 249.649 29.7663 250.98 29.7663C252.34 29.7663 252.963 29.2847 252.963 28.5482C252.963 28.1232 252.737 27.67 251.688 27.4434L249.082 26.8768C246.476 26.3102 245.201 25.1771 245.201 22.6842C245.201 19.7381 247.722 18.0384 251.122 18.0384C254.408 18.0384 256.702 19.9647 256.702 22.8259H252.567C252.567 21.8627 251.972 21.2111 250.924 21.2111C249.932 21.2111 249.309 21.721 249.309 22.4859C249.309 23.1375 249.847 23.5057 250.839 23.7324L253.473 24.2989C255.796 24.8088 257.071 25.8853 257.071 28.1516C257.071 31.1827 254.493 33.024 250.81 33.024C247.071 33.024 244.72 31.0411 244.72 28.1799ZM258.33 28.1799H262.466C262.523 29.1714 263.26 29.7663 264.591 29.7663C265.951 29.7663 266.574 29.2847 266.574 28.5482C266.574 28.1232 266.347 27.67 265.299 27.4434L262.693 26.8768C260.087 26.3102 258.812 25.1771 258.812 22.6842C258.812 19.7381 261.333 18.0384 264.733 18.0384C268.019 18.0384 270.313 19.9647 270.313 22.8259H266.177C266.177 21.8627 265.583 21.2111 264.534 21.2111C263.543 21.2111 262.92 21.721 262.92 22.4859C262.92 23.1375 263.458 23.5057 264.449 23.7324L267.084 24.2989C269.407 24.8088 270.682 25.8853 270.682 28.1516C270.682 31.1827 268.104 33.024 264.421 33.024C260.682 33.024 258.33 31.0411 258.33 28.1799Z" fill="#414141"/>
<defs>
<linearGradient id="paint0_linear_6074_3334" x1="66.8564" y1="47.9695" x2="247.5" y2="48" gradientUnits="userSpaceOnUse">
<stop offset="0.348041" stop-color="#4DAA57"/>
<stop offset="1" stop-color="#CAF080"/>
</linearGradient>
<clipPath id="clip0_6074_3334">
<rect width="61.8908" height="60.1976" fill="white"/>
</clipPath>
</defs>
</svg>
