<svg width="472" height="118" viewBox="0 0 472 118" fill="none" xmlns="http://www.w3.org/2000/svg">
<g clip-path="url(#clip0_6626_2352)">
<path d="M147.738 107V75.4778H153.772L167.191 97.7235H163.994L177.188 75.4778H183.178L183.268 107H176.423L176.378 85.9702H177.639L167.101 103.668H163.814L153.051 85.9702H154.582V107H147.738ZM202.275 107.36C199.513 107.36 197.081 106.82 194.979 105.739C192.908 104.658 191.302 103.187 190.161 101.326C189.02 99.4347 188.45 97.2881 188.45 94.8865C188.45 92.4547 189.005 90.3082 190.116 88.4469C191.257 86.5556 192.803 85.0845 194.754 84.0338C196.706 82.953 198.912 82.4126 201.374 82.4126C203.746 82.4126 205.877 82.923 207.769 83.9437C209.69 84.9344 211.206 86.3754 212.317 88.2668C213.428 90.1281 213.983 92.3647 213.983 94.9765C213.983 95.2467 213.968 95.5619 213.938 95.9222C213.908 96.2524 213.878 96.5676 213.848 96.8678H194.169V92.77H210.155L207.453 93.9858C207.453 92.7249 207.198 91.6292 206.688 90.6985C206.177 89.7678 205.472 89.0473 204.571 88.537C203.671 87.9966 202.62 87.7264 201.419 87.7264C200.218 87.7264 199.152 87.9966 198.222 88.537C197.321 89.0473 196.616 89.7828 196.105 90.7435C195.595 91.6742 195.34 92.785 195.34 94.0759V95.1566C195.34 96.4776 195.625 97.6484 196.195 98.6691C196.796 99.6598 197.621 100.425 198.672 100.966C199.753 101.476 201.014 101.731 202.455 101.731C203.746 101.731 204.871 101.536 205.832 101.146C206.823 100.756 207.723 100.17 208.534 99.3896L212.272 103.442C211.161 104.703 209.765 105.679 208.084 106.37C206.403 107.03 204.466 107.36 202.275 107.36ZM218.66 107V82.7729H225.37V89.6177L224.424 87.6363C225.144 85.9251 226.3 84.6342 227.891 83.7636C229.483 82.863 231.419 82.4126 233.7 82.4126V88.8972C233.4 88.8672 233.13 88.8522 232.89 88.8522C232.65 88.8222 232.395 88.8072 232.124 88.8072C230.203 88.8072 228.642 89.3626 227.441 90.4733C226.27 91.5541 225.685 93.2503 225.685 95.5619V107H218.66ZM237.922 107V82.7729H244.946V107H237.922ZM241.434 79.3955C240.143 79.3955 239.092 79.0203 238.282 78.2697C237.471 77.5192 237.066 76.5885 237.066 75.4778C237.066 74.367 237.471 73.4363 238.282 72.6858C239.092 71.9353 240.143 71.56 241.434 71.56C242.725 71.56 243.776 71.9202 244.586 72.6408C245.397 73.3312 245.802 74.2319 245.802 75.3427C245.802 76.5135 245.397 77.4892 244.586 78.2697C243.806 79.0203 242.755 79.3955 241.434 79.3955ZM261.869 107.36C259.587 107.36 257.531 106.85 255.699 105.829C253.868 104.778 252.412 103.322 251.331 101.461C250.28 99.5998 249.755 97.4082 249.755 94.8865C249.755 92.3346 250.28 90.1281 251.331 88.2668C252.412 86.4055 253.868 84.9644 255.699 83.9437C257.531 82.923 259.587 82.4126 261.869 82.4126C263.91 82.4126 265.696 82.863 267.227 83.7636C268.758 84.6642 269.944 86.0302 270.785 87.8615C271.625 89.6928 272.046 92.0344 272.046 94.8865C272.046 97.7084 271.64 100.05 270.83 101.911C270.019 103.743 268.849 105.109 267.317 106.009C265.816 106.91 264 107.36 261.869 107.36ZM263.084 101.596C264.225 101.596 265.261 101.326 266.192 100.786C267.122 100.245 267.858 99.4797 268.398 98.489C268.969 97.4683 269.254 96.2674 269.254 94.8865C269.254 93.4755 268.969 92.2746 268.398 91.2839C267.858 90.2932 267.122 89.5277 266.192 88.9873C265.261 88.4469 264.225 88.1767 263.084 88.1767C261.914 88.1767 260.863 88.4469 259.932 88.9873C259.002 89.5277 258.251 90.2932 257.681 91.2839C257.14 92.2746 256.87 93.4755 256.87 94.8865C256.87 96.2674 257.14 97.4683 257.681 98.489C258.251 99.4797 259.002 100.245 259.932 100.786C260.863 101.326 261.914 101.596 263.084 101.596ZM269.434 107V102.047L269.569 94.8414L269.119 87.6814V73.5864H276.144V107H269.434ZM282.645 107V82.7729H289.67V107H282.645ZM286.158 79.3955C284.867 79.3955 283.816 79.0203 283.006 78.2697C282.195 77.5192 281.79 76.5885 281.79 75.4778C281.79 74.367 282.195 73.4363 283.006 72.6858C283.816 71.9353 284.867 71.56 286.158 71.56C287.449 71.56 288.5 71.9202 289.31 72.6408C290.121 73.3312 290.526 74.2319 290.526 75.3427C290.526 76.5135 290.121 77.4892 289.31 78.2697C288.53 79.0203 287.479 79.3955 286.158 79.3955ZM311.051 107V102.272L310.6 101.236V92.77C310.6 91.2689 310.135 90.0981 309.204 89.2575C308.304 88.4169 306.908 87.9966 305.016 87.9966C303.725 87.9966 302.45 88.2067 301.189 88.627C299.958 89.0173 298.907 89.5577 298.036 90.2482L295.515 85.3397C296.836 84.4091 298.427 83.6885 300.288 83.1782C302.149 82.6678 304.041 82.4126 305.962 82.4126C309.655 82.4126 312.522 83.2833 314.563 85.0245C316.605 86.7657 317.625 89.4826 317.625 93.1752V107H311.051ZM303.665 107.36C301.774 107.36 300.153 107.045 298.802 106.415C297.451 105.754 296.415 104.868 295.695 103.758C294.974 102.647 294.614 101.401 294.614 100.02C294.614 98.5791 294.959 97.3182 295.65 96.2374C296.37 95.1566 297.496 94.316 299.027 93.7156C300.558 93.0852 302.555 92.77 305.016 92.77H311.456V96.8678H305.782C304.131 96.8678 302.99 97.138 302.36 97.6784C301.759 98.2188 301.459 98.8943 301.459 99.7049C301.459 100.605 301.804 101.326 302.495 101.866C303.215 102.377 304.191 102.632 305.422 102.632C306.593 102.632 307.643 102.362 308.574 101.821C309.505 101.251 310.18 100.425 310.6 99.3446L311.681 102.587C311.171 104.148 310.24 105.334 308.889 106.144C307.538 106.955 305.797 107.36 303.665 107.36ZM338.709 82.4126C340.63 82.4126 342.341 82.8029 343.842 83.5835C345.373 84.334 346.574 85.5048 347.445 87.096C348.315 88.6571 348.751 90.6685 348.751 93.1302V107H341.726V94.211C341.726 92.2596 341.29 90.8186 340.42 89.8879C339.579 88.9573 338.378 88.4919 336.817 88.4919C335.706 88.4919 334.701 88.7321 333.8 89.2124C332.93 89.6628 332.239 90.3683 331.729 91.3289C331.248 92.2896 331.008 93.5205 331.008 95.0215V107H323.983V82.7729H330.693V89.4826L329.432 87.4562C330.303 85.8351 331.549 84.5892 333.17 83.7186C334.791 82.848 336.637 82.4126 338.709 82.4126Z" fill="#414141"/>
<path d="M119.57 91.1553C118.651 91.1553 117.862 90.9612 117.202 90.573C116.542 90.1848 116.037 89.596 115.688 88.8066C115.339 88.0044 115.164 86.995 115.164 85.7786C115.164 84.5493 115.345 83.54 115.707 82.7506C116.083 81.9613 116.6 81.3725 117.26 80.9843C117.92 80.5961 118.69 80.402 119.57 80.402C120.553 80.402 121.433 80.622 122.21 81.062C122.999 81.5019 123.62 82.123 124.073 82.9253C124.539 83.7276 124.772 84.6787 124.772 85.7786C124.772 86.8656 124.539 87.8102 124.073 88.6125C123.62 89.4148 122.999 90.0424 122.21 90.4953C121.433 90.9353 120.553 91.1553 119.57 91.1553ZM113.398 91V76.5976H116.426V82.673L116.231 85.7592L116.29 88.8649V91H113.398ZM119.046 88.6708C119.551 88.6708 119.997 88.5543 120.385 88.3214C120.786 88.0885 121.103 87.7585 121.336 87.3315C121.582 86.8915 121.705 86.3739 121.705 85.7786C121.705 85.1705 121.582 84.6528 121.336 84.2258C121.103 83.7988 120.786 83.4688 120.385 83.2359C119.997 83.003 119.551 82.8865 119.046 82.8865C118.541 82.8865 118.088 83.003 117.687 83.2359C117.286 83.4688 116.969 83.7988 116.736 84.2258C116.503 84.6528 116.387 85.1705 116.387 85.7786C116.387 86.3739 116.503 86.8915 116.736 87.3315C116.969 87.7585 117.286 88.0885 117.687 88.3214C118.088 88.5543 118.541 88.6708 119.046 88.6708ZM127.835 94.9209C127.291 94.9209 126.754 94.8368 126.223 94.6685C125.693 94.5003 125.259 94.2674 124.923 93.9698L126.029 91.8152C126.262 92.0223 126.528 92.184 126.825 92.3005C127.136 92.4169 127.44 92.4752 127.737 92.4752C128.164 92.4752 128.501 92.3717 128.747 92.1646C129.006 91.9705 129.239 91.6405 129.446 91.1747L129.989 89.8936L130.222 89.5636L133.968 80.5573H136.88L132.163 91.6405C131.827 92.4816 131.438 93.1416 130.998 93.6204C130.571 94.0992 130.093 94.4356 129.562 94.6297C129.044 94.8238 128.469 94.9209 127.835 94.9209ZM129.62 91.4076L124.962 80.5573H128.087L131.697 89.2919L129.62 91.4076Z" fill="#414141"/>
<path d="M111.14 63L130.115 20.0151H142.089L161.126 63H148.476L133.615 25.9716H138.405L123.545 63H111.14ZM121.518 54.6487L124.65 45.6832H145.651L148.783 54.6487H121.518ZM171.563 63V29.656H158.361V20.0151H196.863V29.656H183.722V63H171.563ZM201.393 63V20.0151H213.551V53.3591H234.061V63H201.393ZM234.134 63L253.109 20.0151H265.083L284.119 63H271.47L256.609 25.9716H261.399L246.538 63H234.134ZM244.512 54.6487L247.644 45.6832H268.645L271.777 54.6487H244.512ZM302.672 63.8597C299.152 63.8597 295.754 63.4298 292.479 62.5702C289.245 61.6695 286.604 60.5233 284.557 59.1314L288.549 50.1659C290.473 51.3941 292.684 52.4175 295.181 53.2363C297.719 54.0141 300.237 54.403 302.734 54.403C304.412 54.403 305.763 54.2597 306.787 53.9732C307.81 53.6457 308.547 53.2363 308.997 52.745C309.489 52.2128 309.734 51.5988 309.734 50.9028C309.734 49.9203 309.284 49.1425 308.383 48.5694C307.483 47.9962 306.316 47.5254 304.883 47.157C303.45 46.7886 301.854 46.4201 300.093 46.0517C298.374 45.6832 296.634 45.2124 294.874 44.6393C293.154 44.0662 291.578 43.3293 290.145 42.4287C288.713 41.4871 287.546 40.2794 286.645 38.8057C285.745 37.2909 285.294 35.3873 285.294 33.0948C285.294 30.5157 285.99 28.1822 287.382 26.0944C288.815 24.0066 290.944 22.3281 293.768 21.059C296.593 19.79 300.114 19.1554 304.33 19.1554C307.155 19.1554 309.919 19.4829 312.62 20.1379C315.363 20.752 317.799 21.6731 319.928 22.9012L316.182 31.9281C314.135 30.8227 312.109 30.004 310.103 29.4718C308.097 28.8987 306.152 28.6121 304.269 28.6121C302.591 28.6121 301.24 28.7963 300.216 29.1648C299.193 29.4923 298.456 29.9426 298.006 30.5157C297.555 31.0888 297.33 31.7438 297.33 32.4807C297.33 33.4223 297.76 34.1797 298.62 34.7528C299.52 35.285 300.687 35.7353 302.12 36.1037C303.594 36.4312 305.19 36.7792 306.91 37.1477C308.67 37.5161 310.41 37.9869 312.129 38.56C313.889 39.0922 315.486 39.8291 316.919 40.7707C318.352 41.6713 319.498 42.879 320.358 44.3937C321.258 45.8675 321.709 47.7301 321.709 49.9817C321.709 52.4789 320.992 54.7919 319.559 56.9207C318.168 59.0085 316.059 60.687 313.234 61.9561C310.451 63.2252 306.93 63.8597 302.672 63.8597Z" fill="#6D8EFA"/>
<g clip-path="url(#clip1_6626_2352)">
<rect x="12.9316" y="34.333" width="75.79" height="75.79" rx="37.895" transform="rotate(-21.1323 12.9316 34.333)" fill="#6D8EFA" fill-opacity="0.3"/>
<path fill-rule="evenodd" clip-rule="evenodd" d="M50.4612 26.0319C46.5155 27.557 42.9089 29.8443 39.8472 32.7632C36.7855 35.6821 34.3287 39.1755 32.617 43.0439C30.9054 46.9123 29.9725 51.0799 29.8715 55.3089C29.7706 59.5378 30.5035 63.7452 32.0286 67.6909C33.5537 71.6365 35.8409 75.2432 38.7599 78.3049C41.6788 81.3666 45.1721 83.8234 49.0405 85.535C52.9089 87.2466 57.0766 88.1796 61.3055 88.2805C65.5344 88.3815 69.7418 87.6485 73.6875 86.1235C81.6561 83.0434 88.0749 76.9241 91.5316 69.1115C94.9884 61.2989 95.2001 52.4332 92.1201 44.4645C89.0401 36.4959 82.9207 30.0772 75.1081 26.6204C67.2956 23.1636 58.4298 22.9519 50.4612 26.0319ZM26.7268 69.7401C23.1033 60.3653 23.3524 49.9351 27.4191 40.744C31.4859 31.5529 39.0372 24.3537 48.412 20.7302C57.7867 17.1067 68.2169 17.3557 77.408 21.4225C86.5992 25.4892 93.7984 33.0406 97.4219 42.4153C101.045 51.7901 100.796 62.2203 96.7296 71.4114C92.6628 80.6025 85.1115 87.8017 75.7367 91.4252C66.362 95.0487 55.9318 94.7997 46.7406 90.7329C37.5495 86.6662 30.3503 79.1148 26.7268 69.7401Z" fill="#6D8EFA"/>
<path fill-rule="evenodd" clip-rule="evenodd" d="M40.0521 32.5593C43.068 29.7311 46.6033 27.5142 50.4626 26.0311C54.3162 24.533 58.4235 23.7959 62.5575 23.8606C64.4076 24.7751 66.2278 25.9671 67.9667 27.3705C71.2208 29.998 74.3063 33.4541 77.0232 37.5543C78.7253 37.3424 80.3427 37.2147 81.8754 37.1712C84.2756 37.1012 86.5055 37.2342 88.4704 37.6025C89.5484 39.1414 90.4939 40.7887 91.3068 42.5443C90.7999 42.2439 90.2614 42.0005 89.7011 41.8184C87.8158 41.1791 85.2077 40.8663 81.9856 40.9624C81.0945 40.9867 80.1685 41.043 79.2077 41.1313C81.7331 45.6473 83.6833 50.4617 85.0127 55.4622C85.7078 54.9305 86.362 54.4003 86.9753 53.8717C89.4244 51.7758 91.1442 49.7902 92.1094 48.0491C92.4343 47.4547 92.6676 46.9157 92.8095 46.432C93.3886 48.278 93.7968 50.1329 94.034 51.9967C92.671 53.7365 91.1313 55.3304 89.4398 56.7529C88.3097 57.715 87.1389 58.6282 85.9306 59.4901C87.0019 65.0798 87.1512 70.4255 86.424 75.1236C86.2888 76.0089 86.1164 76.8882 85.9074 77.7591C84.1015 79.7436 82.035 81.5201 79.7302 83.0242C81.1378 80.8077 82.1517 77.95 82.6788 74.5428C83.269 70.7553 83.2224 66.4077 82.4897 61.7936C78.5582 64.248 73.9728 66.5864 68.9608 68.6308L75.4358 85.383C74.2849 85.9083 73.1038 86.3648 71.8989 86.7501L65.4239 69.9979C60.676 71.7534 55.7879 73.1033 50.812 74.0332C53.3707 77.9459 56.2626 81.1894 59.2481 83.5991C61.9297 85.7661 64.602 87.199 67.1344 87.8927C64.4521 88.3227 61.726 88.4094 59.0218 88.1508C58.2815 87.6469 57.5626 87.1121 56.867 86.5479C53.1692 83.5601 49.6844 79.5036 46.7178 74.6465C45.2427 74.8219 43.7609 74.9339 42.2762 74.9824C40.0677 75.0674 37.8563 74.9233 35.6774 74.5525C34.5881 72.9923 33.6402 71.338 32.8448 69.6093C33.2726 69.8728 33.8078 70.1148 34.4505 70.3352C36.3358 70.9745 38.9439 71.2873 42.166 71.1912C42.9754 71.1699 43.8156 71.1211 44.6866 71.0446C42.3082 66.451 40.5139 61.5778 39.3457 56.5386C38.5753 57.1194 37.8517 57.6993 37.1749 58.2782C34.7272 60.3778 33.0074 62.3634 32.0422 64.1045C31.7149 64.6999 31.4803 65.2394 31.3384 65.723C30.7643 63.8751 30.3573 62.0197 30.1176 60.1569C31.4806 58.4171 33.0203 56.8232 34.7118 55.4007C35.8739 54.4055 37.1554 53.4127 38.5566 52.4223C37.8111 47.5643 37.7686 42.9278 38.4111 38.7985C38.7292 36.6652 39.2794 34.573 40.0521 32.5593ZM65.5871 30.323C68.1303 32.3761 70.61 35.0414 72.8713 38.207C68.0571 39.1358 63.3269 40.4564 58.7278 42.1557L52.3652 25.6945C56.2896 24.9967 60.9245 26.5588 65.5871 30.323ZM75.1294 41.6527C70.0029 42.5284 64.9688 43.8784 60.092 45.6852L67.5937 65.0939C72.9521 62.9027 77.7468 60.3848 81.6924 57.8005C81.1123 55.3602 80.3418 52.8934 79.381 50.4001C78.1624 47.2474 76.7237 44.3128 75.1294 41.6527ZM48.8283 27.0616L55.1879 43.5153C50.6405 45.3525 46.251 47.5583 42.063 50.1107C41.6112 46.2456 41.65 42.6069 42.1535 39.3718C43.0702 33.4555 45.4562 29.1883 48.8283 27.0616ZM56.5535 47.0486C51.7293 48.9914 47.0959 51.3781 42.713 54.1778C43.3587 57.3609 44.2743 60.4831 45.4498 63.5108C46.4117 65.9994 47.5089 68.3499 48.715 70.5382C53.3745 69.8008 58.6124 68.4409 64.0539 66.4535L56.5535 47.0486Z" fill="#6D8EFA"/>
</g>
</g>
<defs>
<clipPath id="clip0_6626_2352">
<rect width="472" height="118" fill="white"/>
</clipPath>
<clipPath id="clip1_6626_2352">
<rect width="96" height="96" fill="white" transform="translate(0 28.6104) rotate(-21.1323)"/>
</clipPath>
</defs>
</svg>
