<svg width="986" height="128" viewBox="0 0 986 128" fill="none" xmlns="http://www.w3.org/2000/svg">
<path opacity="0.32" d="M10.6361 63.8167C10.6361 93.1876 34.4459 116.997 63.8167 116.997C93.1876 116.997 116.997 93.1876 116.997 63.8167C116.997 34.4459 93.1876 10.6361 63.8167 10.6361C34.4459 10.6361 10.6361 34.4459 10.6361 63.8167Z" fill="#FA756D" fill-opacity="0.8"/>
<path fill-rule="evenodd" clip-rule="evenodd" d="M50.9953 50.9954C44.1841 57.8066 42.695 73.9487 42.695 73.9487C41.7801 82.648 44.9855 85.8534 53.6848 84.9385C53.6848 84.9385 69.8269 83.4495 76.6382 76.6382C83.4494 69.8269 84.9385 53.6849 84.9385 53.6849C85.8533 44.9856 82.6479 41.7802 73.9487 42.6951C73.9487 42.6951 57.8066 44.1841 50.9953 50.9954ZM58.4987 63.8168C58.4987 66.7539 60.8797 69.1349 63.8167 69.1349C66.7538 69.1349 69.1348 66.7539 69.1348 63.8168V63.8115C69.1348 60.8744 66.7538 58.4934 63.8167 58.4934C60.8797 58.4934 58.4987 60.8744 58.4987 63.8115V63.8168Z" fill="#FA756D"/>
<rect x="576" y="32" width="7" height="63" rx="3.5" fill="#414141"/>
<path d="M144.154 68.1202H152.236C152.347 70.0578 153.786 71.2203 156.388 71.2203C159.045 71.2203 160.263 70.2792 160.263 68.8399C160.263 68.0095 159.82 67.1237 157.772 66.6809L152.679 65.5737C147.586 64.4665 145.095 62.2521 145.095 57.3805C145.095 51.6232 150.022 48.3016 156.665 48.3016C163.087 48.3016 167.571 52.0661 167.571 57.6573H159.488C159.488 55.7751 158.326 54.5019 156.277 54.5019C154.34 54.5019 153.122 55.4983 153.122 56.993C153.122 58.2663 154.174 58.986 156.111 59.4288L161.26 60.536C165.799 61.5325 168.29 63.6361 168.29 68.0648C168.29 73.9883 163.253 77.5866 156.056 77.5866C148.748 77.5866 144.154 73.7115 144.154 68.1202ZM183.927 76.8669H175.402V56.2734H170.143V49.1874H175.402V40.6067H183.927V49.1874H189.187V56.2734H183.927V76.8669ZM211.397 49.1874H219.923V76.8669H211.895L211.342 73.7668C209.626 76.0366 206.194 77.5866 202.872 77.5866C196.561 77.5866 192.686 73.3793 192.686 66.5702V49.1874H201.211V63.47C201.211 68.0095 202.761 70.0024 206.249 70.0024C209.903 70.0024 211.397 68.1202 211.397 63.5808V49.1874ZM237.405 77.5866C229.433 77.5866 224.285 71.94 224.285 63.1932C224.285 54.3912 229.544 48.3016 237.958 48.3016C241.391 48.3016 244.657 49.6856 246.262 51.7339V35.1262H254.788V76.8669H246.76L246.318 73.324C244.823 75.8705 241.391 77.5866 237.405 77.5866ZM239.453 69.781C243.439 69.781 246.207 67.013 246.207 62.8611C246.207 58.7092 243.439 55.9412 239.453 55.9412C235.412 55.9412 232.865 58.7645 232.865 62.8611C232.865 66.9577 235.412 69.781 239.453 69.781ZM258.975 90.1531V83.0118H263.681C266.56 83.0118 267.777 82.1261 268.885 79.1367L269.383 77.808L258.256 49.1874H267.39L273.424 66.9577L280.123 49.1874H288.98L274.919 82.9011C272.594 88.5477 269.494 90.9282 264.622 90.9282C262.574 90.9282 260.636 90.6514 258.975 90.1531ZM305.647 62.9165C305.647 54.3912 311.515 48.3016 319.819 48.3016C328.012 48.3016 333.438 52.7857 333.991 60.0378H325.411C324.802 57.2698 323.086 55.9412 320.151 55.9412C316.553 55.9412 314.228 58.6538 314.228 62.9165C314.228 67.3452 316.387 69.9471 320.041 69.9471C323.03 69.9471 324.857 68.5631 325.411 65.8505H333.991C333.438 72.8257 327.791 77.5866 320.041 77.5866C311.294 77.5866 305.647 71.7739 305.647 62.9165ZM337.165 62.9718C337.165 54.2251 343.587 48.357 352.444 48.357C361.247 48.357 367.668 54.2251 367.668 62.9718C367.668 71.7185 361.247 77.5313 352.444 77.5313C343.587 77.5313 337.165 71.7185 337.165 62.9718ZM345.746 62.9165C345.746 67.1237 348.459 69.8917 352.444 69.8917C356.375 69.8917 359.088 67.1237 359.088 62.9165C359.088 58.7645 356.375 55.9966 352.444 55.9966C348.459 55.9966 345.746 58.7645 345.746 62.9165ZM381.136 76.8669H372.611V49.1874H380.582L381.136 52.0661C382.52 50.1285 385.233 48.3016 389.218 48.3016C393.37 48.3016 396.028 50.2392 397.633 53.1732C399.072 50.2392 402.339 48.3016 406.324 48.3016C413.466 48.3016 417.009 52.4536 417.009 58.7645V76.8669H408.483V61.145C408.483 57.6573 406.657 55.9966 403.944 55.9966C401.508 55.9966 399.072 57.3252 399.072 62.0307V76.8669H390.547V61.145C390.547 57.7127 388.776 56.0519 386.063 56.0519C383.627 56.0519 381.136 57.3805 381.136 62.0307V76.8669ZM423.104 90.1531V49.1874H431.131L431.574 52.5643C433.124 50.0178 436.612 48.3016 440.542 48.3016C448.237 48.3016 453.607 53.6715 453.607 62.5843C453.607 71.331 448.846 77.642 440.598 77.642C436.778 77.642 433.235 76.2026 431.63 74.099V90.1531H423.104ZM431.685 63.0272C431.685 67.1791 434.453 69.9471 438.439 69.9471C442.48 69.9471 445.026 67.1237 445.026 63.0272C445.026 58.9306 442.48 56.1073 438.439 56.1073C434.453 56.1073 431.685 58.8752 431.685 63.0272ZM466.874 77.5866C461.006 77.5866 457.352 74.1543 457.352 68.7292C457.352 63.6361 460.95 60.4807 467.594 59.9824L475.344 59.3735V58.9306C475.344 56.218 473.683 54.7787 470.638 54.7787C467.04 54.7787 465.102 56.1626 465.102 58.6538H458.016C458.016 52.3982 463.165 48.3016 471.081 48.3016C479.108 48.3016 483.648 52.7857 483.648 60.7021V76.8669H476.119L475.565 73.2132C474.679 75.7598 471.026 77.5866 466.874 77.5866ZM469.863 71.2757C473.129 71.2757 475.399 69.6703 475.399 66.5148V65.0201L471.081 65.4076C467.372 65.7398 466.043 66.5702 466.043 68.3416C466.043 70.3346 467.261 71.2757 469.863 71.2757ZM487.769 68.1202H495.852C495.962 70.0578 497.402 71.2203 500.004 71.2203C502.661 71.2203 503.879 70.2792 503.879 68.8399C503.879 68.0095 503.436 67.1237 501.388 66.6809L496.295 65.5737C491.202 64.4665 488.71 62.2521 488.71 57.3805C488.71 51.6232 493.637 48.3016 500.28 48.3016C506.702 48.3016 511.186 52.0661 511.186 57.6573H503.104C503.104 55.7751 501.941 54.5019 499.893 54.5019C497.955 54.5019 496.737 55.4983 496.737 56.993C496.737 58.2663 497.789 58.986 499.727 59.4288L504.875 60.536C509.415 61.5325 511.906 63.6361 511.906 68.0648C511.906 73.9883 506.868 77.5866 499.672 77.5866C492.364 77.5866 487.769 73.7115 487.769 68.1202ZM514.368 68.1202H522.45C522.561 70.0578 524 71.2203 526.602 71.2203C529.259 71.2203 530.477 70.2792 530.477 68.8399C530.477 68.0095 530.034 67.1237 527.986 66.6809L522.893 65.5737C517.8 64.4665 515.309 62.2521 515.309 57.3805C515.309 51.6232 520.236 48.3016 526.879 48.3016C533.3 48.3016 537.785 52.0661 537.785 57.6573H529.702C529.702 55.7751 528.54 54.5019 526.491 54.5019C524.554 54.5019 523.336 55.4983 523.336 56.993C523.336 58.2663 524.388 58.986 526.325 59.4288L531.474 60.536C536.013 61.5325 538.504 63.6361 538.504 68.0648C538.504 73.9883 533.467 77.5866 526.27 77.5866C518.962 77.5866 514.368 73.7115 514.368 68.1202Z" fill="#414141"/>
<path d="M633.238 77H625.211V35.2586H633.736V52.5309C635.397 50.0397 639.051 48.3789 643.037 48.3789C650.787 48.3789 655.714 54.4131 655.714 63.4368C655.714 72.0176 650.234 77.7197 642.372 77.7197C638.497 77.7197 635.176 76.0035 633.681 73.457L633.238 77ZM633.792 62.9939C633.792 67.1459 636.56 69.9139 640.546 69.9139C644.587 69.9139 647.133 67.0906 647.133 62.9939C647.133 58.8973 644.587 56.0739 640.546 56.0739C636.56 56.0739 633.792 58.8419 633.792 62.9939ZM673.465 77.7197C665.106 77.7197 659.127 71.6301 659.127 63.1046C659.127 54.4685 664.94 48.4342 673.299 48.4342C681.991 48.4342 687.416 54.1363 687.416 63.16V65.319L667.32 65.4298C667.819 69.0835 669.867 70.7997 673.631 70.7997C676.842 70.7997 679.112 69.6371 679.721 67.6442H687.527C686.53 73.7891 681.05 77.7197 673.465 77.7197ZM673.355 55.3542C669.978 55.3542 668.095 56.849 667.431 60.1706H678.946C678.946 57.2365 676.787 55.3542 673.355 55.3542ZM711.508 49.32V57.3472H708.796C703.924 57.3472 700.99 59.5062 700.99 64.9869V77H692.465V49.3754H700.492L700.935 53.472C702.097 50.7594 704.533 48.9325 708.242 48.9325C709.239 48.9325 710.346 49.0432 711.508 49.32ZM724.345 77H715.82V35.2586H724.345V59.2848L733.313 49.32H743.998L733.59 60.2813L743.666 77H733.812L727.611 66.6477L724.345 70.08V77ZM758.938 77.7197C750.579 77.7197 744.6 71.6301 744.6 63.1046C744.6 54.4685 750.413 48.4342 758.772 48.4342C767.464 48.4342 772.889 54.1363 772.889 63.16V65.319L752.793 65.4298C753.291 69.0835 755.34 70.7997 759.104 70.7997C762.315 70.7997 764.585 69.6371 765.194 67.6442H773C772.003 73.7891 766.522 77.7197 758.938 77.7197ZM758.827 55.3542C755.45 55.3542 753.568 56.849 752.904 60.1706H764.419C764.419 57.2365 762.26 55.3542 758.827 55.3542ZM786.463 77H777.937V35.2586H786.463V77ZM805.702 77.7197C797.343 77.7197 791.364 71.6301 791.364 63.1046C791.364 54.4685 797.177 48.4342 805.536 48.4342C814.228 48.4342 819.653 54.1363 819.653 63.16V65.319L799.557 65.4298C800.055 69.0835 802.104 70.7997 805.868 70.7997C809.079 70.7997 811.349 69.6371 811.958 67.6442H819.764C818.767 73.7891 813.287 77.7197 805.702 77.7197ZM805.591 55.3542C802.215 55.3542 800.332 56.849 799.668 60.1706H811.183C811.183 57.2365 809.024 55.3542 805.591 55.3542ZM821.406 90.2864V83.145H826.111C828.99 83.145 830.208 82.2592 831.315 79.2698L831.814 77.9411L820.686 49.32H829.821L835.855 67.0906L842.553 49.32H851.411L837.35 83.0342C835.024 88.681 831.924 91.0614 827.053 91.0614C825.004 91.0614 823.067 90.7846 821.406 90.2864Z" fill="#FA756D"/>
</svg>
