<svg width="480" height="141" viewBox="0 0 480 141" fill="none" xmlns="http://www.w3.org/2000/svg">
<path d="M153.738 121V89.4778H159.772L173.191 111.723H169.994L183.188 89.4778H189.178L189.268 121H182.423L182.378 99.9702H183.639L173.101 117.668H169.814L159.051 99.9702H160.582V121H153.738ZM208.275 121.36C205.513 121.36 203.081 120.82 200.979 119.739C198.908 118.658 197.302 117.187 196.161 115.326C195.02 113.435 194.45 111.288 194.45 108.886C194.45 106.455 195.005 104.308 196.116 102.447C197.257 100.556 198.803 99.0845 200.754 98.0338C202.706 96.953 204.912 96.4126 207.374 96.4126C209.746 96.4126 211.877 96.923 213.769 97.9437C215.69 98.9344 217.206 100.375 218.317 102.267C219.428 104.128 219.983 106.365 219.983 108.977C219.983 109.247 219.968 109.562 219.938 109.922C219.908 110.252 219.878 110.568 219.848 110.868H200.169V106.77H216.155L213.453 107.986C213.453 106.725 213.198 105.629 212.688 104.698C212.177 103.768 211.472 103.047 210.571 102.537C209.671 101.997 208.62 101.726 207.419 101.726C206.218 101.726 205.152 101.997 204.222 102.537C203.321 103.047 202.616 103.783 202.105 104.744C201.595 105.674 201.34 106.785 201.34 108.076V109.157C201.34 110.478 201.625 111.648 202.195 112.669C202.796 113.66 203.621 114.425 204.672 114.966C205.753 115.476 207.014 115.731 208.455 115.731C209.746 115.731 210.871 115.536 211.832 115.146C212.823 114.756 213.723 114.17 214.534 113.39L218.272 117.442C217.161 118.703 215.765 119.679 214.084 120.37C212.403 121.03 210.466 121.36 208.275 121.36ZM224.66 121V96.7729H231.37V103.618L230.424 101.636C231.144 99.9251 232.3 98.6342 233.891 97.7636C235.483 96.863 237.419 96.4126 239.7 96.4126V102.897C239.4 102.867 239.13 102.852 238.89 102.852C238.65 102.822 238.395 102.807 238.124 102.807C236.203 102.807 234.642 103.363 233.441 104.473C232.27 105.554 231.685 107.25 231.685 109.562V121H224.66ZM243.922 121V96.7729H250.946V121H243.922ZM247.434 93.3955C246.143 93.3955 245.092 93.0203 244.282 92.2697C243.471 91.5192 243.066 90.5885 243.066 89.4778C243.066 88.367 243.471 87.4363 244.282 86.6858C245.092 85.9353 246.143 85.56 247.434 85.56C248.725 85.56 249.776 85.9202 250.586 86.6408C251.397 87.3312 251.802 88.2319 251.802 89.3427C251.802 90.5135 251.397 91.4892 250.586 92.2697C249.806 93.0203 248.755 93.3955 247.434 93.3955ZM267.869 121.36C265.587 121.36 263.531 120.85 261.699 119.829C259.868 118.778 258.412 117.322 257.331 115.461C256.28 113.6 255.755 111.408 255.755 108.886C255.755 106.335 256.28 104.128 257.331 102.267C258.412 100.405 259.868 98.9644 261.699 97.9437C263.531 96.923 265.587 96.4126 267.869 96.4126C269.91 96.4126 271.696 96.863 273.227 97.7636C274.758 98.6642 275.944 100.03 276.785 101.861C277.625 103.693 278.046 106.034 278.046 108.886C278.046 111.708 277.64 114.05 276.83 115.911C276.019 117.743 274.849 119.109 273.317 120.009C271.816 120.91 270 121.36 267.869 121.36ZM269.084 115.596C270.225 115.596 271.261 115.326 272.192 114.786C273.122 114.245 273.858 113.48 274.398 112.489C274.969 111.468 275.254 110.267 275.254 108.886C275.254 107.475 274.969 106.275 274.398 105.284C273.858 104.293 273.122 103.528 272.192 102.987C271.261 102.447 270.225 102.177 269.084 102.177C267.914 102.177 266.863 102.447 265.932 102.987C265.002 103.528 264.251 104.293 263.681 105.284C263.14 106.275 262.87 107.475 262.87 108.886C262.87 110.267 263.14 111.468 263.681 112.489C264.251 113.48 265.002 114.245 265.932 114.786C266.863 115.326 267.914 115.596 269.084 115.596ZM275.434 121V116.047L275.569 108.841L275.119 101.681V87.5864H282.144V121H275.434ZM288.645 121V96.7729H295.67V121H288.645ZM292.158 93.3955C290.867 93.3955 289.816 93.0203 289.006 92.2697C288.195 91.5192 287.79 90.5885 287.79 89.4778C287.79 88.367 288.195 87.4363 289.006 86.6858C289.816 85.9353 290.867 85.56 292.158 85.56C293.449 85.56 294.5 85.9202 295.31 86.6408C296.121 87.3312 296.526 88.2319 296.526 89.3427C296.526 90.5135 296.121 91.4892 295.31 92.2697C294.53 93.0203 293.479 93.3955 292.158 93.3955ZM317.051 121V116.272L316.6 115.236V106.77C316.6 105.269 316.135 104.098 315.204 103.257C314.304 102.417 312.908 101.997 311.016 101.997C309.725 101.997 308.45 102.207 307.189 102.627C305.958 103.017 304.907 103.558 304.036 104.248L301.515 99.3397C302.836 98.4091 304.427 97.6885 306.288 97.1782C308.149 96.6678 310.041 96.4126 311.962 96.4126C315.655 96.4126 318.522 97.2833 320.563 99.0245C322.605 100.766 323.625 103.483 323.625 107.175V121H317.051ZM309.665 121.36C307.774 121.36 306.153 121.045 304.802 120.415C303.451 119.754 302.415 118.868 301.695 117.758C300.974 116.647 300.614 115.401 300.614 114.02C300.614 112.579 300.959 111.318 301.65 110.237C302.37 109.157 303.496 108.316 305.027 107.716C306.558 107.085 308.555 106.77 311.016 106.77H317.456V110.868H311.782C310.131 110.868 308.99 111.138 308.36 111.678C307.759 112.219 307.459 112.894 307.459 113.705C307.459 114.605 307.804 115.326 308.495 115.866C309.215 116.377 310.191 116.632 311.422 116.632C312.593 116.632 313.643 116.362 314.574 115.821C315.505 115.251 316.18 114.425 316.6 113.345L317.681 116.587C317.171 118.148 316.24 119.334 314.889 120.144C313.538 120.955 311.797 121.36 309.665 121.36ZM344.709 96.4126C346.63 96.4126 348.341 96.8029 349.842 97.5835C351.373 98.334 352.574 99.5048 353.445 101.096C354.315 102.657 354.751 104.668 354.751 107.13V121H347.726V108.211C347.726 106.26 347.29 104.819 346.42 103.888C345.579 102.957 344.378 102.492 342.817 102.492C341.706 102.492 340.701 102.732 339.8 103.212C338.93 103.663 338.239 104.368 337.729 105.329C337.248 106.29 337.008 107.52 337.008 109.022V121H329.983V96.7729H336.693V103.483L335.432 101.456C336.303 99.8351 337.549 98.5892 339.17 97.7186C340.791 96.848 342.637 96.4126 344.709 96.4126Z" fill="#414141"/>
<path d="M125.57 105.155C124.651 105.155 123.862 104.961 123.202 104.573C122.542 104.185 122.037 103.596 121.688 102.807C121.339 102.004 121.164 100.995 121.164 99.7786C121.164 98.5493 121.345 97.54 121.707 96.7506C122.083 95.9613 122.6 95.3725 123.26 94.9843C123.92 94.5961 124.69 94.402 125.57 94.402C126.553 94.402 127.433 94.622 128.21 95.062C128.999 95.5019 129.62 96.123 130.073 96.9253C130.539 97.7276 130.772 98.6787 130.772 99.7786C130.772 100.866 130.539 101.81 130.073 102.613C129.62 103.415 128.999 104.042 128.21 104.495C127.433 104.935 126.553 105.155 125.57 105.155ZM119.398 105V90.5976H122.426V96.673L122.231 99.7592L122.29 102.865V105H119.398ZM125.046 102.671C125.551 102.671 125.997 102.554 126.385 102.321C126.786 102.088 127.103 101.758 127.336 101.331C127.582 100.891 127.705 100.374 127.705 99.7786C127.705 99.1705 127.582 98.6528 127.336 98.2258C127.103 97.7988 126.786 97.4688 126.385 97.2359C125.997 97.003 125.551 96.8865 125.046 96.8865C124.541 96.8865 124.088 97.003 123.687 97.2359C123.286 97.4688 122.969 97.7988 122.736 98.2258C122.503 98.6528 122.387 99.1705 122.387 99.7786C122.387 100.374 122.503 100.891 122.736 101.331C122.969 101.758 123.286 102.088 123.687 102.321C124.088 102.554 124.541 102.671 125.046 102.671ZM133.835 108.921C133.291 108.921 132.754 108.837 132.223 108.669C131.693 108.5 131.259 108.267 130.923 107.97L132.029 105.815C132.262 106.022 132.528 106.184 132.825 106.3C133.136 106.417 133.44 106.475 133.737 106.475C134.164 106.475 134.501 106.372 134.747 106.165C135.006 105.971 135.239 105.641 135.446 105.175L135.989 103.894L136.222 103.564L139.968 94.5573H142.88L138.163 105.641C137.827 106.482 137.438 107.142 136.998 107.62C136.571 108.099 136.093 108.436 135.562 108.63C135.044 108.824 134.469 108.921 133.835 108.921ZM135.62 105.408L130.962 94.5573H134.087L137.697 103.292L135.62 105.408Z" fill="#414141"/>
<path d="M117.14 76.998L136.115 34.0132H148.089L167.126 76.998H154.476L139.615 39.9696H144.405L129.545 76.998H117.14ZM127.518 68.6467L130.65 59.6813H151.651L154.783 68.6467H127.518ZM177.563 76.998V43.6541H164.361V34.0132H202.863V43.6541H189.722V76.998H177.563ZM207.393 76.998V34.0132H219.551V67.3572H240.061V76.998H207.393ZM240.134 76.998L259.109 34.0132H271.083L290.119 76.998H277.47L262.609 39.9696H267.399L252.538 76.998H240.134ZM250.512 68.6467L253.644 59.6813H274.645L277.777 68.6467H250.512ZM308.672 77.8577C305.152 77.8577 301.754 77.4279 298.479 76.5682C295.245 75.6676 292.604 74.5213 290.557 73.1294L294.549 64.164C296.473 65.3921 298.684 66.4156 301.181 67.2343C303.719 68.0122 306.237 68.4011 308.734 68.4011C310.412 68.4011 311.763 68.2578 312.787 67.9712C313.81 67.6437 314.547 67.2343 314.997 66.7431C315.489 66.2109 315.734 65.5968 315.734 64.9009C315.734 63.9184 315.284 63.1405 314.383 62.5674C313.483 61.9943 312.316 61.5235 310.883 61.155C309.45 60.7866 307.854 60.4182 306.093 60.0497C304.374 59.6813 302.634 59.2105 300.874 58.6374C299.154 58.0642 297.578 57.3273 296.145 56.4267C294.713 55.4851 293.546 54.2775 292.645 52.8037C291.745 51.289 291.294 49.3854 291.294 47.0928C291.294 44.5138 291.99 42.1803 293.382 40.0925C294.815 38.0046 296.944 36.3262 299.768 35.0571C302.593 33.788 306.114 33.1535 310.33 33.1535C313.155 33.1535 315.919 33.481 318.62 34.136C321.363 34.75 323.799 35.6712 325.928 36.8993L322.182 45.9261C320.135 44.8208 318.109 44.002 316.103 43.4698C314.097 42.8967 312.152 42.6101 310.269 42.6101C308.591 42.6101 307.24 42.7944 306.216 43.1628C305.193 43.4903 304.456 43.9406 304.006 44.5138C303.555 45.0869 303.33 45.7419 303.33 46.4788C303.33 47.4204 303.76 48.1777 304.62 48.7508C305.52 49.283 306.687 49.7333 308.12 50.1018C309.594 50.4293 311.19 50.7773 312.91 51.1457C314.67 51.5142 316.41 51.9849 318.129 52.5581C319.889 53.0903 321.486 53.8271 322.919 54.7687C324.352 55.6694 325.498 56.877 326.358 58.3917C327.258 59.8655 327.709 61.7282 327.709 63.9798C327.709 66.477 326.992 68.79 325.559 70.9188C324.168 73.0066 322.059 74.6851 319.234 75.9541C316.451 77.2232 312.93 77.8577 308.672 77.8577Z" fill="#64AB6C"/>
<g clip-path="url(#clip0_6704_1315)">
<rect x="18.9316" y="48.332" width="75.79" height="75.79" rx="37.895" transform="rotate(-21.1323 18.9316 48.332)" fill="#64AB6C" fill-opacity="0.3"/>
<path fill-rule="evenodd" clip-rule="evenodd" d="M56.4612 40.0319C52.5155 41.557 48.9089 43.8443 45.8472 46.7632C42.7855 49.6821 40.3287 53.1755 38.617 57.0439C36.9054 60.9123 35.9725 65.0799 35.8715 69.3089C35.7706 73.5378 36.5035 77.7452 38.0286 81.6909C39.5537 85.6365 41.8409 89.2432 44.7599 92.3049C47.6788 95.3666 51.1721 97.8234 55.0405 99.535C58.9089 101.247 63.0766 102.18 67.3055 102.281C71.5344 102.381 75.7418 101.649 79.6875 100.123C87.6561 97.0434 94.0749 90.9241 97.5316 83.1115C100.988 75.2989 101.2 66.4332 98.1201 58.4645C95.0401 50.4959 88.9207 44.0772 81.1081 40.6204C73.2956 37.1636 64.4298 36.9519 56.4612 40.0319ZM32.7268 83.7401C29.1033 74.3653 29.3524 63.9351 33.4191 54.744C37.4859 45.5529 45.0372 38.3537 54.412 34.7302C63.7867 31.1067 74.2169 31.3557 83.408 35.4225C92.5992 39.4892 99.7984 47.0406 103.422 56.4153C107.045 65.7901 106.796 76.2203 102.73 85.4114C98.6628 94.6025 91.1115 101.802 81.7367 105.425C72.362 109.049 61.9318 108.8 52.7406 104.733C43.5495 100.666 36.3503 93.1148 32.7268 83.7401Z" fill="#64AB6C"/>
<path fill-rule="evenodd" clip-rule="evenodd" d="M46.0521 46.5574C49.068 43.7292 52.6033 41.5122 56.4626 40.0291C60.3162 38.5311 64.4235 37.794 68.5575 37.8587C70.4076 38.7731 72.2278 39.9651 73.9667 41.3686C77.2208 43.9961 80.3063 47.4521 83.0232 51.5523C84.7253 51.3404 86.3427 51.2127 87.8754 51.1692C90.2756 51.0992 92.5055 51.2322 94.4704 51.6006C95.5484 53.1394 96.4938 54.7867 97.3068 56.5423C96.7999 56.242 96.2614 55.9985 95.7011 55.8164C93.8158 55.1771 91.2077 54.8644 87.9856 54.9605C87.0945 54.9847 86.1685 55.041 85.2077 55.1293C87.7331 59.6453 89.6833 64.4597 91.0127 69.4602C91.7078 68.9286 92.362 68.3984 92.9753 67.8697C95.4244 65.7738 97.1442 63.7883 98.1094 62.0472C98.4343 61.4528 98.6676 60.9137 98.8095 60.43C99.3886 62.2761 99.7968 64.131 100.034 65.9948C98.671 67.7346 97.1313 69.3285 95.4398 70.751C94.3097 71.713 93.1389 72.6263 91.9306 73.4882C93.0019 79.0779 93.1512 84.4236 92.424 89.1216C92.2888 90.007 92.1164 90.8862 91.9074 91.7571C90.1015 93.7417 88.035 95.5182 85.7302 97.0222C87.1378 94.8057 88.1517 91.948 88.6788 88.5408C89.269 84.7533 89.2224 80.4058 88.4897 75.7916C84.5582 78.2461 79.9728 80.5845 74.9608 82.6289L81.4358 99.3811C80.2849 99.9063 79.1038 100.363 77.8989 100.748L71.4239 83.996C66.676 85.7514 61.7879 87.1013 56.812 88.0313C59.3707 91.9439 62.2626 95.1875 65.2481 97.5972C67.9297 99.7641 70.602 101.197 73.1344 101.891C70.4521 102.321 67.726 102.407 65.0218 102.149C64.2815 101.645 63.5626 101.11 62.867 100.546C59.1692 97.5581 55.6844 93.5017 52.7178 88.6446C51.2427 88.8199 49.7609 88.932 48.2762 88.9805C46.0677 89.0654 43.8563 88.9214 41.6774 88.5506C40.5881 86.9903 39.6402 85.336 38.8448 83.6074C39.2726 83.8709 39.8078 84.1128 40.4505 84.3333C42.3358 84.9726 44.9439 85.2853 48.166 85.1892C48.9754 85.168 49.8156 85.1191 50.6866 85.0426C48.3081 80.449 46.5139 75.5758 45.3457 70.5366C44.5753 71.1174 43.8517 71.6973 43.1749 72.2763C40.7272 74.3759 39.0074 76.3614 38.0422 78.1025C37.7149 78.6979 37.4803 79.2374 37.3384 79.7211C36.7643 77.8732 36.3573 76.0178 36.1176 74.1549C37.4806 72.4151 39.0203 70.8212 40.7118 69.3987C41.8739 68.4035 43.1554 67.4107 44.5566 66.4203C43.8111 61.5624 43.7686 56.9259 44.4111 52.7966C44.7292 50.6632 45.2794 48.5711 46.0521 46.5574ZM71.5871 44.321C74.1303 46.3742 76.61 49.0395 78.8713 52.2051C74.0571 53.1338 69.3269 54.4544 64.7278 56.1537L58.3652 39.6925C62.2896 38.9948 66.9245 40.5569 71.5871 44.321ZM81.1294 55.6507C76.0029 56.5265 70.9688 57.8764 66.092 59.6832L73.5937 79.0919C78.9521 76.9007 83.7468 74.3828 87.6924 71.7985C87.1123 69.3582 86.3418 66.8914 85.381 64.3982C84.1624 61.2455 82.7237 58.3108 81.1294 55.6507ZM54.8283 41.0596L61.1879 57.5133C56.6405 59.3505 52.251 61.5563 48.063 64.1087C47.6112 60.2437 47.65 56.605 48.1535 53.3699C49.0702 47.4535 51.4562 43.1864 54.8283 41.0596ZM62.5535 61.0466C57.7293 62.9894 53.0959 65.3761 48.713 68.1759C49.3587 71.3589 50.2743 74.4812 51.4498 77.5088C52.4117 79.9974 53.5089 82.3479 54.715 84.5363C59.3745 83.7988 64.6124 82.439 70.0539 80.4515L62.5535 61.0466Z" fill="#64AB6C"/>
</g>
<defs>
<clipPath id="clip0_6704_1315">
<rect width="96" height="96" fill="white" transform="translate(6 42.6094) rotate(-21.1323)"/>
</clipPath>
</defs>
</svg>
