<svg width="480" height="141" viewBox="0 0 480 141" fill="none" xmlns="http://www.w3.org/2000/svg">
<path d="M153.738 121.002V89.4797H159.772L173.191 111.725H169.994L183.188 89.4797H189.178L189.268 121.002H182.423L182.378 99.9721H183.639L173.101 117.67H169.814L159.051 99.9721H160.582V121.002H153.738ZM208.275 121.362C205.513 121.362 203.081 120.822 200.979 119.741C198.908 118.66 197.302 117.189 196.161 115.328C195.02 113.437 194.45 111.29 194.45 108.888C194.45 106.457 195.005 104.31 196.116 102.449C197.257 100.558 198.803 99.0865 200.754 98.0357C202.706 96.955 204.912 96.4146 207.374 96.4146C209.746 96.4146 211.877 96.925 213.769 97.9457C215.69 98.9364 217.206 100.377 218.317 102.269C219.428 104.13 219.983 106.367 219.983 108.978C219.983 109.249 219.968 109.564 219.938 109.924C219.908 110.254 219.878 110.57 219.848 110.87H200.169V106.772H216.155L213.453 107.988C213.453 106.727 213.198 105.631 212.688 104.7C212.177 103.77 211.472 103.049 210.571 102.539C209.671 101.999 208.62 101.728 207.419 101.728C206.218 101.728 205.152 101.999 204.222 102.539C203.321 103.049 202.616 103.785 202.105 104.745C201.595 105.676 201.34 106.787 201.34 108.078V109.159C201.34 110.48 201.625 111.65 202.195 112.671C202.796 113.662 203.621 114.427 204.672 114.968C205.753 115.478 207.014 115.733 208.455 115.733C209.746 115.733 210.871 115.538 211.832 115.148C212.823 114.758 213.723 114.172 214.534 113.392L218.272 117.444C217.161 118.705 215.765 119.681 214.084 120.372C212.403 121.032 210.466 121.362 208.275 121.362ZM224.66 121.002V96.7749H231.37V103.62L230.424 101.638C231.144 99.9271 232.3 98.6362 233.891 97.7656C235.483 96.8649 237.419 96.4146 239.7 96.4146V102.899C239.4 102.869 239.13 102.854 238.89 102.854C238.65 102.824 238.395 102.809 238.124 102.809C236.203 102.809 234.642 103.365 233.441 104.475C232.27 105.556 231.685 107.252 231.685 109.564V121.002H224.66ZM243.922 121.002V96.7749H250.946V121.002H243.922ZM247.434 93.3975C246.143 93.3975 245.092 93.0222 244.282 92.2717C243.471 91.5211 243.066 90.5905 243.066 89.4797C243.066 88.3689 243.471 87.4383 244.282 86.6877C245.092 85.9372 246.143 85.5619 247.434 85.5619C248.725 85.5619 249.776 85.9222 250.586 86.6427C251.397 87.3332 251.802 88.2338 251.802 89.3446C251.802 90.5154 251.397 91.4911 250.586 92.2717C249.806 93.0222 248.755 93.3975 247.434 93.3975ZM267.869 121.362C265.587 121.362 263.531 120.852 261.699 119.831C259.868 118.78 258.412 117.324 257.331 115.463C256.28 113.602 255.755 111.41 255.755 108.888C255.755 106.337 256.28 104.13 257.331 102.269C258.412 100.407 259.868 98.9664 261.699 97.9457C263.531 96.925 265.587 96.4146 267.869 96.4146C269.91 96.4146 271.696 96.8649 273.227 97.7656C274.758 98.6662 275.944 100.032 276.785 101.863C277.625 103.695 278.046 106.036 278.046 108.888C278.046 111.71 277.64 114.052 276.83 115.913C276.019 117.745 274.849 119.111 273.317 120.011C271.816 120.912 270 121.362 267.869 121.362ZM269.084 115.598C270.225 115.598 271.261 115.328 272.192 114.788C273.122 114.247 273.858 113.482 274.398 112.491C274.969 111.47 275.254 110.269 275.254 108.888C275.254 107.477 274.969 106.277 274.398 105.286C273.858 104.295 273.122 103.53 272.192 102.989C271.261 102.449 270.225 102.179 269.084 102.179C267.914 102.179 266.863 102.449 265.932 102.989C265.002 103.53 264.251 104.295 263.681 105.286C263.14 106.277 262.87 107.477 262.87 108.888C262.87 110.269 263.14 111.47 263.681 112.491C264.251 113.482 265.002 114.247 265.932 114.788C266.863 115.328 267.914 115.598 269.084 115.598ZM275.434 121.002V116.048L275.569 108.843L275.119 101.683V87.5884H282.144V121.002H275.434ZM288.645 121.002V96.7749H295.67V121.002H288.645ZM292.158 93.3975C290.867 93.3975 289.816 93.0222 289.006 92.2717C288.195 91.5211 287.79 90.5905 287.79 89.4797C287.79 88.3689 288.195 87.4383 289.006 86.6877C289.816 85.9372 290.867 85.5619 292.158 85.5619C293.449 85.5619 294.5 85.9222 295.31 86.6427C296.121 87.3332 296.526 88.2338 296.526 89.3446C296.526 90.5154 296.121 91.4911 295.31 92.2717C294.53 93.0222 293.479 93.3975 292.158 93.3975ZM317.051 121.002V116.274L316.6 115.238V106.772C316.6 105.271 316.135 104.1 315.204 103.259C314.304 102.419 312.908 101.999 311.016 101.999C309.725 101.999 308.45 102.209 307.189 102.629C305.958 103.019 304.907 103.56 304.036 104.25L301.515 99.3417C302.836 98.411 304.427 97.6905 306.288 97.1801C308.149 96.6698 310.041 96.4146 311.962 96.4146C315.655 96.4146 318.522 97.2852 320.563 99.0264C322.605 100.768 323.625 103.485 323.625 107.177V121.002H317.051ZM309.665 121.362C307.774 121.362 306.153 121.047 304.802 120.417C303.451 119.756 302.415 118.87 301.695 117.76C300.974 116.649 300.614 115.403 300.614 114.022C300.614 112.581 300.959 111.32 301.65 110.239C302.37 109.159 303.496 108.318 305.027 107.718C306.558 107.087 308.555 106.772 311.016 106.772H317.456V110.87H311.782C310.131 110.87 308.99 111.14 308.36 111.68C307.759 112.221 307.459 112.896 307.459 113.707C307.459 114.607 307.804 115.328 308.495 115.868C309.215 116.379 310.191 116.634 311.422 116.634C312.593 116.634 313.643 116.364 314.574 115.823C315.505 115.253 316.18 114.427 316.6 113.347L317.681 116.589C317.171 118.15 316.24 119.336 314.889 120.146C313.538 120.957 311.797 121.362 309.665 121.362ZM344.709 96.4146C346.63 96.4146 348.341 96.8049 349.842 97.5854C351.373 98.336 352.574 99.5068 353.445 101.098C354.315 102.659 354.751 104.67 354.751 107.132V121.002H347.726V108.213C347.726 106.262 347.29 104.821 346.42 103.89C345.579 102.959 344.378 102.494 342.817 102.494C341.706 102.494 340.701 102.734 339.8 103.214C338.93 103.665 338.239 104.37 337.729 105.331C337.248 106.292 337.008 107.522 337.008 109.023V121.002H329.983V96.7749H336.693V103.485L335.432 101.458C336.303 99.837 337.549 98.5911 339.17 97.7205C340.791 96.8499 342.637 96.4146 344.709 96.4146Z" fill="#414141"/>
<path d="M125.57 105.157C124.651 105.157 123.862 104.963 123.202 104.575C122.542 104.187 122.037 103.598 121.688 102.809C121.339 102.006 121.164 100.997 121.164 99.7806C121.164 98.5513 121.345 97.5419 121.707 96.7526C122.083 95.9632 122.6 95.3745 123.26 94.9863C123.92 94.5981 124.69 94.404 125.57 94.404C126.553 94.404 127.433 94.6239 128.21 95.0639C128.999 95.5039 129.62 96.125 130.073 96.9273C130.539 97.7296 130.772 98.6807 130.772 99.7806C130.772 100.868 130.539 101.812 130.073 102.614C129.62 103.417 128.999 104.044 128.21 104.497C127.433 104.937 126.553 105.157 125.57 105.157ZM119.398 105.002V90.5995H122.426V96.675L122.231 99.7612L122.29 102.867V105.002H119.398ZM125.046 102.673C125.551 102.673 125.997 102.556 126.385 102.323C126.786 102.09 127.103 101.76 127.336 101.333C127.582 100.893 127.705 100.376 127.705 99.7806C127.705 99.1724 127.582 98.6548 127.336 98.2278C127.103 97.8007 126.786 97.4708 126.385 97.2379C125.997 97.0049 125.551 96.8885 125.046 96.8885C124.541 96.8885 124.088 97.0049 123.687 97.2379C123.286 97.4708 122.969 97.8007 122.736 98.2278C122.503 98.6548 122.387 99.1724 122.387 99.7806C122.387 100.376 122.503 100.893 122.736 101.333C122.969 101.76 123.286 102.09 123.687 102.323C124.088 102.556 124.541 102.673 125.046 102.673ZM133.835 108.923C133.291 108.923 132.754 108.839 132.223 108.67C131.693 108.502 131.259 108.269 130.923 107.972L132.029 105.817C132.262 106.024 132.528 106.186 132.825 106.302C133.136 106.419 133.44 106.477 133.737 106.477C134.164 106.477 134.501 106.374 134.747 106.167C135.006 105.972 135.239 105.642 135.446 105.177L135.989 103.896L136.222 103.566L139.968 94.5592H142.88L138.163 105.642C137.827 106.484 137.438 107.144 136.998 107.622C136.571 108.101 136.093 108.438 135.562 108.632C135.044 108.826 134.469 108.923 133.835 108.923ZM135.62 105.41L130.962 94.5592H134.087L137.697 103.294L135.62 105.41Z" fill="#414141"/>
<path d="M122.298 77.002V34.0171H144.282C149.932 34.0171 154.148 35.061 156.932 37.1488C159.716 39.1957 161.108 41.8976 161.108 45.2545C161.108 47.4652 160.514 49.4098 159.327 51.0882C158.181 52.7257 156.543 54.0357 154.414 55.0183C152.327 55.9598 149.829 56.4306 146.923 56.4306L148.151 53.4831C151.18 53.4831 153.821 53.9539 156.072 54.8954C158.324 55.7961 160.064 57.1266 161.292 58.8869C162.561 60.6063 163.196 62.7146 163.196 65.2118C163.196 68.9372 161.681 71.8438 158.651 73.9316C155.663 75.9785 151.283 77.002 145.51 77.002H122.298ZM134.334 68.2208H144.528C146.616 68.2208 148.192 67.8728 149.256 67.1768C150.361 66.44 150.914 65.3346 150.914 63.8609C150.914 62.3871 150.361 61.3022 149.256 60.6063C148.192 59.8694 146.616 59.501 144.528 59.501H133.475V51.0882H142.686C144.733 51.0882 146.268 50.7402 147.291 50.0443C148.315 49.3483 148.826 48.3044 148.826 46.9125C148.826 45.5206 148.315 44.4972 147.291 43.8422C146.268 43.1462 144.733 42.7983 142.686 42.7983H134.334V68.2208ZM180.669 50.6584H200.626V59.7466H180.669V50.6584ZM181.529 67.6067H204.004V77.002H169.493V34.0171H203.206V43.4123H181.529V67.6067ZM205.593 77.002L224.567 34.0171H236.542L255.578 77.002H242.928L228.068 39.9735H232.857L217.997 77.002H205.593ZM215.971 68.6506L219.102 59.6852H240.103L243.235 68.6506H215.971ZM279.856 77.8617C276.458 77.8617 273.306 77.3295 270.4 76.2651C267.534 75.1597 265.037 73.6041 262.908 71.5981C260.82 69.5922 259.183 67.2382 257.995 64.5363C256.808 61.7935 256.215 58.7845 256.215 55.5095C256.215 52.2345 256.808 49.246 257.995 46.5441C259.183 43.8012 260.82 41.4268 262.908 39.4209C265.037 37.4149 267.534 35.8797 270.4 34.8154C273.306 33.71 276.458 33.1574 279.856 33.1574C283.827 33.1574 287.368 33.8533 290.48 35.2452C293.632 36.6371 296.252 38.6431 298.34 41.2631L290.603 48.2635C289.211 46.626 287.675 45.3774 285.997 44.5177C284.36 43.658 282.517 43.2281 280.47 43.2281C278.71 43.2281 277.093 43.5147 275.619 44.0878C274.145 44.6609 272.876 45.5002 271.812 46.6055C270.789 47.6699 269.97 48.9594 269.356 50.4741C268.783 51.9888 268.496 53.6673 268.496 55.5095C268.496 57.3517 268.783 59.0302 269.356 60.5449C269.97 62.0596 270.789 63.3696 271.812 64.4749C272.876 65.5393 274.145 66.3581 275.619 66.9312C277.093 67.5043 278.71 67.7909 280.47 67.7909C282.517 67.7909 284.36 67.3611 285.997 66.5014C287.675 65.6417 289.211 64.3931 290.603 62.7555L298.34 69.7559C296.252 72.335 293.632 74.341 290.48 75.7738C287.368 77.1657 283.827 77.8617 279.856 77.8617ZM324.538 77.8617C321.099 77.8617 317.927 77.309 315.02 76.2037C312.113 75.0983 309.575 73.5427 307.406 71.5367C305.277 69.4898 303.619 67.1154 302.432 64.4135C301.244 61.7116 300.651 58.7436 300.651 55.5095C300.651 52.2754 301.244 49.3074 302.432 46.6055C303.619 43.9036 305.277 41.5497 307.406 39.5437C309.575 37.4968 312.113 35.9207 315.02 34.8154C317.927 33.71 321.099 33.1574 324.538 33.1574C328.018 33.1574 331.19 33.71 334.056 34.8154C336.963 35.9207 339.48 37.4968 341.609 39.5437C343.738 41.5497 345.396 43.9036 346.583 46.6055C347.811 49.3074 348.425 52.2754 348.425 55.5095C348.425 58.7436 347.811 61.7321 346.583 64.4749C345.396 67.1768 343.738 69.5308 341.609 71.5367C339.48 73.5427 336.963 75.0983 334.056 76.2037C331.19 77.309 328.018 77.8617 324.538 77.8617ZM324.538 67.7909C326.176 67.7909 327.69 67.5043 329.082 66.9312C330.515 66.3581 331.743 65.5393 332.767 64.4749C333.831 63.3696 334.65 62.0596 335.223 60.5449C335.837 59.0302 336.144 57.3517 336.144 55.5095C336.144 53.6264 335.837 51.9479 335.223 50.4741C334.65 48.9594 333.831 47.6699 332.767 46.6055C331.743 45.5002 330.515 44.6609 329.082 44.0878C327.69 43.5147 326.176 43.2281 324.538 43.2281C322.901 43.2281 321.365 43.5147 319.933 44.0878C318.541 44.6609 317.312 45.5002 316.248 46.6055C315.225 47.6699 314.406 48.9594 313.792 50.4741C313.219 51.9479 312.932 53.6264 312.932 55.5095C312.932 57.3517 313.219 59.0302 313.792 60.5449C314.406 62.0596 315.225 63.3696 316.248 64.4749C317.312 65.5393 318.541 66.3581 319.933 66.9312C321.365 67.5043 322.901 67.7909 324.538 67.7909ZM354.793 77.002V34.0171H364.803L388.506 62.6327H383.778V34.0171H395.691V77.002H385.681L361.978 48.3863H366.706V77.002H354.793Z" fill="#998DF2"/>
<g clip-path="url(#clip0_6704_1294)">
<rect x="18.9316" y="48.334" width="75.79" height="75.79" rx="37.895" transform="rotate(-21.1323 18.9316 48.334)" fill="#998DF2" fill-opacity="0.3"/>
<path fill-rule="evenodd" clip-rule="evenodd" d="M56.4612 40.0339C52.5155 41.559 48.9089 43.8462 45.8472 46.7652C42.7855 49.6841 40.3287 53.1775 38.617 57.0458C36.9054 60.9142 35.9725 65.0819 35.8715 69.3108C35.7706 73.5397 36.5035 77.7472 38.0286 81.6928C39.5537 85.6385 41.8409 89.2451 44.7599 92.3068C47.6788 95.3685 51.1721 97.8253 55.0405 99.537C58.9089 101.249 63.0766 102.182 67.3055 102.282C71.5344 102.383 75.7418 101.65 79.6875 100.125C87.6561 97.0454 94.0749 90.926 97.5316 83.1135C100.988 75.3009 101.2 66.4351 98.1201 58.4665C95.0401 50.4979 88.9207 44.0791 81.1081 40.6223C73.2956 37.1656 64.4298 36.9539 56.4612 40.0339ZM32.7268 83.742C29.1033 74.3673 29.3524 63.9371 33.4191 54.746C37.4859 45.5548 45.0372 38.3556 54.412 34.7321C63.7867 31.1087 74.2169 31.3577 83.408 35.4244C92.5992 39.4912 99.7984 47.0425 103.422 56.4173C107.045 65.792 106.796 76.2222 102.73 85.4133C98.6628 94.6045 91.1115 101.804 81.7367 105.427C72.362 109.051 61.9318 108.802 52.7406 104.735C43.5495 100.668 36.3503 93.1168 32.7268 83.742Z" fill="#998DF2"/>
<path fill-rule="evenodd" clip-rule="evenodd" d="M46.0521 46.5593C49.068 43.7311 52.6033 41.5142 56.4626 40.0311C60.3162 38.533 64.4235 37.7959 68.5575 37.8606C70.4076 38.7751 72.2278 39.9671 73.9667 41.3705C77.2208 43.998 80.3063 47.4541 83.0232 51.5543C84.7253 51.3424 86.3427 51.2147 87.8754 51.1712C90.2756 51.1012 92.5055 51.2342 94.4704 51.6025C95.5484 53.1414 96.4938 54.7887 97.3068 56.5443C96.7999 56.2439 96.2614 56.0005 95.7011 55.8184C93.8158 55.1791 91.2077 54.8663 87.9856 54.9624C87.0945 54.9867 86.1685 55.043 85.2077 55.1313C87.7331 59.6473 89.6833 64.4617 91.0127 69.4622C91.7078 68.9305 92.362 68.4003 92.9753 67.8717C95.4244 65.7758 97.1442 63.7902 98.1094 62.0491C98.4343 61.4547 98.6676 60.9157 98.8095 60.432C99.3886 62.278 99.7968 64.1329 100.034 65.9967C98.671 67.7365 97.1313 69.3304 95.4398 70.7529C94.3097 71.715 93.1389 72.6282 91.9306 73.4901C93.0019 79.0798 93.1512 84.4255 92.424 89.1236C92.2888 90.0089 92.1164 90.8882 91.9074 91.7591C90.1015 93.7436 88.035 95.5201 85.7302 97.0242C87.1378 94.8077 88.1517 91.95 88.6788 88.5428C89.269 84.7553 89.2224 80.4077 88.4897 75.7936C84.5582 78.248 79.9728 80.5864 74.9608 82.6308L81.4358 99.383C80.2849 99.9083 79.1038 100.365 77.8989 100.75L71.4239 83.9979C66.676 85.7534 61.7879 87.1033 56.812 88.0332C59.3707 91.9459 62.2626 95.1894 65.2481 97.5991C67.9297 99.7661 70.602 101.199 73.1344 101.893C70.4521 102.323 67.726 102.409 65.0218 102.151C64.2815 101.647 63.5626 101.112 62.867 100.548C59.1692 97.5601 55.6844 93.5036 52.7178 88.6465C51.2427 88.8219 49.7609 88.9339 48.2762 88.9824C46.0677 89.0674 43.8563 88.9233 41.6774 88.5525C40.5881 86.9923 39.6402 85.338 38.8448 83.6093C39.2726 83.8728 39.8078 84.1148 40.4505 84.3352C42.3358 84.9745 44.9439 85.2873 48.166 85.1912C48.9754 85.1699 49.8156 85.1211 50.6866 85.0446C48.3081 80.451 46.5139 75.5778 45.3457 70.5386C44.5753 71.1194 43.8517 71.6993 43.1749 72.2782C40.7272 74.3778 39.0074 76.3634 38.0422 78.1045C37.7149 78.6999 37.4803 79.2394 37.3384 79.723C36.7643 77.8751 36.3573 76.0197 36.1176 74.1569C37.4806 72.4171 39.0203 70.8232 40.7118 69.4007C41.8739 68.4055 43.1554 67.4127 44.5566 66.4223C43.8111 61.5643 43.7686 56.9278 44.4111 52.7985C44.7292 50.6652 45.2794 48.573 46.0521 46.5593ZM71.5871 44.323C74.1303 46.3761 76.61 49.0414 78.8713 52.207C74.0571 53.1358 69.3269 54.4564 64.7278 56.1557L58.3652 39.6945C62.2896 38.9967 66.9245 40.5588 71.5871 44.323ZM81.1294 55.6527C76.0029 56.5284 70.9688 57.8784 66.092 59.6852L73.5937 79.0939C78.9521 76.9027 83.7468 74.3848 87.6924 71.8005C87.1123 69.3602 86.3418 66.8934 85.381 64.4001C84.1624 61.2474 82.7237 58.3128 81.1294 55.6527ZM54.8283 41.0616L61.1879 57.5153C56.6405 59.3525 52.251 61.5583 48.063 64.1107C47.6112 60.2456 47.65 56.6069 48.1535 53.3718C49.0702 47.4555 51.4562 43.1883 54.8283 41.0616ZM62.5535 61.0486C57.7293 62.9914 53.0959 65.3781 48.713 68.1778C49.3587 71.3609 50.2743 74.4831 51.4498 77.5108C52.4117 79.9994 53.5089 82.3499 54.715 84.5382C59.3745 83.8008 64.6124 82.4409 70.0539 80.4535L62.5535 61.0486Z" fill="#998DF2"/>
</g>
<defs>
<clipPath id="clip0_6704_1294">
<rect width="96" height="96" fill="white" transform="translate(6 42.6113) rotate(-21.1323)"/>
</clipPath>
</defs>
</svg>
