<svg width="480" height="141" viewBox="0 0 480 141" fill="none" xmlns="http://www.w3.org/2000/svg">
<g clip-path="url(#clip0_6704_1293)">
<path d="M145.318 122.674V90.3875H151.499L165.244 113.172H161.969L175.483 90.3875H181.618L181.71 122.674H174.699L174.653 101.134H175.944L165.152 119.261H161.785L150.761 101.134H152.329V122.674H145.318ZM201.177 123.043C198.349 123.043 195.858 122.489 193.705 121.382C191.584 120.275 189.939 118.769 188.77 116.862C187.602 114.925 187.018 112.727 187.018 110.267C187.018 107.776 187.586 105.577 188.724 103.671C189.893 101.734 191.476 100.227 193.475 99.1509C195.474 98.0439 197.734 97.4905 200.255 97.4905C202.684 97.4905 204.867 98.0132 206.805 99.0587C208.772 100.073 210.325 101.549 211.463 103.487C212.601 105.393 213.17 107.684 213.17 110.359C213.17 110.636 213.154 110.958 213.123 111.327C213.093 111.666 213.062 111.989 213.031 112.296H192.875V108.099H209.249L206.482 109.344C206.482 108.053 206.22 106.93 205.698 105.977C205.175 105.024 204.452 104.286 203.53 103.763C202.607 103.21 201.531 102.933 200.301 102.933C199.071 102.933 197.98 103.21 197.026 103.763C196.104 104.286 195.381 105.039 194.859 106.023C194.336 106.977 194.074 108.114 194.074 109.436V110.543C194.074 111.896 194.367 113.096 194.951 114.141C195.566 115.156 196.411 115.94 197.488 116.493C198.595 117.016 199.886 117.277 201.362 117.277C202.684 117.277 203.837 117.078 204.821 116.678C205.836 116.278 206.758 115.678 207.589 114.879L211.417 119.03C210.279 120.322 208.849 121.321 207.127 122.028C205.405 122.705 203.422 123.043 201.177 123.043ZM217.96 122.674V97.8595H224.832V104.87L223.864 102.841C224.602 101.088 225.786 99.7659 227.415 98.8742C229.045 97.9517 231.028 97.4905 233.365 97.4905V104.132C233.058 104.101 232.781 104.086 232.535 104.086C232.289 104.055 232.028 104.04 231.751 104.04C229.783 104.04 228.184 104.609 226.954 105.747C225.755 106.854 225.155 108.591 225.155 110.958V122.674H217.96ZM237.688 122.674V97.8595H244.884V122.674H237.688ZM241.286 94.4002C239.964 94.4002 238.888 94.0158 238.057 93.2471C237.227 92.4784 236.812 91.5252 236.812 90.3875C236.812 89.2498 237.227 88.2965 238.057 87.5278C238.888 86.7591 239.964 86.3747 241.286 86.3747C242.608 86.3747 243.684 86.7437 244.515 87.4817C245.345 88.1889 245.76 89.1114 245.76 90.2491C245.76 91.4483 245.345 92.4476 244.515 93.2471C243.715 94.0158 242.639 94.4002 241.286 94.4002ZM262.216 123.043C259.879 123.043 257.773 122.52 255.897 121.475C254.021 120.398 252.53 118.907 251.423 117.001C250.347 115.094 249.809 112.85 249.809 110.267C249.809 107.653 250.347 105.393 251.423 103.487C252.53 101.58 254.021 100.104 255.897 99.0587C257.773 98.0132 259.879 97.4905 262.216 97.4905C264.307 97.4905 266.136 97.9517 267.705 98.8742C269.273 99.7966 270.487 101.196 271.348 103.071C272.209 104.947 272.64 107.345 272.64 110.267C272.64 113.157 272.225 115.555 271.395 117.462C270.564 119.338 269.365 120.737 267.797 121.659C266.259 122.582 264.399 123.043 262.216 123.043ZM263.461 117.139C264.63 117.139 265.691 116.862 266.644 116.309C267.597 115.755 268.35 114.971 268.904 113.957C269.488 112.911 269.78 111.681 269.78 110.267C269.78 108.821 269.488 107.591 268.904 106.577C268.35 105.562 267.597 104.778 266.644 104.224C265.691 103.671 264.63 103.394 263.461 103.394C262.262 103.394 261.186 103.671 260.233 104.224C259.279 104.778 258.511 105.562 257.927 106.577C257.373 107.591 257.096 108.821 257.096 110.267C257.096 111.681 257.373 112.911 257.927 113.957C258.511 114.971 259.279 115.755 260.233 116.309C261.186 116.862 262.262 117.139 263.461 117.139ZM269.965 122.674V117.6L270.103 110.221L269.642 102.887V88.4503H276.837V122.674H269.965ZM283.497 122.674V97.8595H290.692V122.674H283.497ZM287.094 94.4002C285.772 94.4002 284.696 94.0158 283.866 93.2471C283.035 92.4784 282.62 91.5252 282.62 90.3875C282.62 89.2498 283.035 88.2965 283.866 87.5278C284.696 86.7591 285.772 86.3747 287.094 86.3747C288.416 86.3747 289.493 86.7437 290.323 87.4817C291.153 88.1889 291.568 89.1114 291.568 90.2491C291.568 91.4483 291.153 92.4476 290.323 93.2471C289.523 94.0158 288.447 94.4002 287.094 94.4002ZM312.59 122.674V117.831L312.129 116.77V108.099C312.129 106.561 311.652 105.362 310.699 104.501C309.777 103.64 308.347 103.21 306.41 103.21C305.088 103.21 303.781 103.425 302.489 103.855C301.229 104.255 300.152 104.809 299.261 105.516L296.678 100.488C298.031 99.5353 299.66 98.7973 301.567 98.2746C303.473 97.7518 305.41 97.4905 307.378 97.4905C311.16 97.4905 314.097 98.3822 316.188 100.166C318.279 101.949 319.324 104.732 319.324 108.514V122.674H312.59ZM305.026 123.043C303.089 123.043 301.428 122.72 300.045 122.074C298.661 121.398 297.6 120.491 296.862 119.353C296.124 118.215 295.755 116.939 295.755 115.525C295.755 114.049 296.109 112.757 296.816 111.65C297.554 110.543 298.707 109.682 300.275 109.067C301.844 108.422 303.888 108.099 306.41 108.099H313.005V112.296H307.194C305.503 112.296 304.334 112.573 303.688 113.126C303.074 113.68 302.766 114.372 302.766 115.202C302.766 116.124 303.12 116.862 303.827 117.416C304.565 117.938 305.564 118.2 306.825 118.2C308.024 118.2 309.1 117.923 310.054 117.37C311.007 116.785 311.699 115.94 312.129 114.833L313.236 118.154C312.713 119.753 311.76 120.967 310.376 121.797C308.993 122.628 307.209 123.043 305.026 123.043ZM340.919 97.4905C342.887 97.4905 344.639 97.8902 346.177 98.6897C347.745 99.4584 348.975 100.658 349.867 102.287C350.758 103.886 351.204 105.946 351.204 108.468V122.674H344.009V109.575C344.009 107.576 343.563 106.1 342.671 105.147C341.81 104.194 340.58 103.717 338.982 103.717C337.844 103.717 336.814 103.963 335.891 104.455C335 104.916 334.292 105.639 333.77 106.623C333.278 107.607 333.032 108.868 333.032 110.405V122.674H325.836V97.8595H332.709V104.732L331.417 102.656C332.309 100.996 333.585 99.7198 335.246 98.828C336.906 97.9363 338.797 97.4905 340.919 97.4905Z" fill="#414141"/>
<path d="M116.468 106.052C115.527 106.052 114.719 105.853 114.043 105.455C113.367 105.058 112.85 104.455 112.492 103.646C112.134 102.824 111.955 101.791 111.955 100.545C111.955 99.2855 112.141 98.2517 112.512 97.4433C112.896 96.6348 113.427 96.0317 114.103 95.6341C114.778 95.2365 115.567 95.0377 116.468 95.0377C117.476 95.0377 118.377 95.263 119.172 95.7136C119.981 96.1643 120.617 96.8004 121.081 97.6222C121.558 98.4439 121.796 99.4181 121.796 100.545C121.796 101.658 121.558 102.626 121.081 103.447C120.617 104.269 119.981 104.912 119.172 105.376C118.377 105.826 117.476 106.052 116.468 106.052ZM110.146 105.893V91.141H113.248V97.3637L113.049 100.525L113.108 103.706V105.893H110.146ZM115.932 103.507C116.448 103.507 116.906 103.388 117.303 103.149C117.714 102.91 118.039 102.572 118.277 102.135C118.529 101.684 118.655 101.154 118.655 100.545C118.655 99.9217 118.529 99.3916 118.277 98.9542C118.039 98.5168 117.714 98.1788 117.303 97.9403C116.906 97.7017 116.448 97.5824 115.932 97.5824C115.415 97.5824 114.951 97.7017 114.54 97.9403C114.129 98.1788 113.804 98.5168 113.566 98.9542C113.327 99.3916 113.208 99.9217 113.208 100.545C113.208 101.154 113.327 101.684 113.566 102.135C113.804 102.572 114.129 102.91 114.54 103.149C114.951 103.388 115.415 103.507 115.932 103.507ZM124.933 109.908C124.377 109.908 123.827 109.822 123.283 109.65C122.74 109.478 122.296 109.239 121.951 108.934L123.084 106.728C123.323 106.94 123.595 107.105 123.899 107.225C124.217 107.344 124.529 107.404 124.834 107.404C125.271 107.404 125.616 107.297 125.868 107.085C126.133 106.887 126.371 106.549 126.583 106.072L127.14 104.759L127.379 104.421L131.216 95.1967H134.198L129.367 106.549C129.022 107.41 128.624 108.086 128.174 108.576C127.736 109.067 127.246 109.411 126.703 109.61C126.172 109.809 125.583 109.908 124.933 109.908ZM126.762 106.31L121.991 95.1967H125.192L128.889 104.143L126.762 106.31Z" fill="#414141"/>
<path d="M135.068 78.1012C131.588 78.1012 128.359 77.5561 125.382 76.466C122.447 75.3338 119.889 73.7405 117.709 71.6859C115.57 69.6313 113.893 67.2203 112.677 64.4529C111.461 61.6436 110.853 58.5617 110.853 55.2073C110.853 51.8528 111.461 48.7919 112.677 46.0245C113.893 43.2152 115.57 40.7832 117.709 38.7286C119.889 36.6741 122.447 35.1017 125.382 34.0115C128.359 32.8794 131.588 32.3133 135.068 32.3133C139.135 32.3133 142.762 33.0261 145.949 34.4518C149.178 35.8774 151.861 37.932 154 40.6155L146.075 47.7856C144.649 46.1084 143.077 44.8295 141.358 43.949C139.68 43.0684 137.794 42.6282 135.697 42.6282C133.894 42.6282 132.238 42.9217 130.728 43.5087C129.219 44.0957 127.919 44.9553 126.829 46.0874C125.78 47.1776 124.942 48.4984 124.313 50.0498C123.726 51.6013 123.432 53.3204 123.432 55.2073C123.432 57.0941 123.726 58.8133 124.313 60.3647C124.942 61.9161 125.78 63.2579 126.829 64.39C127.919 65.4802 129.219 66.3188 130.728 66.9058C132.238 67.4929 133.894 67.7864 135.697 67.7864C137.794 67.7864 139.68 67.3461 141.358 66.4656C143.077 65.585 144.649 64.3062 146.075 62.6289L154 69.799C151.861 72.4406 149.178 74.4952 145.949 75.9628C142.762 77.3884 139.135 78.1012 135.068 78.1012ZM180.833 78.1012C177.311 78.1012 174.061 77.5352 171.084 76.4031C168.107 75.2709 165.507 73.6776 163.285 71.623C161.105 69.5265 159.406 67.0945 158.191 64.3271C156.975 61.5597 156.367 58.5198 156.367 55.2073C156.367 51.8948 156.975 48.8548 158.191 46.0874C159.406 43.32 161.105 40.909 163.285 38.8544C165.507 36.7579 168.107 35.1436 171.084 34.0115C174.061 32.8794 177.311 32.3133 180.833 32.3133C184.397 32.3133 187.647 32.8794 190.582 34.0115C193.559 35.1436 196.137 36.7579 198.318 38.8544C200.498 40.909 202.196 43.32 203.412 46.0874C204.67 48.8548 205.299 51.8948 205.299 55.2073C205.299 58.5198 204.67 61.5807 203.412 64.39C202.196 67.1574 200.498 69.5684 198.318 71.623C196.137 73.6776 193.559 75.2709 190.582 76.4031C187.647 77.5352 184.397 78.1012 180.833 78.1012ZM180.833 67.7864C182.51 67.7864 184.062 67.4929 185.487 66.9058C186.955 66.3188 188.213 65.4802 189.261 64.39C190.351 63.2579 191.19 61.9161 191.777 60.3647C192.406 58.8133 192.72 57.0941 192.72 55.2073C192.72 53.2785 192.406 51.5593 191.777 50.0498C191.19 48.4984 190.351 47.1776 189.261 46.0874C188.213 44.9553 186.955 44.0957 185.487 43.5087C184.062 42.9217 182.51 42.6282 180.833 42.6282C179.156 42.6282 177.583 42.9217 176.116 43.5087C174.69 44.0957 173.432 44.9553 172.342 46.0874C171.294 47.1776 170.455 48.4984 169.826 50.0498C169.239 51.5593 168.946 53.2785 168.946 55.2073C168.946 57.0941 169.239 58.8133 169.826 60.3647C170.455 61.9161 171.294 63.2579 172.342 64.39C173.432 65.4802 174.69 66.3188 176.116 66.9058C177.583 67.4929 179.156 67.7864 180.833 67.7864ZM211.822 77.2207V33.1938H222.074L240.313 63.1321H234.904L252.641 33.1938H262.893L263.019 77.2207H251.572L251.446 50.6159H253.396L240.125 72.8809H234.59L220.942 50.6159H223.332V77.2207H211.822ZM271.83 77.2207V33.1938H291.957C295.982 33.1938 299.442 33.8438 302.335 35.1436C305.27 36.4434 307.534 38.3303 309.127 40.8042C310.721 43.2362 311.517 46.1294 311.517 49.4838C311.517 52.7963 310.721 55.6685 309.127 58.1005C307.534 60.5324 305.27 62.4193 302.335 63.7611C299.442 65.0609 295.982 65.7108 291.957 65.7108H278.749L284.284 60.3018V77.2207H271.83ZM284.284 61.6226L278.749 55.8991H291.202C293.802 55.8991 295.731 55.3331 296.989 54.2009C298.288 53.0688 298.938 51.4964 298.938 49.4838C298.938 47.4292 298.288 45.8358 296.989 44.7037C295.731 43.5716 293.802 43.0055 291.202 43.0055H278.749L284.284 37.2821V61.6226ZM310.095 77.2207L329.53 33.1938H341.794L361.292 77.2207H348.335L333.115 39.2947H338.021L322.8 77.2207H310.095ZM320.724 68.6669L323.932 59.4842H345.442L348.65 68.6669H320.724ZM380.295 78.1012C376.689 78.1012 373.208 77.661 369.854 76.7804C366.542 75.858 363.837 74.6839 361.741 73.2583L365.829 64.0755C367.799 65.3335 370.064 66.3817 372.621 67.2203C375.221 68.017 377.8 68.4153 380.358 68.4153C382.077 68.4153 383.46 68.2686 384.509 67.9751C385.557 67.6396 386.312 67.2203 386.773 66.7172C387.276 66.1721 387.528 65.5431 387.528 64.8303C387.528 63.824 387.066 63.0273 386.144 62.4403C385.222 61.8532 384.027 61.371 382.559 60.9937C381.091 60.6163 379.456 60.2389 377.653 59.8615C375.892 59.4842 374.11 59.002 372.307 58.4149C370.546 57.8279 368.932 57.0732 367.464 56.1507C365.996 55.1863 364.801 53.9494 363.879 52.4399C362.957 50.8884 362.495 48.9387 362.495 46.5906C362.495 43.949 363.208 41.5589 364.634 39.4205C366.101 37.2821 368.282 35.5629 371.175 34.2631C374.068 32.9632 377.674 32.3133 381.993 32.3133C384.886 32.3133 387.716 32.6487 390.484 33.3196C393.293 33.9486 395.788 34.892 397.968 36.1499L394.132 45.3956C392.035 44.2635 389.96 43.4248 387.905 42.8798C385.85 42.2927 383.859 41.9992 381.93 41.9992C380.211 41.9992 378.827 42.1879 377.779 42.5653C376.731 42.9007 375.976 43.3619 375.515 43.949C375.053 44.536 374.823 45.2069 374.823 45.9616C374.823 46.926 375.263 47.7017 376.144 48.2888C377.066 48.8339 378.261 49.2951 379.729 49.6725C381.238 50.0079 382.873 50.3643 384.635 50.7417C386.438 51.1191 388.22 51.6013 389.981 52.1883C391.784 52.7334 393.419 53.4881 394.886 54.4525C396.354 55.375 397.528 56.6119 398.409 58.1634C399.331 59.6729 399.792 61.5807 399.792 63.8869C399.792 66.4446 399.059 68.8137 397.591 70.994C396.165 73.1325 394.006 74.8516 391.113 76.1515C388.261 77.4513 384.655 78.1012 380.295 78.1012ZM421.017 78.1012C417.411 78.1012 413.931 77.661 410.576 76.7804C407.264 75.858 404.559 74.6839 402.463 73.2583L406.551 64.0755C408.522 65.3335 410.786 66.3817 413.344 67.2203C415.944 68.017 418.522 68.4153 421.08 68.4153C422.799 68.4153 424.183 68.2686 425.231 67.9751C426.279 67.6396 427.034 67.2203 427.495 66.7172C427.999 66.1721 428.25 65.5431 428.25 64.8303C428.25 63.824 427.789 63.0273 426.866 62.4403C425.944 61.8532 424.749 61.371 423.281 60.9937C421.814 60.6163 420.178 60.2389 418.375 59.8615C416.614 59.4842 414.832 59.002 413.029 58.4149C411.268 57.8279 409.654 57.0732 408.186 56.1507C406.719 55.1863 405.524 53.9494 404.601 52.4399C403.679 50.8884 403.218 48.9387 403.218 46.5906C403.218 43.949 403.93 41.5589 405.356 39.4205C406.824 37.2821 409.004 35.5629 411.897 34.2631C414.79 32.9632 418.396 32.3133 422.715 32.3133C425.608 32.3133 428.439 32.6487 431.206 33.3196C434.016 33.9486 436.51 34.892 438.691 36.1499L434.854 45.3956C432.758 44.2635 430.682 43.4248 428.627 42.8798C426.573 42.2927 424.581 41.9992 422.652 41.9992C420.933 41.9992 419.55 42.1879 418.501 42.5653C417.453 42.9007 416.698 43.3619 416.237 43.949C415.776 44.536 415.545 45.2069 415.545 45.9616C415.545 46.926 415.985 47.7017 416.866 48.2888C417.788 48.8339 418.983 49.2951 420.451 49.6725C421.961 50.0079 423.596 50.3643 425.357 50.7417C427.16 51.1191 428.942 51.6013 430.703 52.1883C432.506 52.7334 434.141 53.4881 435.609 54.4525C437.076 55.375 438.25 56.6119 439.131 58.1634C440.053 59.6729 440.515 61.5807 440.515 63.8869C440.515 66.4446 439.781 68.8137 438.313 70.994C436.888 73.1325 434.728 74.8516 431.835 76.1515C428.984 77.4513 425.378 78.1012 421.017 78.1012Z" fill="#FA756D"/>
<g clip-path="url(#clip1_6704_1293)">
<rect x="7.24414" y="48.3125" width="77.6272" height="77.6272" rx="38.8136" transform="rotate(-21.1323 7.24414 48.3125)" fill="#FA756D" fill-opacity="0.3"/>
<path fill-rule="evenodd" clip-rule="evenodd" d="M45.6841 39.8097C41.6428 41.3718 37.9487 43.7145 34.8128 46.7042C31.6769 49.6939 29.1605 53.2719 27.4074 57.2341C25.6543 61.1962 24.6988 65.4649 24.5953 69.7963C24.4919 74.1278 25.2427 78.4372 26.8047 82.4785C28.3667 86.5198 30.7095 90.2139 33.6991 93.3498C36.6888 96.4857 40.2669 99.0021 44.229 100.755C48.1912 102.508 52.4599 103.464 56.7913 103.567C61.1227 103.671 65.4322 102.92 69.4735 101.358C77.6353 98.2032 84.2096 91.9355 87.7501 83.9336C91.2907 75.9316 91.5075 66.8509 88.3529 58.6891C85.1982 50.5274 78.9305 43.953 70.9285 40.4125C62.9266 36.8719 53.8459 36.6551 45.6841 39.8097ZM21.3744 84.5774C17.6631 74.9754 17.9182 64.2924 22.0835 54.8784C26.2488 45.4645 33.9832 38.0908 43.5852 34.3795C53.1872 30.6682 63.8702 30.9232 73.2842 35.0885C82.6981 39.2539 90.0718 46.9883 93.7831 56.5903C97.4945 66.1922 97.2394 76.8753 93.0741 86.2892C88.9087 95.7032 81.1743 103.077 71.5723 106.788C61.9704 110.5 51.2873 110.244 41.8734 106.079C32.4594 101.914 25.0858 94.1794 21.3744 84.5774Z" fill="#FA756D"/>
<path fill-rule="evenodd" clip-rule="evenodd" d="M35.0227 46.4932C38.1117 43.5965 41.7327 41.3258 45.6856 39.8067C49.6326 38.2724 53.8395 37.5175 58.0737 37.5837C59.9686 38.5203 61.8329 39.7412 63.614 41.1787C66.947 43.8699 70.1072 47.4097 72.89 51.6093C74.6334 51.3923 76.29 51.2615 77.8598 51.2169C80.3182 51.1452 82.6022 51.2814 84.6147 51.6587C85.7188 53.2349 86.6872 54.9221 87.5199 56.7203C87.0007 56.4126 86.4491 56.1633 85.8752 55.9768C83.9443 55.322 81.2729 55.0016 77.9728 55.1C77.06 55.1249 76.1115 55.1825 75.1275 55.273C77.7141 59.8985 79.7115 64.8296 81.0732 69.9513C81.7851 69.4067 82.4552 68.8637 83.0833 68.3222C85.5918 66.1755 87.3533 64.1418 88.3419 62.3586C88.6747 61.7497 88.9137 61.1976 89.0589 60.7022C89.6521 62.593 90.0702 64.4929 90.3132 66.4019C88.9171 68.1838 87.3401 69.8164 85.6076 71.2733C84.4501 72.2587 83.2509 73.1941 82.0134 74.0769C83.1106 79.8021 83.2635 85.2773 82.5187 90.0893C82.3802 90.9961 82.2037 91.8967 81.9896 92.7887C80.1399 94.8214 78.0233 96.6409 75.6627 98.1814C77.1043 95.9112 78.1428 92.9842 78.6827 89.4944C79.2872 85.6151 79.2395 81.1622 78.489 76.4362C74.4622 78.9501 69.7657 81.3452 64.6322 83.4392L71.2642 100.597C70.0853 101.135 68.8756 101.603 67.6415 101.998L61.0095 84.8394C56.1465 86.6374 51.1399 88.02 46.0435 88.9725C48.6642 92.98 51.6261 96.3022 54.684 98.7703C57.4306 100.99 60.1677 102.457 62.7615 103.168C60.0142 103.608 57.222 103.697 54.4523 103.432C53.694 102.916 52.9576 102.368 52.2453 101.791C48.4578 98.7303 44.8885 94.5755 41.85 89.6007C40.3392 89.7803 38.8214 89.8951 37.3007 89.9447C35.0387 90.0317 32.7737 89.8842 30.542 89.5044C29.4263 87.9063 28.4554 86.2119 27.6407 84.4414C28.0789 84.7113 28.6271 84.9591 29.2853 85.1849C31.2163 85.8397 33.8877 86.16 37.1878 86.0616C38.0169 86.0398 38.8775 85.9898 39.7696 85.9114C37.3335 81.2065 35.4957 76.2152 34.2992 71.0538C33.5101 71.6487 32.769 72.2426 32.0758 72.8356C29.5688 74.9861 27.8073 77.0198 26.8187 78.8031C26.4834 79.4129 26.2431 79.9655 26.0978 80.4609C25.5097 78.5682 25.0929 76.6678 24.8474 74.7598C26.2435 72.9778 27.8204 71.3453 29.553 69.8883C30.7432 68.869 32.0558 67.8521 33.491 66.8377C32.7274 61.862 32.6839 57.1131 33.342 52.8837C33.6677 50.6987 34.2313 48.5558 35.0227 46.4932ZM61.1767 44.2027C63.7816 46.3056 66.3213 49.0355 68.6375 52.2779C63.7066 53.2291 58.8617 54.5818 54.1511 56.3222L47.6343 39.462C51.6538 38.7474 56.401 40.3473 61.1767 44.2027ZM70.9503 55.807C65.6996 56.704 60.5434 58.0867 55.5484 59.9373L63.232 79.8165C68.7203 77.5722 73.6312 74.9932 77.6724 72.3463C77.0783 69.8468 76.2891 67.3202 75.305 64.7665C74.0569 61.5374 72.5832 58.5316 70.9503 55.807ZM44.0116 40.8623L50.5254 57.7148C45.8678 59.5965 41.3718 61.8558 37.0824 64.4701C36.6196 60.5113 36.6593 56.7844 37.1751 53.4709C38.114 47.4112 40.5578 43.0405 44.0116 40.8623ZM51.9242 61.3337C46.983 63.3237 42.2373 65.7682 37.7482 68.6358C38.4095 71.896 39.3472 75.094 40.5513 78.195C41.5365 80.7439 42.6603 83.1514 43.8956 85.3928C48.668 84.6375 54.033 83.2446 59.6063 81.2091L51.9242 61.3337Z" fill="#FA756D"/>
</g>
</g>
<defs>
<clipPath id="clip0_6704_1293">
<rect width="480" height="141" fill="white"/>
</clipPath>
<clipPath id="clip1_6704_1293">
<rect width="98.3271" height="98.3271" fill="white" transform="translate(-6 42.4492) rotate(-21.1323)"/>
</clipPath>
</defs>
</svg>
