<svg xmlns="http://www.w3.org/2000/svg" fill="none" viewBox="0 0 500 301"><path fill="#fff" d="m426.985 60.963-.032-.745c-.997-20.827-8.754-36.1-21.759-46.048-.307-.23-.614-.46-.92-.668C391.97 4.485 375.164.08 355.07.08H235.288l-3.133 3.133v217.235l3.133 3.134h29.428l3.134-3.134V132.8l3.122-3.133h84.098c18.384 0 34.731-4.207 47.199-12.808.58-.394 1.139-.788 1.698-1.205 11.821-8.787 19.83-21.748 22.295-39.058a81 81 0 0 0 .438-3.769c.044-.449.088-.898.11-1.347.175-2.148.252-4.35.252-6.607 0-1.325-.022-2.63-.077-3.911M270.972 97.118l-3.122-3.134v-58.22l3.133-3.133h81.896c28.069 0 38.499 8.743 38.499 32.243s-10.43 32.244-38.499 32.244zm229.017 123.331-3.133 3.134h-29.428l-3.134-3.134V3.214L467.439.08h29.427L500 3.214v217.235zm-327.673 3.134-5.949-3.298-56.281-87.549-6.114-3.057H38.817l-3.133 3.133v87.648l-3.123 3.134H3.133L0 220.46V3.214L3.133.08h117.591c48.535 0 74.183 22.405 74.183 64.793 0 32.244-15.777 53.246-45.675 60.905v3.1l42.542 66.832v24.552l-3.32 3.32zM120.724 97.118c28.069 0 38.499-8.743 38.499-32.244s-10.43-32.243-38.499-32.243H38.828l-3.144 3.133v58.22l3.133 3.134zm364.979 185.907h7.149v17.871h-14.297v-35.742h7.148zm-450.472-.129h7.149v17.871H28.083v-35.742h7.148zm28.16 0h7.148v17.871H56.242v-35.742h7.149zm28.159 0h7.148v17.871H84.401v-35.742h7.149zm28.159 0h7.148v17.871h-14.296v-35.742h7.148zm28.159 0h7.149v17.871H140.72v-35.742h7.148zm28.159 0h7.149v17.871h-14.297v-35.742h7.148zm28.16 0h7.148v17.871h-14.297v-35.742h7.149zm28.159 0h7.148v17.871h-14.297v-35.742h7.149zm28.159 0h7.148v17.871h-14.297v-35.742h7.149zm28.159 0h7.148v17.871h-14.296v-35.742h7.148zm28.16 0h7.149v17.871h-14.297v-35.742h7.148zm28.159 0h7.149v17.871h-14.297v-35.742h7.148zm28.16 0h7.148v17.871h-14.297v-35.742h7.149zm28.159 0h7.148v17.871h-14.297v-35.742h7.149zm28.159 0h7.148v17.871h-14.297v-35.742h7.149zm28.159 0h7.149v17.871h-14.297v-35.742h7.148zm-450.472-.129h7.149v17.871H0v-35.742h7.148zm492.852.258h-7.148v-17.871H500zm-450.472-.129H42.38v-17.871h7.148zm28.16 0h-7.149v-17.871h7.148zm28.159 0h-7.149v-17.871h7.149zm28.159 0h-7.149v-17.871h7.149zm28.159 0h-7.148v-17.871h7.148zm28.159 0h-7.148v-17.871h7.148zm28.159 0h-7.148v-17.871h7.148zm28.16 0h-7.149v-17.871h7.149zm28.159 0h-7.149v-17.871h7.149zm28.159 0h-7.149v-17.871h7.149zm28.16 0h-7.148v-17.871h7.148zm28.159 0h-7.148v-17.871h7.148zm28.159 0h-7.148v-17.871h7.148zm28.16 0h-7.149v-17.871h7.149zm28.159 0h-7.149v-17.871h7.149zm28.159 0h-7.148v-17.871h7.148zm-450.472-.129h-7.148v-17.871h7.148z"/></svg>