<svg width="70" height="70" viewBox="0 0 70 70" fill="none" xmlns="http://www.w3.org/2000/svg">
<path opacity="0.32" d="M0 34.5833C0 53.6832 15.4835 69.1667 34.5833 69.1667C53.6832 69.1667 69.1667 53.6832 69.1667 34.5833C69.1667 15.4835 53.6832 0 34.5833 0C15.4835 0 0 15.4835 0 34.5833Z" fill="#FA756D" fill-opacity="0.8"/>
<path fill-rule="evenodd" clip-rule="evenodd" d="M26.2456 26.2456C21.8162 30.6749 20.8479 41.1721 20.8479 41.1721C20.2529 46.8293 22.3374 48.9137 27.9945 48.3188C27.9945 48.3188 38.4917 47.3505 42.9211 42.9211C47.3505 38.4917 48.3188 27.9945 48.3188 27.9945C48.9137 22.3374 46.8293 20.253 41.1721 20.8479C41.1721 20.8479 30.6749 21.8162 26.2456 26.2456ZM31.125 34.5833C31.125 36.4933 32.6733 38.0417 34.5833 38.0417C36.4933 38.0417 38.0417 36.4933 38.0417 34.5833V34.5799C38.0417 32.6699 36.4933 31.1215 34.5833 31.1215C32.6733 31.1215 31.125 32.6699 31.125 34.5799V34.5833Z" fill="#FA756D"/>
</svg>
