<svg width="519" height="141" viewBox="0 0 519 141" fill="none" xmlns="http://www.w3.org/2000/svg">
<path d="M115.738 99.7363L115.739 42.1973L126.753 42.1973L151.248 82.8034L145.412 82.8034L169.496 42.1973L180.429 42.1973L180.593 99.7363L168.099 99.7363L168.017 61.3496L170.318 61.3496L151.084 93.6536L145.083 93.6536L125.438 61.3496L128.233 61.3496L128.233 99.7363L115.738 99.7363ZM215.287 100.394C210.246 100.394 205.807 99.4075 201.971 97.4348C198.19 95.462 195.258 92.7768 193.176 89.3793C191.094 85.927 190.052 82.0088 190.052 77.6249C190.052 73.1862 191.066 69.268 193.094 65.8705C195.176 62.4182 197.998 59.733 201.56 57.815C205.122 55.8423 209.15 54.8559 213.643 54.8559C217.973 54.8559 221.863 55.7875 225.316 57.6506C228.823 59.459 231.59 62.0894 233.618 65.5417C235.645 68.9393 236.659 73.0218 236.659 77.7893C236.659 78.2825 236.632 78.8579 236.577 79.5155C236.522 80.1183 236.467 80.6937 236.412 81.2416L200.492 81.2416L200.492 73.7616L229.672 73.7616L224.74 75.9809C224.74 73.6794 224.274 71.6792 223.343 69.9804C222.411 68.2817 221.124 66.9665 219.48 66.0349C217.836 65.0485 215.918 64.5553 213.726 64.5553C211.534 64.5553 209.588 65.0485 207.89 66.0349C206.246 66.9665 204.958 68.3091 204.026 70.0626C203.095 71.7614 202.629 73.789 202.629 76.1453L202.629 78.1181C202.629 80.5293 203.149 82.6664 204.191 84.5296C205.287 86.338 206.794 87.7353 208.712 88.7217C210.684 89.6533 212.986 90.1191 215.616 90.1191C217.973 90.1191 220.028 89.7629 221.781 89.0505C223.59 88.3381 225.233 87.2695 226.713 85.8448L233.536 93.2426C231.508 95.5442 228.96 97.3252 225.891 98.5855C222.822 99.7911 219.288 100.394 215.287 100.394ZM245.196 99.7363L245.196 55.5135L257.444 55.5135L257.444 68.0077L255.718 64.3909C257.033 61.2674 259.143 58.911 262.047 57.3218C264.951 55.6779 268.486 54.8559 272.651 54.8559L272.651 66.6925C272.103 66.6377 271.609 66.6103 271.171 66.6103C270.733 66.5555 270.267 66.5281 269.774 66.5281C266.266 66.5281 263.417 67.5419 261.225 69.5694C259.088 71.5422 258.019 74.6384 258.019 78.8579L258.019 99.7363L245.196 99.7363ZM280.355 99.7363L280.355 55.5135L293.178 55.5135L293.178 99.7363L280.355 99.7363ZM286.767 49.3486C284.41 49.3486 282.493 48.6636 281.013 47.2936C279.533 45.9236 278.794 44.2249 278.794 42.1973C278.794 40.1697 279.533 38.471 281.013 37.101C282.493 35.731 284.41 35.046 286.767 35.046C289.123 35.046 291.041 35.7036 292.521 37.0188C294 38.2792 294.74 39.9231 294.74 41.9507C294.74 44.0879 294 45.8688 292.521 47.2936C291.096 48.6636 289.178 49.3486 286.767 49.3486ZM324.067 100.394C319.902 100.394 316.149 99.4623 312.806 97.5992C309.463 95.6812 306.805 93.0234 304.833 89.6259C302.915 86.2284 301.956 82.228 301.956 77.6249C301.956 72.967 302.915 68.9393 304.833 65.5417C306.805 62.1442 309.463 59.5138 312.806 57.6506C316.149 55.7875 319.902 54.8559 324.067 54.8559C327.793 54.8559 331.054 55.6779 333.849 57.3218C336.643 58.9658 338.808 61.4592 340.342 64.8019C341.877 68.1447 342.644 72.419 342.644 77.6249C342.644 82.776 341.904 87.0503 340.425 90.4479C338.945 93.7906 336.808 96.284 334.013 97.928C331.273 99.5719 327.958 100.394 324.067 100.394ZM326.286 89.8725C328.369 89.8725 330.259 89.3793 331.958 88.3929C333.657 87.4065 334.999 86.0092 335.986 84.2008C337.027 82.3376 337.548 80.1457 337.548 77.6249C337.548 75.0493 337.027 72.8574 335.986 71.049C334.999 69.2406 333.657 67.8433 331.958 66.8569C330.259 65.8705 328.369 65.3773 326.286 65.3773C324.149 65.3773 322.231 65.8705 320.532 66.8569C318.834 67.8433 317.464 69.2406 316.423 71.049C315.436 72.8574 314.943 75.0493 314.943 77.6249C314.943 80.1457 315.436 82.3376 316.423 84.2008C317.464 86.0092 318.834 87.4065 320.532 88.3929C322.231 89.3793 324.149 89.8725 326.286 89.8725ZM337.876 99.7363L337.876 90.6945L338.123 77.5427L337.301 64.4731L337.301 38.745L350.124 38.745L350.124 99.7363L337.876 99.7363ZM361.992 99.7363L361.992 55.5135L374.815 55.5135L374.815 99.7363L361.992 99.7363ZM368.404 49.3486C366.047 49.3486 364.129 48.6636 362.65 47.2936C361.17 45.9236 360.43 44.2249 360.43 42.1973C360.43 40.1697 361.17 38.471 362.65 37.101C364.129 35.731 366.047 35.046 368.404 35.046C370.76 35.046 372.678 35.7036 374.157 37.0188C375.637 38.2792 376.377 39.9231 376.377 41.9507C376.377 44.0879 375.637 45.8688 374.157 47.2936C372.733 48.6636 370.815 49.3486 368.404 49.3486ZM413.841 99.7363L413.841 91.1055L413.019 89.2149L413.019 73.7616C413.019 71.0216 412.17 68.8845 410.471 67.3501C408.827 65.8157 406.279 65.0485 402.827 65.0485C400.47 65.0485 398.141 65.4321 395.84 66.1993C393.593 66.9117 391.675 67.8981 390.086 69.1584L385.483 60.1988C387.894 58.5 390.798 57.1849 394.196 56.2533C397.593 55.3217 401.046 54.8559 404.553 54.8559C411.293 54.8559 416.527 56.4451 420.253 59.6234C423.979 62.8018 425.842 67.7611 425.842 74.5014L425.842 99.7363L413.841 99.7363ZM400.361 100.394C396.908 100.394 393.949 99.8185 391.483 98.6678C389.017 97.4622 387.127 95.8456 385.812 93.818C384.496 91.7905 383.839 89.5163 383.839 86.9955C383.839 84.3652 384.469 82.0636 385.729 80.0909C387.045 78.1181 389.1 76.5837 391.894 75.4877C394.689 74.337 398.333 73.7616 402.827 73.7616L414.581 73.7616L414.581 81.2416L404.224 81.2416C401.21 81.2416 399.128 81.7348 397.977 82.7212C396.881 83.7076 396.333 84.9406 396.333 86.4202C396.333 88.0641 396.963 89.3793 398.224 90.3657C399.539 91.2973 401.32 91.7631 403.567 91.7631C405.704 91.7631 407.622 91.2699 409.32 90.2835C411.019 89.2423 412.252 87.7353 413.019 85.7626L414.992 91.6809C414.061 94.5304 412.362 96.695 409.896 98.1746C407.43 99.6541 404.252 100.394 400.361 100.394ZM464.327 54.8559C467.834 54.8559 470.957 55.5683 473.697 56.9931C476.492 58.363 478.684 60.5002 480.273 63.4045C481.862 66.2541 482.657 69.9256 482.657 74.4192L482.657 99.7363L469.834 99.7363L469.834 76.3919C469.834 72.83 469.039 70.1996 467.45 68.5009C465.916 66.8021 463.724 65.9527 460.874 65.9527C458.847 65.9527 457.011 66.3911 455.367 67.2679C453.778 68.0899 452.518 69.3776 451.586 71.1312C450.709 72.8848 450.271 75.1315 450.271 77.8715L450.271 99.7363L437.448 99.7363L437.448 55.5135L449.695 55.5135L449.695 67.7611L447.394 64.0621C448.983 61.103 451.257 58.8288 454.216 57.2397C457.175 55.6505 460.546 54.8559 464.327 54.8559Z" fill="#414141"/>
<g clip-path="url(#clip0_6746_3984)">
<rect x="13.9805" y="51.3594" width="70.2018" height="70.2018" rx="35.1009" transform="rotate(-21.1323 13.9805 51.3594)" fill="#6D8EFA" fill-opacity="0.3"/>
<path fill-rule="evenodd" clip-rule="evenodd" d="M48.7429 43.6679C45.0881 45.0805 41.7474 47.1992 38.9115 49.9029C36.0755 52.6066 33.7998 55.8424 32.2144 59.4255C30.629 63.0087 29.7649 66.869 29.6713 70.7862C29.5778 74.7033 30.2568 78.6005 31.6694 82.2552C33.082 85.91 35.2006 89.2507 37.9043 92.0866C40.608 94.9226 43.8438 97.1982 47.427 98.7837C51.0101 100.369 54.8705 101.233 58.7876 101.327C62.7047 101.42 66.6019 100.741 70.2567 99.3287C77.6377 96.4758 83.5832 90.8076 86.7851 83.5711C89.987 76.3346 90.1831 68.1225 87.3302 60.7414C84.4772 53.3603 78.8091 47.4149 71.5725 44.213C64.336 41.0111 56.1239 40.815 48.7429 43.6679ZM26.7585 84.1533C23.4022 75.4698 23.6329 65.8087 27.3998 57.2952C31.1667 48.7818 38.1612 42.1134 46.8447 38.7571C55.5283 35.4008 65.1894 35.6314 73.7029 39.3983C82.2163 43.1652 88.8847 50.1598 92.241 58.8433C95.5973 67.5268 95.3667 77.188 91.5998 85.7014C87.8329 94.2149 80.8383 100.883 72.1548 104.24C63.4713 107.596 53.8101 107.365 45.2967 103.598C36.7832 99.8314 30.1149 92.8369 26.7585 84.1533Z" fill="#6D8EFA"/>
<path fill-rule="evenodd" clip-rule="evenodd" d="M39.099 49.7157C41.8925 47.0961 45.1671 45.0426 48.7419 43.6688C52.3113 42.2812 56.1158 41.5985 59.945 41.6584C61.6587 42.5055 63.3446 43.6095 64.9553 44.9095C67.9695 47.3433 70.8275 50.5445 73.3441 54.3424C74.9207 54.1461 76.4188 54.0279 77.8385 53.9876C80.0617 53.9227 82.1272 54.0459 83.9473 54.3871C84.9458 55.8125 85.8215 57.3383 86.5745 58.9645C86.105 58.6863 85.6062 58.4608 85.0872 58.2921C83.3409 57.6999 80.9251 57.4102 77.9406 57.4992C77.1152 57.5217 76.2575 57.5739 75.3675 57.6557C77.7067 61.8387 79.5131 66.2981 80.7445 70.9299C81.3883 70.4374 81.9943 69.9464 82.5624 69.4567C84.8309 67.5153 86.4239 65.6761 87.3179 64.0635C87.6189 63.5128 87.835 63.0135 87.9664 62.5655C88.5028 64.2754 88.8809 65.9936 89.1007 67.72C87.8381 69.3315 86.412 70.8079 84.8452 72.1255C83.7984 73.0166 82.7139 73.8625 81.5947 74.6609C82.587 79.8384 82.7253 84.7899 82.0518 89.1416C81.9265 89.9617 81.7669 90.7761 81.5733 91.5828C79.9005 93.421 77.9863 95.0665 75.8515 96.4597C77.1553 94.4066 78.0944 91.7596 78.5827 88.6036C79.1293 85.0954 79.0862 81.0684 78.4075 76.7945C74.7659 79.068 70.5186 81.2339 65.8762 83.1276L71.8738 98.6446C70.8077 99.1311 69.7137 99.5539 68.5976 99.9109L62.6 84.3939C58.2022 86.0199 53.6745 87.2703 49.0655 88.1316C51.4356 91.7558 54.1142 94.7602 56.8796 96.9922C59.3634 98.9994 61.8387 100.327 64.1844 100.969C61.6999 101.368 59.1748 101.448 56.67 101.208C55.9842 100.742 55.3183 100.246 54.6741 99.7235C51.2489 96.9561 48.0211 93.1987 45.2732 88.6997C43.9069 88.8622 42.5343 88.966 41.1591 89.0109C39.1134 89.0896 37.0651 88.9561 35.0469 88.6127C34.0379 87.1675 33.1598 85.6351 32.4231 84.0339C32.8193 84.278 33.3151 84.5021 33.9104 84.7063C35.6567 85.2985 38.0725 85.5882 41.057 85.4992C41.8067 85.4795 42.585 85.4342 43.3918 85.3634C41.1887 81.1085 39.5267 76.5946 38.4447 71.9269C37.731 72.4649 37.0608 73.0021 36.4339 73.5383C34.1667 75.4831 32.5737 77.3223 31.6797 78.935C31.3765 79.4865 31.1592 79.9862 31.0278 80.4342C30.4959 78.7225 30.119 77.0039 29.897 75.2784C31.1595 73.6669 32.5856 72.1905 34.1525 70.8729C35.2288 69.9511 36.4159 69.0315 37.7137 68.1141C37.0232 63.6144 36.9839 59.3198 37.579 55.4949C37.8736 53.5189 38.3833 51.581 39.099 49.7157ZM62.7512 47.6443C65.1069 49.5461 67.4037 52.0148 69.4984 54.947C65.0391 55.8073 60.6576 57.0305 56.3976 58.6045L50.5042 43.3571C54.1392 42.7108 58.4324 44.1577 62.7512 47.6443ZM71.5899 58.1386C66.8414 58.9498 62.1785 60.2002 57.6613 61.8738L64.6099 79.8514C69.5732 77.8218 74.0143 75.4895 77.6691 73.0958C77.1317 70.8354 76.418 68.5505 75.528 66.2411C74.3993 63.3209 73.0666 60.6026 71.5899 58.1386ZM47.228 44.6234L53.1188 59.8639C48.9067 61.5656 44.8408 63.6088 40.9616 65.973C40.5431 62.3929 40.579 59.0225 41.0454 56.026C41.8945 50.5458 44.1046 46.5933 47.228 44.6234ZM54.3837 63.1366C49.9152 64.9362 45.6234 67.1469 41.5637 69.7402C42.1618 72.6886 43.0098 75.5807 44.0987 78.3851C44.9897 80.6901 46.006 82.8673 47.1231 84.8943C51.439 84.2113 56.2908 82.9517 61.331 81.1108L54.3837 63.1366Z" fill="#6D8EFA"/>
</g>
<defs>
<clipPath id="clip0_6746_3984">
<rect width="88.9216" height="88.9216" fill="white" transform="translate(2 46.0566) rotate(-21.1323)"/>
</clipPath>
</defs>
</svg>
