<svg width="21" height="21" viewBox="0 0 21 21" fill="none" xmlns="http://www.w3.org/2000/svg">
<g clip-path="url(#clip0_401_454)">
<path d="M2.62907e-06 10.465C-0.000343143 10.2927 0.0334211 10.1221 0.0993486 9.96288C0.165276 9.8037 0.262063 9.65913 0.384128 9.53753L7.09713 2.82103C7.99964 1.91856 9.22369 1.41156 10.5 1.41156C11.7763 1.41156 13.0004 1.91856 13.9029 2.82103L20.6159 9.53753C20.7377 9.65945 20.8344 9.80417 20.9003 9.96344C20.9662 10.1227 21.0002 10.2934 21.0001 10.4658C21.0001 10.6382 20.9661 10.8088 20.9001 10.9681C20.8341 11.1273 20.7374 11.272 20.6154 11.3938C20.4935 11.5157 20.3488 11.6124 20.1895 11.6783C20.0303 11.7442 19.8596 11.7781 19.6872 11.7781C19.5148 11.778 19.3441 11.744 19.1849 11.678C19.0257 11.612 18.881 11.5153 18.7591 11.3934L12.047 4.67691C11.8439 4.47372 11.6027 4.31254 11.3373 4.20257C11.0718 4.0926 10.7873 4.036 10.5 4.036C10.2127 4.036 9.92819 4.0926 9.66275 4.20257C9.39731 4.31254 9.15614 4.47372 8.953 4.67691L2.24088 11.3899C2.05753 11.5734 1.82393 11.6984 1.56958 11.7492C1.31523 11.8 1.05152 11.7743 0.811765 11.6754C0.572006 11.5764 0.366943 11.4086 0.222465 11.1932C0.0779884 10.9778 0.000576123 10.7244 2.62907e-06 10.465Z" fill="#B0AFAF"/>
<path d="M1.34725e-07 18.8125C-7.79704e-05 18.6401 0.0338051 18.4694 0.099714 18.3101C0.165623 18.1508 0.262267 18.0061 0.384125 17.8842L8.33437 9.94003C8.90928 9.3667 9.68807 9.04474 10.5 9.04474C11.3119 9.04474 12.0907 9.3667 12.6656 9.94003L20.6159 17.8859C20.8506 18.1344 20.9791 18.4646 20.9741 18.8063C20.9691 19.1481 20.831 19.4744 20.5891 19.7159C20.3473 19.9574 20.0208 20.095 19.679 20.0995C19.3373 20.104 19.0073 19.9751 18.7591 19.74L10.8098 11.7898C10.7277 11.7078 10.6164 11.6617 10.5004 11.6617C10.3844 11.6617 10.2732 11.7078 10.1911 11.7898L2.24088 19.74C2.05737 19.9237 1.82353 20.0487 1.56893 20.0995C1.31434 20.1502 1.05042 20.1243 0.810552 20.025C0.570686 19.9257 0.365649 19.7575 0.221371 19.5417C0.0770936 19.3259 5.55507e-05 19.0721 1.34725e-07 18.8125Z" fill="#B0AFAF"/>
</g>
<defs>
<clipPath id="clip0_401_454">
<rect width="21" height="21" fill="white"/>
</clipPath>
</defs>
</svg>
